M48
; DRILL file {KiCad 9.0.0} date 2025-06-26T09:06:55-0700
; FORMAT={-:-/ absolute / metric / decimal}
; #@! TF.CreationDate,2025-06-26T09:06:55-07:00
; #@! TF.GenerationSoftware,Kicad,Pcbnew,9.0.0
; #@! TF.FileFunction,Plated,1,2,PTH
FMAT,2
METRIC
; #@! TA.AperFunction,Plated,PTH,ComponentDrill
T1C0.700
; #@! TA.AperFunction,Plated,PTH,ComponentDrill
T2C0.800
; #@! TA.AperFunction,Plated,PTH,ComponentDrill
T3C0.900
; #@! TA.AperFunction,Plated,PTH,ComponentDrill
T4C1.000
%
G90
G05
T1
X88.77Y-46.882
X88.77Y-49.422
X102.87Y-51.998
X102.87Y-55.27
X102.87Y-58.572
X102.87Y-61.874
X102.87Y-65.684
X102.87Y-68.986
X102.87Y-72.288
X102.87Y-75.59
X105.41Y-51.998
X105.41Y-55.27
X105.41Y-58.572
X105.41Y-61.874
X105.41Y-65.684
X105.41Y-68.986
X105.41Y-72.288
X105.41Y-75.59
T2
X80.01Y-52.222
X80.01Y-54.762
X80.01Y-57.302
X80.01Y-59.842
X80.01Y-62.382
X80.01Y-64.922
X80.01Y-67.462
X80.01Y-70.002
X80.01Y-72.542
X80.01Y-75.082
X80.77Y-46.922
X80.77Y-49.422
X81.48Y-79.527
X85.77Y-46.922
X85.77Y-49.422
X86.36Y-79.527
X87.63Y-52.222
X87.63Y-54.762
X87.63Y-57.302
X87.63Y-59.842
X87.63Y-62.382
X87.63Y-64.922
X87.63Y-67.462
X87.63Y-70.002
X87.63Y-72.542
X87.63Y-75.082
X91.44Y-47.142
X91.44Y-49.682
X91.44Y-52.222
X91.44Y-54.762
X91.44Y-57.302
X91.44Y-59.842
X91.44Y-62.382
X91.44Y-64.922
X91.44Y-67.462
X91.44Y-70.002
X91.44Y-72.542
X91.44Y-75.082
X91.44Y-77.622
X91.44Y-80.162
X99.06Y-47.142
X99.06Y-49.682
X99.06Y-52.222
X99.06Y-54.762
X99.06Y-57.302
X99.06Y-59.842
X99.06Y-62.382
X99.06Y-64.922
X99.06Y-67.462
X99.06Y-70.002
X99.06Y-72.542
X99.06Y-75.082
X99.06Y-77.622
X99.06Y-80.162
X102.87Y-78.043
X102.87Y-80.543
X105.41Y-48.26
X105.41Y-78.043
X105.41Y-80.543
X114.3Y-52.032
X114.3Y-54.572
X114.3Y-57.112
X114.3Y-59.652
X114.3Y-62.192
X114.3Y-65.282
X114.3Y-67.822
X114.3Y-70.362
X114.3Y-72.902
X114.3Y-75.442
X129.54Y-52.032
X129.54Y-54.572
X129.54Y-57.112
X129.54Y-59.652
X129.54Y-62.192
X129.54Y-65.282
X129.54Y-67.822
X129.54Y-70.362
X129.54Y-72.902
X129.54Y-75.442
T3
X107.95Y-51.968
X107.95Y-55.27
X107.95Y-58.572
X107.95Y-61.874
X107.95Y-65.684
X107.95Y-68.986
X107.95Y-72.288
X107.95Y-75.59
X110.49Y-51.968
X110.49Y-55.27
X110.49Y-58.572
X110.49Y-61.874
X110.49Y-65.684
X110.49Y-68.986
X110.49Y-72.288
X110.49Y-75.59
T4
X76.2Y-50.952
X76.2Y-53.492
X76.2Y-56.032
X76.2Y-58.572
X76.2Y-61.112
X76.2Y-63.652
X76.2Y-66.192
X76.2Y-68.732
X76.2Y-71.272
X76.2Y-73.812
X76.2Y-76.352
M30
