%TF.GenerationSoftware,KiCad,Pcbnew,9.0.0*%
%TF.CreationDate,2025-06-26T09:06:52-07:00*%
%TF.ProjectId,HexDisplay,48657844-6973-4706-9c61-792e6b696361,A*%
%TF.SameCoordinates,Original*%
%TF.FileFunction,Legend,Top*%
%TF.FilePolarity,Positive*%
%FSLAX46Y46*%
G04 Gerber Fmt 4.6, Leading zero omitted, Abs format (unit mm)*
G04 Created by KiCad (PCBNEW 9.0.0) date 2025-06-26 09:06:52*
%MOMM*%
%LPD*%
G01*
G04 APERTURE LIST*
%ADD10C,0.100000*%
%ADD11C,0.150000*%
%ADD12C,0.120000*%
G04 APERTURE END LIST*
D10*
X116639065Y-80063400D02*
X116781922Y-80111019D01*
X116781922Y-80111019D02*
X117020017Y-80111019D01*
X117020017Y-80111019D02*
X117115255Y-80063400D01*
X117115255Y-80063400D02*
X117162874Y-80015780D01*
X117162874Y-80015780D02*
X117210493Y-79920542D01*
X117210493Y-79920542D02*
X117210493Y-79825304D01*
X117210493Y-79825304D02*
X117162874Y-79730066D01*
X117162874Y-79730066D02*
X117115255Y-79682447D01*
X117115255Y-79682447D02*
X117020017Y-79634828D01*
X117020017Y-79634828D02*
X116829541Y-79587209D01*
X116829541Y-79587209D02*
X116734303Y-79539590D01*
X116734303Y-79539590D02*
X116686684Y-79491971D01*
X116686684Y-79491971D02*
X116639065Y-79396733D01*
X116639065Y-79396733D02*
X116639065Y-79301495D01*
X116639065Y-79301495D02*
X116686684Y-79206257D01*
X116686684Y-79206257D02*
X116734303Y-79158638D01*
X116734303Y-79158638D02*
X116829541Y-79111019D01*
X116829541Y-79111019D02*
X117067636Y-79111019D01*
X117067636Y-79111019D02*
X117210493Y-79158638D01*
X117496208Y-79444352D02*
X117877160Y-79444352D01*
X117639065Y-79111019D02*
X117639065Y-79968161D01*
X117639065Y-79968161D02*
X117686684Y-80063400D01*
X117686684Y-80063400D02*
X117781922Y-80111019D01*
X117781922Y-80111019D02*
X117877160Y-80111019D01*
X118591446Y-80063400D02*
X118496208Y-80111019D01*
X118496208Y-80111019D02*
X118305732Y-80111019D01*
X118305732Y-80111019D02*
X118210494Y-80063400D01*
X118210494Y-80063400D02*
X118162875Y-79968161D01*
X118162875Y-79968161D02*
X118162875Y-79587209D01*
X118162875Y-79587209D02*
X118210494Y-79491971D01*
X118210494Y-79491971D02*
X118305732Y-79444352D01*
X118305732Y-79444352D02*
X118496208Y-79444352D01*
X118496208Y-79444352D02*
X118591446Y-79491971D01*
X118591446Y-79491971D02*
X118639065Y-79587209D01*
X118639065Y-79587209D02*
X118639065Y-79682447D01*
X118639065Y-79682447D02*
X118162875Y-79777685D01*
X118924780Y-79444352D02*
X119305732Y-79444352D01*
X119067637Y-80111019D02*
X119067637Y-79253876D01*
X119067637Y-79253876D02*
X119115256Y-79158638D01*
X119115256Y-79158638D02*
X119210494Y-79111019D01*
X119210494Y-79111019D02*
X119305732Y-79111019D01*
X120067637Y-80111019D02*
X120067637Y-79587209D01*
X120067637Y-79587209D02*
X120020018Y-79491971D01*
X120020018Y-79491971D02*
X119924780Y-79444352D01*
X119924780Y-79444352D02*
X119734304Y-79444352D01*
X119734304Y-79444352D02*
X119639066Y-79491971D01*
X120067637Y-80063400D02*
X119972399Y-80111019D01*
X119972399Y-80111019D02*
X119734304Y-80111019D01*
X119734304Y-80111019D02*
X119639066Y-80063400D01*
X119639066Y-80063400D02*
X119591447Y-79968161D01*
X119591447Y-79968161D02*
X119591447Y-79872923D01*
X119591447Y-79872923D02*
X119639066Y-79777685D01*
X119639066Y-79777685D02*
X119734304Y-79730066D01*
X119734304Y-79730066D02*
X119972399Y-79730066D01*
X119972399Y-79730066D02*
X120067637Y-79682447D01*
X120543828Y-79444352D02*
X120543828Y-80111019D01*
X120543828Y-79539590D02*
X120591447Y-79491971D01*
X120591447Y-79491971D02*
X120686685Y-79444352D01*
X120686685Y-79444352D02*
X120829542Y-79444352D01*
X120829542Y-79444352D02*
X120924780Y-79491971D01*
X120924780Y-79491971D02*
X120972399Y-79587209D01*
X120972399Y-79587209D02*
X120972399Y-80111019D01*
X122115257Y-79111019D02*
X122353352Y-80111019D01*
X122353352Y-80111019D02*
X122543828Y-79396733D01*
X122543828Y-79396733D02*
X122734304Y-80111019D01*
X122734304Y-80111019D02*
X122972400Y-79111019D01*
X123781923Y-80111019D02*
X123781923Y-79587209D01*
X123781923Y-79587209D02*
X123734304Y-79491971D01*
X123734304Y-79491971D02*
X123639066Y-79444352D01*
X123639066Y-79444352D02*
X123448590Y-79444352D01*
X123448590Y-79444352D02*
X123353352Y-79491971D01*
X123781923Y-80063400D02*
X123686685Y-80111019D01*
X123686685Y-80111019D02*
X123448590Y-80111019D01*
X123448590Y-80111019D02*
X123353352Y-80063400D01*
X123353352Y-80063400D02*
X123305733Y-79968161D01*
X123305733Y-79968161D02*
X123305733Y-79872923D01*
X123305733Y-79872923D02*
X123353352Y-79777685D01*
X123353352Y-79777685D02*
X123448590Y-79730066D01*
X123448590Y-79730066D02*
X123686685Y-79730066D01*
X123686685Y-79730066D02*
X123781923Y-79682447D01*
X124258114Y-80111019D02*
X124258114Y-79444352D01*
X124258114Y-79634828D02*
X124305733Y-79539590D01*
X124305733Y-79539590D02*
X124353352Y-79491971D01*
X124353352Y-79491971D02*
X124448590Y-79444352D01*
X124448590Y-79444352D02*
X124543828Y-79444352D01*
X124877162Y-79444352D02*
X124877162Y-80111019D01*
X124877162Y-79539590D02*
X124924781Y-79491971D01*
X124924781Y-79491971D02*
X125020019Y-79444352D01*
X125020019Y-79444352D02*
X125162876Y-79444352D01*
X125162876Y-79444352D02*
X125258114Y-79491971D01*
X125258114Y-79491971D02*
X125305733Y-79587209D01*
X125305733Y-79587209D02*
X125305733Y-80111019D01*
X125781924Y-80111019D02*
X125781924Y-79111019D01*
X125877162Y-79730066D02*
X126162876Y-80111019D01*
X126162876Y-79444352D02*
X125781924Y-79825304D01*
X126972400Y-80063400D02*
X126877162Y-80111019D01*
X126877162Y-80111019D02*
X126686686Y-80111019D01*
X126686686Y-80111019D02*
X126591448Y-80063400D01*
X126591448Y-80063400D02*
X126543829Y-79968161D01*
X126543829Y-79968161D02*
X126543829Y-79587209D01*
X126543829Y-79587209D02*
X126591448Y-79491971D01*
X126591448Y-79491971D02*
X126686686Y-79444352D01*
X126686686Y-79444352D02*
X126877162Y-79444352D01*
X126877162Y-79444352D02*
X126972400Y-79491971D01*
X126972400Y-79491971D02*
X127020019Y-79587209D01*
X127020019Y-79587209D02*
X127020019Y-79682447D01*
X127020019Y-79682447D02*
X126543829Y-79777685D01*
X113202484Y-47462275D02*
X113202484Y-46462275D01*
X113202484Y-46938465D02*
X113773912Y-46938465D01*
X113773912Y-47462275D02*
X113773912Y-46462275D01*
X114631055Y-47414656D02*
X114535817Y-47462275D01*
X114535817Y-47462275D02*
X114345341Y-47462275D01*
X114345341Y-47462275D02*
X114250103Y-47414656D01*
X114250103Y-47414656D02*
X114202484Y-47319417D01*
X114202484Y-47319417D02*
X114202484Y-46938465D01*
X114202484Y-46938465D02*
X114250103Y-46843227D01*
X114250103Y-46843227D02*
X114345341Y-46795608D01*
X114345341Y-46795608D02*
X114535817Y-46795608D01*
X114535817Y-46795608D02*
X114631055Y-46843227D01*
X114631055Y-46843227D02*
X114678674Y-46938465D01*
X114678674Y-46938465D02*
X114678674Y-47033703D01*
X114678674Y-47033703D02*
X114202484Y-47128941D01*
X115012008Y-47462275D02*
X115535817Y-46795608D01*
X115012008Y-46795608D02*
X115535817Y-47462275D01*
X116678675Y-47462275D02*
X116678675Y-46462275D01*
X116678675Y-46462275D02*
X116916770Y-46462275D01*
X116916770Y-46462275D02*
X117059627Y-46509894D01*
X117059627Y-46509894D02*
X117154865Y-46605132D01*
X117154865Y-46605132D02*
X117202484Y-46700370D01*
X117202484Y-46700370D02*
X117250103Y-46890846D01*
X117250103Y-46890846D02*
X117250103Y-47033703D01*
X117250103Y-47033703D02*
X117202484Y-47224179D01*
X117202484Y-47224179D02*
X117154865Y-47319417D01*
X117154865Y-47319417D02*
X117059627Y-47414656D01*
X117059627Y-47414656D02*
X116916770Y-47462275D01*
X116916770Y-47462275D02*
X116678675Y-47462275D01*
X117678675Y-47462275D02*
X117678675Y-46795608D01*
X117678675Y-46462275D02*
X117631056Y-46509894D01*
X117631056Y-46509894D02*
X117678675Y-46557513D01*
X117678675Y-46557513D02*
X117726294Y-46509894D01*
X117726294Y-46509894D02*
X117678675Y-46462275D01*
X117678675Y-46462275D02*
X117678675Y-46557513D01*
X118107246Y-47414656D02*
X118202484Y-47462275D01*
X118202484Y-47462275D02*
X118392960Y-47462275D01*
X118392960Y-47462275D02*
X118488198Y-47414656D01*
X118488198Y-47414656D02*
X118535817Y-47319417D01*
X118535817Y-47319417D02*
X118535817Y-47271798D01*
X118535817Y-47271798D02*
X118488198Y-47176560D01*
X118488198Y-47176560D02*
X118392960Y-47128941D01*
X118392960Y-47128941D02*
X118250103Y-47128941D01*
X118250103Y-47128941D02*
X118154865Y-47081322D01*
X118154865Y-47081322D02*
X118107246Y-46986084D01*
X118107246Y-46986084D02*
X118107246Y-46938465D01*
X118107246Y-46938465D02*
X118154865Y-46843227D01*
X118154865Y-46843227D02*
X118250103Y-46795608D01*
X118250103Y-46795608D02*
X118392960Y-46795608D01*
X118392960Y-46795608D02*
X118488198Y-46843227D01*
X118964389Y-46795608D02*
X118964389Y-47795608D01*
X118964389Y-46843227D02*
X119059627Y-46795608D01*
X119059627Y-46795608D02*
X119250103Y-46795608D01*
X119250103Y-46795608D02*
X119345341Y-46843227D01*
X119345341Y-46843227D02*
X119392960Y-46890846D01*
X119392960Y-46890846D02*
X119440579Y-46986084D01*
X119440579Y-46986084D02*
X119440579Y-47271798D01*
X119440579Y-47271798D02*
X119392960Y-47367036D01*
X119392960Y-47367036D02*
X119345341Y-47414656D01*
X119345341Y-47414656D02*
X119250103Y-47462275D01*
X119250103Y-47462275D02*
X119059627Y-47462275D01*
X119059627Y-47462275D02*
X118964389Y-47414656D01*
X120012008Y-47462275D02*
X119916770Y-47414656D01*
X119916770Y-47414656D02*
X119869151Y-47319417D01*
X119869151Y-47319417D02*
X119869151Y-46462275D01*
X120821532Y-47462275D02*
X120821532Y-46938465D01*
X120821532Y-46938465D02*
X120773913Y-46843227D01*
X120773913Y-46843227D02*
X120678675Y-46795608D01*
X120678675Y-46795608D02*
X120488199Y-46795608D01*
X120488199Y-46795608D02*
X120392961Y-46843227D01*
X120821532Y-47414656D02*
X120726294Y-47462275D01*
X120726294Y-47462275D02*
X120488199Y-47462275D01*
X120488199Y-47462275D02*
X120392961Y-47414656D01*
X120392961Y-47414656D02*
X120345342Y-47319417D01*
X120345342Y-47319417D02*
X120345342Y-47224179D01*
X120345342Y-47224179D02*
X120392961Y-47128941D01*
X120392961Y-47128941D02*
X120488199Y-47081322D01*
X120488199Y-47081322D02*
X120726294Y-47081322D01*
X120726294Y-47081322D02*
X120821532Y-47033703D01*
X121202485Y-46795608D02*
X121440580Y-47462275D01*
X121678675Y-46795608D02*
X121440580Y-47462275D01*
X121440580Y-47462275D02*
X121345342Y-47700370D01*
X121345342Y-47700370D02*
X121297723Y-47747989D01*
X121297723Y-47747989D02*
X121202485Y-47795608D01*
X123392961Y-47367036D02*
X123345342Y-47414656D01*
X123345342Y-47414656D02*
X123202485Y-47462275D01*
X123202485Y-47462275D02*
X123107247Y-47462275D01*
X123107247Y-47462275D02*
X122964390Y-47414656D01*
X122964390Y-47414656D02*
X122869152Y-47319417D01*
X122869152Y-47319417D02*
X122821533Y-47224179D01*
X122821533Y-47224179D02*
X122773914Y-47033703D01*
X122773914Y-47033703D02*
X122773914Y-46890846D01*
X122773914Y-46890846D02*
X122821533Y-46700370D01*
X122821533Y-46700370D02*
X122869152Y-46605132D01*
X122869152Y-46605132D02*
X122964390Y-46509894D01*
X122964390Y-46509894D02*
X123107247Y-46462275D01*
X123107247Y-46462275D02*
X123202485Y-46462275D01*
X123202485Y-46462275D02*
X123345342Y-46509894D01*
X123345342Y-46509894D02*
X123392961Y-46557513D01*
X123964390Y-47462275D02*
X123869152Y-47414656D01*
X123869152Y-47414656D02*
X123821533Y-47367036D01*
X123821533Y-47367036D02*
X123773914Y-47271798D01*
X123773914Y-47271798D02*
X123773914Y-46986084D01*
X123773914Y-46986084D02*
X123821533Y-46890846D01*
X123821533Y-46890846D02*
X123869152Y-46843227D01*
X123869152Y-46843227D02*
X123964390Y-46795608D01*
X123964390Y-46795608D02*
X124107247Y-46795608D01*
X124107247Y-46795608D02*
X124202485Y-46843227D01*
X124202485Y-46843227D02*
X124250104Y-46890846D01*
X124250104Y-46890846D02*
X124297723Y-46986084D01*
X124297723Y-46986084D02*
X124297723Y-47271798D01*
X124297723Y-47271798D02*
X124250104Y-47367036D01*
X124250104Y-47367036D02*
X124202485Y-47414656D01*
X124202485Y-47414656D02*
X124107247Y-47462275D01*
X124107247Y-47462275D02*
X123964390Y-47462275D01*
X124726295Y-46795608D02*
X124726295Y-47462275D01*
X124726295Y-46890846D02*
X124773914Y-46843227D01*
X124773914Y-46843227D02*
X124869152Y-46795608D01*
X124869152Y-46795608D02*
X125012009Y-46795608D01*
X125012009Y-46795608D02*
X125107247Y-46843227D01*
X125107247Y-46843227D02*
X125154866Y-46938465D01*
X125154866Y-46938465D02*
X125154866Y-47462275D01*
X125488200Y-46795608D02*
X125869152Y-46795608D01*
X125631057Y-46462275D02*
X125631057Y-47319417D01*
X125631057Y-47319417D02*
X125678676Y-47414656D01*
X125678676Y-47414656D02*
X125773914Y-47462275D01*
X125773914Y-47462275D02*
X125869152Y-47462275D01*
X126202486Y-47462275D02*
X126202486Y-46795608D01*
X126202486Y-46986084D02*
X126250105Y-46890846D01*
X126250105Y-46890846D02*
X126297724Y-46843227D01*
X126297724Y-46843227D02*
X126392962Y-46795608D01*
X126392962Y-46795608D02*
X126488200Y-46795608D01*
X126964391Y-47462275D02*
X126869153Y-47414656D01*
X126869153Y-47414656D02*
X126821534Y-47367036D01*
X126821534Y-47367036D02*
X126773915Y-47271798D01*
X126773915Y-47271798D02*
X126773915Y-46986084D01*
X126773915Y-46986084D02*
X126821534Y-46890846D01*
X126821534Y-46890846D02*
X126869153Y-46843227D01*
X126869153Y-46843227D02*
X126964391Y-46795608D01*
X126964391Y-46795608D02*
X127107248Y-46795608D01*
X127107248Y-46795608D02*
X127202486Y-46843227D01*
X127202486Y-46843227D02*
X127250105Y-46890846D01*
X127250105Y-46890846D02*
X127297724Y-46986084D01*
X127297724Y-46986084D02*
X127297724Y-47271798D01*
X127297724Y-47271798D02*
X127250105Y-47367036D01*
X127250105Y-47367036D02*
X127202486Y-47414656D01*
X127202486Y-47414656D02*
X127107248Y-47462275D01*
X127107248Y-47462275D02*
X126964391Y-47462275D01*
X127869153Y-47462275D02*
X127773915Y-47414656D01*
X127773915Y-47414656D02*
X127726296Y-47319417D01*
X127726296Y-47319417D02*
X127726296Y-46462275D01*
X128392963Y-47462275D02*
X128297725Y-47414656D01*
X128297725Y-47414656D02*
X128250106Y-47319417D01*
X128250106Y-47319417D02*
X128250106Y-46462275D01*
X129154868Y-47414656D02*
X129059630Y-47462275D01*
X129059630Y-47462275D02*
X128869154Y-47462275D01*
X128869154Y-47462275D02*
X128773916Y-47414656D01*
X128773916Y-47414656D02*
X128726297Y-47319417D01*
X128726297Y-47319417D02*
X128726297Y-46938465D01*
X128726297Y-46938465D02*
X128773916Y-46843227D01*
X128773916Y-46843227D02*
X128869154Y-46795608D01*
X128869154Y-46795608D02*
X129059630Y-46795608D01*
X129059630Y-46795608D02*
X129154868Y-46843227D01*
X129154868Y-46843227D02*
X129202487Y-46938465D01*
X129202487Y-46938465D02*
X129202487Y-47033703D01*
X129202487Y-47033703D02*
X128726297Y-47128941D01*
X129631059Y-47462275D02*
X129631059Y-46795608D01*
X129631059Y-46986084D02*
X129678678Y-46890846D01*
X129678678Y-46890846D02*
X129726297Y-46843227D01*
X129726297Y-46843227D02*
X129821535Y-46795608D01*
X129821535Y-46795608D02*
X129916773Y-46795608D01*
X120107247Y-49072219D02*
X119773914Y-48596028D01*
X119535819Y-49072219D02*
X119535819Y-48072219D01*
X119535819Y-48072219D02*
X119916771Y-48072219D01*
X119916771Y-48072219D02*
X120012009Y-48119838D01*
X120012009Y-48119838D02*
X120059628Y-48167457D01*
X120059628Y-48167457D02*
X120107247Y-48262695D01*
X120107247Y-48262695D02*
X120107247Y-48405552D01*
X120107247Y-48405552D02*
X120059628Y-48500790D01*
X120059628Y-48500790D02*
X120012009Y-48548409D01*
X120012009Y-48548409D02*
X119916771Y-48596028D01*
X119916771Y-48596028D02*
X119535819Y-48596028D01*
X120916771Y-49024600D02*
X120821533Y-49072219D01*
X120821533Y-49072219D02*
X120631057Y-49072219D01*
X120631057Y-49072219D02*
X120535819Y-49024600D01*
X120535819Y-49024600D02*
X120488200Y-48929361D01*
X120488200Y-48929361D02*
X120488200Y-48548409D01*
X120488200Y-48548409D02*
X120535819Y-48453171D01*
X120535819Y-48453171D02*
X120631057Y-48405552D01*
X120631057Y-48405552D02*
X120821533Y-48405552D01*
X120821533Y-48405552D02*
X120916771Y-48453171D01*
X120916771Y-48453171D02*
X120964390Y-48548409D01*
X120964390Y-48548409D02*
X120964390Y-48643647D01*
X120964390Y-48643647D02*
X120488200Y-48738885D01*
X121297724Y-48405552D02*
X121535819Y-49072219D01*
X121535819Y-49072219D02*
X121773914Y-48405552D01*
X123250105Y-48548409D02*
X123392962Y-48596028D01*
X123392962Y-48596028D02*
X123440581Y-48643647D01*
X123440581Y-48643647D02*
X123488200Y-48738885D01*
X123488200Y-48738885D02*
X123488200Y-48881742D01*
X123488200Y-48881742D02*
X123440581Y-48976980D01*
X123440581Y-48976980D02*
X123392962Y-49024600D01*
X123392962Y-49024600D02*
X123297724Y-49072219D01*
X123297724Y-49072219D02*
X122916772Y-49072219D01*
X122916772Y-49072219D02*
X122916772Y-48072219D01*
X122916772Y-48072219D02*
X123250105Y-48072219D01*
X123250105Y-48072219D02*
X123345343Y-48119838D01*
X123345343Y-48119838D02*
X123392962Y-48167457D01*
X123392962Y-48167457D02*
X123440581Y-48262695D01*
X123440581Y-48262695D02*
X123440581Y-48357933D01*
X123440581Y-48357933D02*
X123392962Y-48453171D01*
X123392962Y-48453171D02*
X123345343Y-48500790D01*
X123345343Y-48500790D02*
X123250105Y-48548409D01*
X123250105Y-48548409D02*
X122916772Y-48548409D01*
D11*
X100355495Y-46673419D02*
X100355495Y-47482942D01*
X100355495Y-47482942D02*
X100403114Y-47578180D01*
X100403114Y-47578180D02*
X100450733Y-47625800D01*
X100450733Y-47625800D02*
X100545971Y-47673419D01*
X100545971Y-47673419D02*
X100736447Y-47673419D01*
X100736447Y-47673419D02*
X100831685Y-47625800D01*
X100831685Y-47625800D02*
X100879304Y-47578180D01*
X100879304Y-47578180D02*
X100926923Y-47482942D01*
X100926923Y-47482942D02*
X100926923Y-46673419D01*
X101926923Y-47673419D02*
X101355495Y-47673419D01*
X101641209Y-47673419D02*
X101641209Y-46673419D01*
X101641209Y-46673419D02*
X101545971Y-46816276D01*
X101545971Y-46816276D02*
X101450733Y-46911514D01*
X101450733Y-46911514D02*
X101355495Y-46959133D01*
X108253305Y-49934019D02*
X108253305Y-48934019D01*
X108253305Y-48934019D02*
X108491400Y-48934019D01*
X108491400Y-48934019D02*
X108634257Y-48981638D01*
X108634257Y-48981638D02*
X108729495Y-49076876D01*
X108729495Y-49076876D02*
X108777114Y-49172114D01*
X108777114Y-49172114D02*
X108824733Y-49362590D01*
X108824733Y-49362590D02*
X108824733Y-49505447D01*
X108824733Y-49505447D02*
X108777114Y-49695923D01*
X108777114Y-49695923D02*
X108729495Y-49791161D01*
X108729495Y-49791161D02*
X108634257Y-49886400D01*
X108634257Y-49886400D02*
X108491400Y-49934019D01*
X108491400Y-49934019D02*
X108253305Y-49934019D01*
X109777114Y-49934019D02*
X109205686Y-49934019D01*
X109491400Y-49934019D02*
X109491400Y-48934019D01*
X109491400Y-48934019D02*
X109396162Y-49076876D01*
X109396162Y-49076876D02*
X109300924Y-49172114D01*
X109300924Y-49172114D02*
X109205686Y-49219733D01*
X78446333Y-49102180D02*
X78398714Y-49149800D01*
X78398714Y-49149800D02*
X78255857Y-49197419D01*
X78255857Y-49197419D02*
X78160619Y-49197419D01*
X78160619Y-49197419D02*
X78017762Y-49149800D01*
X78017762Y-49149800D02*
X77922524Y-49054561D01*
X77922524Y-49054561D02*
X77874905Y-48959323D01*
X77874905Y-48959323D02*
X77827286Y-48768847D01*
X77827286Y-48768847D02*
X77827286Y-48625990D01*
X77827286Y-48625990D02*
X77874905Y-48435514D01*
X77874905Y-48435514D02*
X77922524Y-48340276D01*
X77922524Y-48340276D02*
X78017762Y-48245038D01*
X78017762Y-48245038D02*
X78160619Y-48197419D01*
X78160619Y-48197419D02*
X78255857Y-48197419D01*
X78255857Y-48197419D02*
X78398714Y-48245038D01*
X78398714Y-48245038D02*
X78446333Y-48292657D01*
X78779667Y-48197419D02*
X79398714Y-48197419D01*
X79398714Y-48197419D02*
X79065381Y-48578371D01*
X79065381Y-48578371D02*
X79208238Y-48578371D01*
X79208238Y-48578371D02*
X79303476Y-48625990D01*
X79303476Y-48625990D02*
X79351095Y-48673609D01*
X79351095Y-48673609D02*
X79398714Y-48768847D01*
X79398714Y-48768847D02*
X79398714Y-49006942D01*
X79398714Y-49006942D02*
X79351095Y-49102180D01*
X79351095Y-49102180D02*
X79303476Y-49149800D01*
X79303476Y-49149800D02*
X79208238Y-49197419D01*
X79208238Y-49197419D02*
X78922524Y-49197419D01*
X78922524Y-49197419D02*
X78827286Y-49149800D01*
X78827286Y-49149800D02*
X78779667Y-49102180D01*
X113568095Y-49007219D02*
X113568095Y-49816742D01*
X113568095Y-49816742D02*
X113615714Y-49911980D01*
X113615714Y-49911980D02*
X113663333Y-49959600D01*
X113663333Y-49959600D02*
X113758571Y-50007219D01*
X113758571Y-50007219D02*
X113949047Y-50007219D01*
X113949047Y-50007219D02*
X114044285Y-49959600D01*
X114044285Y-49959600D02*
X114091904Y-49911980D01*
X114091904Y-49911980D02*
X114139523Y-49816742D01*
X114139523Y-49816742D02*
X114139523Y-49007219D01*
X114520476Y-49007219D02*
X115139523Y-49007219D01*
X115139523Y-49007219D02*
X114806190Y-49388171D01*
X114806190Y-49388171D02*
X114949047Y-49388171D01*
X114949047Y-49388171D02*
X115044285Y-49435790D01*
X115044285Y-49435790D02*
X115091904Y-49483409D01*
X115091904Y-49483409D02*
X115139523Y-49578647D01*
X115139523Y-49578647D02*
X115139523Y-49816742D01*
X115139523Y-49816742D02*
X115091904Y-49911980D01*
X115091904Y-49911980D02*
X115044285Y-49959600D01*
X115044285Y-49959600D02*
X114949047Y-50007219D01*
X114949047Y-50007219D02*
X114663333Y-50007219D01*
X114663333Y-50007219D02*
X114568095Y-49959600D01*
X114568095Y-49959600D02*
X114520476Y-49911980D01*
X78446333Y-47247980D02*
X78398714Y-47295600D01*
X78398714Y-47295600D02*
X78255857Y-47343219D01*
X78255857Y-47343219D02*
X78160619Y-47343219D01*
X78160619Y-47343219D02*
X78017762Y-47295600D01*
X78017762Y-47295600D02*
X77922524Y-47200361D01*
X77922524Y-47200361D02*
X77874905Y-47105123D01*
X77874905Y-47105123D02*
X77827286Y-46914647D01*
X77827286Y-46914647D02*
X77827286Y-46771790D01*
X77827286Y-46771790D02*
X77874905Y-46581314D01*
X77874905Y-46581314D02*
X77922524Y-46486076D01*
X77922524Y-46486076D02*
X78017762Y-46390838D01*
X78017762Y-46390838D02*
X78160619Y-46343219D01*
X78160619Y-46343219D02*
X78255857Y-46343219D01*
X78255857Y-46343219D02*
X78398714Y-46390838D01*
X78398714Y-46390838D02*
X78446333Y-46438457D01*
X79398714Y-47343219D02*
X78827286Y-47343219D01*
X79113000Y-47343219D02*
X79113000Y-46343219D01*
X79113000Y-46343219D02*
X79017762Y-46486076D01*
X79017762Y-46486076D02*
X78922524Y-46581314D01*
X78922524Y-46581314D02*
X78827286Y-46628933D01*
X83521609Y-79455228D02*
X83521609Y-79931419D01*
X83188276Y-78931419D02*
X83521609Y-79455228D01*
X83521609Y-79455228D02*
X83854942Y-78931419D01*
X84712085Y-79931419D02*
X84140657Y-79931419D01*
X84426371Y-79931419D02*
X84426371Y-78931419D01*
X84426371Y-78931419D02*
X84331133Y-79074276D01*
X84331133Y-79074276D02*
X84235895Y-79169514D01*
X84235895Y-79169514D02*
X84140657Y-79217133D01*
X104024133Y-50899219D02*
X103690800Y-50423028D01*
X103452705Y-50899219D02*
X103452705Y-49899219D01*
X103452705Y-49899219D02*
X103833657Y-49899219D01*
X103833657Y-49899219D02*
X103928895Y-49946838D01*
X103928895Y-49946838D02*
X103976514Y-49994457D01*
X103976514Y-49994457D02*
X104024133Y-50089695D01*
X104024133Y-50089695D02*
X104024133Y-50232552D01*
X104024133Y-50232552D02*
X103976514Y-50327790D01*
X103976514Y-50327790D02*
X103928895Y-50375409D01*
X103928895Y-50375409D02*
X103833657Y-50423028D01*
X103833657Y-50423028D02*
X103452705Y-50423028D01*
X104405086Y-49994457D02*
X104452705Y-49946838D01*
X104452705Y-49946838D02*
X104547943Y-49899219D01*
X104547943Y-49899219D02*
X104786038Y-49899219D01*
X104786038Y-49899219D02*
X104881276Y-49946838D01*
X104881276Y-49946838D02*
X104928895Y-49994457D01*
X104928895Y-49994457D02*
X104976514Y-50089695D01*
X104976514Y-50089695D02*
X104976514Y-50184933D01*
X104976514Y-50184933D02*
X104928895Y-50327790D01*
X104928895Y-50327790D02*
X104357467Y-50899219D01*
X104357467Y-50899219D02*
X104976514Y-50899219D01*
X107547580Y-79643266D02*
X107595200Y-79690885D01*
X107595200Y-79690885D02*
X107642819Y-79833742D01*
X107642819Y-79833742D02*
X107642819Y-79928980D01*
X107642819Y-79928980D02*
X107595200Y-80071837D01*
X107595200Y-80071837D02*
X107499961Y-80167075D01*
X107499961Y-80167075D02*
X107404723Y-80214694D01*
X107404723Y-80214694D02*
X107214247Y-80262313D01*
X107214247Y-80262313D02*
X107071390Y-80262313D01*
X107071390Y-80262313D02*
X106880914Y-80214694D01*
X106880914Y-80214694D02*
X106785676Y-80167075D01*
X106785676Y-80167075D02*
X106690438Y-80071837D01*
X106690438Y-80071837D02*
X106642819Y-79928980D01*
X106642819Y-79928980D02*
X106642819Y-79833742D01*
X106642819Y-79833742D02*
X106690438Y-79690885D01*
X106690438Y-79690885D02*
X106738057Y-79643266D01*
X106642819Y-78738504D02*
X106642819Y-79214694D01*
X106642819Y-79214694D02*
X107119009Y-79262313D01*
X107119009Y-79262313D02*
X107071390Y-79214694D01*
X107071390Y-79214694D02*
X107023771Y-79119456D01*
X107023771Y-79119456D02*
X107023771Y-78881361D01*
X107023771Y-78881361D02*
X107071390Y-78786123D01*
X107071390Y-78786123D02*
X107119009Y-78738504D01*
X107119009Y-78738504D02*
X107214247Y-78690885D01*
X107214247Y-78690885D02*
X107452342Y-78690885D01*
X107452342Y-78690885D02*
X107547580Y-78738504D01*
X107547580Y-78738504D02*
X107595200Y-78786123D01*
X107595200Y-78786123D02*
X107642819Y-78881361D01*
X107642819Y-78881361D02*
X107642819Y-79119456D01*
X107642819Y-79119456D02*
X107595200Y-79214694D01*
X107595200Y-79214694D02*
X107547580Y-79262313D01*
X87703819Y-48121866D02*
X87227628Y-48455199D01*
X87703819Y-48693294D02*
X86703819Y-48693294D01*
X86703819Y-48693294D02*
X86703819Y-48312342D01*
X86703819Y-48312342D02*
X86751438Y-48217104D01*
X86751438Y-48217104D02*
X86799057Y-48169485D01*
X86799057Y-48169485D02*
X86894295Y-48121866D01*
X86894295Y-48121866D02*
X87037152Y-48121866D01*
X87037152Y-48121866D02*
X87132390Y-48169485D01*
X87132390Y-48169485D02*
X87180009Y-48217104D01*
X87180009Y-48217104D02*
X87227628Y-48312342D01*
X87227628Y-48312342D02*
X87227628Y-48693294D01*
X87703819Y-47169485D02*
X87703819Y-47740913D01*
X87703819Y-47455199D02*
X86703819Y-47455199D01*
X86703819Y-47455199D02*
X86846676Y-47550437D01*
X86846676Y-47550437D02*
X86941914Y-47645675D01*
X86941914Y-47645675D02*
X86989533Y-47740913D01*
X75866666Y-48077219D02*
X75866666Y-48791504D01*
X75866666Y-48791504D02*
X75819047Y-48934361D01*
X75819047Y-48934361D02*
X75723809Y-49029600D01*
X75723809Y-49029600D02*
X75580952Y-49077219D01*
X75580952Y-49077219D02*
X75485714Y-49077219D01*
X76866666Y-49077219D02*
X76295238Y-49077219D01*
X76580952Y-49077219D02*
X76580952Y-48077219D01*
X76580952Y-48077219D02*
X76485714Y-48220076D01*
X76485714Y-48220076D02*
X76390476Y-48315314D01*
X76390476Y-48315314D02*
X76295238Y-48362933D01*
X108481905Y-78355219D02*
X108481905Y-77355219D01*
X108481905Y-77355219D02*
X108720000Y-77355219D01*
X108720000Y-77355219D02*
X108862857Y-77402838D01*
X108862857Y-77402838D02*
X108958095Y-77498076D01*
X108958095Y-77498076D02*
X109005714Y-77593314D01*
X109005714Y-77593314D02*
X109053333Y-77783790D01*
X109053333Y-77783790D02*
X109053333Y-77926647D01*
X109053333Y-77926647D02*
X109005714Y-78117123D01*
X109005714Y-78117123D02*
X108958095Y-78212361D01*
X108958095Y-78212361D02*
X108862857Y-78307600D01*
X108862857Y-78307600D02*
X108720000Y-78355219D01*
X108720000Y-78355219D02*
X108481905Y-78355219D01*
X109624762Y-77783790D02*
X109529524Y-77736171D01*
X109529524Y-77736171D02*
X109481905Y-77688552D01*
X109481905Y-77688552D02*
X109434286Y-77593314D01*
X109434286Y-77593314D02*
X109434286Y-77545695D01*
X109434286Y-77545695D02*
X109481905Y-77450457D01*
X109481905Y-77450457D02*
X109529524Y-77402838D01*
X109529524Y-77402838D02*
X109624762Y-77355219D01*
X109624762Y-77355219D02*
X109815238Y-77355219D01*
X109815238Y-77355219D02*
X109910476Y-77402838D01*
X109910476Y-77402838D02*
X109958095Y-77450457D01*
X109958095Y-77450457D02*
X110005714Y-77545695D01*
X110005714Y-77545695D02*
X110005714Y-77593314D01*
X110005714Y-77593314D02*
X109958095Y-77688552D01*
X109958095Y-77688552D02*
X109910476Y-77736171D01*
X109910476Y-77736171D02*
X109815238Y-77783790D01*
X109815238Y-77783790D02*
X109624762Y-77783790D01*
X109624762Y-77783790D02*
X109529524Y-77831409D01*
X109529524Y-77831409D02*
X109481905Y-77879028D01*
X109481905Y-77879028D02*
X109434286Y-77974266D01*
X109434286Y-77974266D02*
X109434286Y-78164742D01*
X109434286Y-78164742D02*
X109481905Y-78259980D01*
X109481905Y-78259980D02*
X109529524Y-78307600D01*
X109529524Y-78307600D02*
X109624762Y-78355219D01*
X109624762Y-78355219D02*
X109815238Y-78355219D01*
X109815238Y-78355219D02*
X109910476Y-78307600D01*
X109910476Y-78307600D02*
X109958095Y-78259980D01*
X109958095Y-78259980D02*
X110005714Y-78164742D01*
X110005714Y-78164742D02*
X110005714Y-77974266D01*
X110005714Y-77974266D02*
X109958095Y-77879028D01*
X109958095Y-77879028D02*
X109910476Y-77831409D01*
X109910476Y-77831409D02*
X109815238Y-77783790D01*
X101502380Y-79567066D02*
X101550000Y-79614685D01*
X101550000Y-79614685D02*
X101597619Y-79757542D01*
X101597619Y-79757542D02*
X101597619Y-79852780D01*
X101597619Y-79852780D02*
X101550000Y-79995637D01*
X101550000Y-79995637D02*
X101454761Y-80090875D01*
X101454761Y-80090875D02*
X101359523Y-80138494D01*
X101359523Y-80138494D02*
X101169047Y-80186113D01*
X101169047Y-80186113D02*
X101026190Y-80186113D01*
X101026190Y-80186113D02*
X100835714Y-80138494D01*
X100835714Y-80138494D02*
X100740476Y-80090875D01*
X100740476Y-80090875D02*
X100645238Y-79995637D01*
X100645238Y-79995637D02*
X100597619Y-79852780D01*
X100597619Y-79852780D02*
X100597619Y-79757542D01*
X100597619Y-79757542D02*
X100645238Y-79614685D01*
X100645238Y-79614685D02*
X100692857Y-79567066D01*
X100930952Y-78709923D02*
X101597619Y-78709923D01*
X100550000Y-78948018D02*
X101264285Y-79186113D01*
X101264285Y-79186113D02*
X101264285Y-78567066D01*
X75514295Y-78829819D02*
X75514295Y-79639342D01*
X75514295Y-79639342D02*
X75561914Y-79734580D01*
X75561914Y-79734580D02*
X75609533Y-79782200D01*
X75609533Y-79782200D02*
X75704771Y-79829819D01*
X75704771Y-79829819D02*
X75895247Y-79829819D01*
X75895247Y-79829819D02*
X75990485Y-79782200D01*
X75990485Y-79782200D02*
X76038104Y-79734580D01*
X76038104Y-79734580D02*
X76085723Y-79639342D01*
X76085723Y-79639342D02*
X76085723Y-78829819D01*
X76514295Y-78925057D02*
X76561914Y-78877438D01*
X76561914Y-78877438D02*
X76657152Y-78829819D01*
X76657152Y-78829819D02*
X76895247Y-78829819D01*
X76895247Y-78829819D02*
X76990485Y-78877438D01*
X76990485Y-78877438D02*
X77038104Y-78925057D01*
X77038104Y-78925057D02*
X77085723Y-79020295D01*
X77085723Y-79020295D02*
X77085723Y-79115533D01*
X77085723Y-79115533D02*
X77038104Y-79258390D01*
X77038104Y-79258390D02*
X76466676Y-79829819D01*
X76466676Y-79829819D02*
X77085723Y-79829819D01*
X113461895Y-77204219D02*
X113461895Y-78013742D01*
X113461895Y-78013742D02*
X113509514Y-78108980D01*
X113509514Y-78108980D02*
X113557133Y-78156600D01*
X113557133Y-78156600D02*
X113652371Y-78204219D01*
X113652371Y-78204219D02*
X113842847Y-78204219D01*
X113842847Y-78204219D02*
X113938085Y-78156600D01*
X113938085Y-78156600D02*
X113985704Y-78108980D01*
X113985704Y-78108980D02*
X114033323Y-78013742D01*
X114033323Y-78013742D02*
X114033323Y-77204219D01*
X114938085Y-77537552D02*
X114938085Y-78204219D01*
X114699990Y-77156600D02*
X114461895Y-77870885D01*
X114461895Y-77870885D02*
X115080942Y-77870885D01*
D12*
%TO.C,R9*%
X103790000Y-75590400D02*
X104410000Y-75590400D01*
X103790000Y-75590400D02*
G75*
G02*
X101950000Y-75590400I-920000J0D01*
G01*
X101950000Y-75590400D02*
G75*
G02*
X103790000Y-75590400I920000J0D01*
G01*
%TO.C,D7*%
X106760000Y-73598400D02*
X106760000Y-70978400D01*
X111440000Y-71208400D02*
X111440000Y-70978400D01*
X111440000Y-73598400D02*
X111440000Y-73368400D01*
X111560000Y-71208400D02*
X111560000Y-70978400D01*
X111560000Y-73598400D02*
X111560000Y-73368400D01*
X111680000Y-70978400D02*
X106760000Y-70978400D01*
X111680000Y-73598400D02*
X106760000Y-73598400D01*
X111680000Y-73598400D02*
X111680000Y-70978400D01*
%TO.C,D4*%
X106760000Y-63184400D02*
X106760000Y-60564400D01*
X111440000Y-60794400D02*
X111440000Y-60564400D01*
X111440000Y-63184400D02*
X111440000Y-62954400D01*
X111560000Y-60794400D02*
X111560000Y-60564400D01*
X111560000Y-63184400D02*
X111560000Y-62954400D01*
X111680000Y-60564400D02*
X106760000Y-60564400D01*
X111680000Y-63184400D02*
X106760000Y-63184400D01*
X111680000Y-63184400D02*
X111680000Y-60564400D01*
%TO.C,U1*%
X92600000Y-45812400D02*
X92600000Y-81492400D01*
X92600000Y-81492400D02*
X97900000Y-81492400D01*
X94250000Y-45812400D02*
X92600000Y-45812400D01*
X97900000Y-45812400D02*
X96250000Y-45812400D01*
X97900000Y-81492400D02*
X97900000Y-45812400D01*
X96250000Y-45812400D02*
G75*
G02*
X94250000Y-45812400I-1000000J0D01*
G01*
%TO.C,D1*%
X106760000Y-53278400D02*
X106760000Y-50658400D01*
X111440000Y-50888400D02*
X111440000Y-50658400D01*
X111440000Y-53278400D02*
X111440000Y-53048400D01*
X111560000Y-50888400D02*
X111560000Y-50658400D01*
X111560000Y-53278400D02*
X111560000Y-53048400D01*
X111680000Y-50658400D02*
X106760000Y-50658400D01*
X111680000Y-53278400D02*
X106760000Y-53278400D01*
X111680000Y-53278400D02*
X111680000Y-50658400D01*
%TO.C,C3*%
X81000000Y-45867400D02*
X81000000Y-45852400D01*
X81000000Y-47992400D02*
X81000000Y-47977400D01*
X85540000Y-45852400D02*
X81000000Y-45852400D01*
X85540000Y-45867400D02*
X85540000Y-45852400D01*
X85540000Y-47992400D02*
X81000000Y-47992400D01*
X85540000Y-47992400D02*
X85540000Y-47977400D01*
%TO.C,D6*%
X106760000Y-70296400D02*
X106760000Y-67676400D01*
X111440000Y-67906400D02*
X111440000Y-67676400D01*
X111440000Y-70296400D02*
X111440000Y-70066400D01*
X111560000Y-67906400D02*
X111560000Y-67676400D01*
X111560000Y-70296400D02*
X111560000Y-70066400D01*
X111680000Y-67676400D02*
X106760000Y-67676400D01*
X111680000Y-70296400D02*
X106760000Y-70296400D01*
X111680000Y-70296400D02*
X111680000Y-67676400D01*
%TO.C,D3*%
X106760000Y-59882400D02*
X106760000Y-57262400D01*
X111440000Y-57492400D02*
X111440000Y-57262400D01*
X111440000Y-59882400D02*
X111440000Y-59652400D01*
X111560000Y-57492400D02*
X111560000Y-57262400D01*
X111560000Y-59882400D02*
X111560000Y-59652400D01*
X111680000Y-57262400D02*
X106760000Y-57262400D01*
X111680000Y-59882400D02*
X106760000Y-59882400D01*
X111680000Y-59882400D02*
X111680000Y-57262400D01*
%TO.C,U3*%
X111960000Y-51232400D02*
X111960000Y-52842400D01*
X112310000Y-50752400D02*
X112310000Y-63472400D01*
X117043800Y-55369600D02*
X117043800Y-59052600D01*
X121946000Y-55191800D02*
X117043800Y-55191800D01*
X121946000Y-59230400D02*
X117043800Y-59230400D01*
X122047600Y-55369600D02*
X122047600Y-59052600D01*
X127483200Y-55191800D02*
X122123800Y-55191800D01*
X127483200Y-59230400D02*
X122123800Y-59230400D01*
X127508600Y-55369600D02*
X127508600Y-59052600D01*
X131530000Y-50752400D02*
X112310000Y-50752400D01*
X131530000Y-50752400D02*
X131530000Y-63472400D01*
X131530000Y-63472400D02*
X112310000Y-63472400D01*
X117330000Y-60102400D02*
G75*
G02*
X116385066Y-60102400I-472467J0D01*
G01*
X116385066Y-60102400D02*
G75*
G02*
X117330000Y-60102400I472467J0D01*
G01*
%TO.C,C1*%
X81000000Y-48352400D02*
X81000000Y-48367400D01*
X81000000Y-48352400D02*
X85540000Y-48352400D01*
X81000000Y-50477400D02*
X81000000Y-50492400D01*
X81000000Y-50492400D02*
X85540000Y-50492400D01*
X85540000Y-48352400D02*
X85540000Y-48367400D01*
X85540000Y-50477400D02*
X85540000Y-50492400D01*
%TO.C,Y1*%
X87045000Y-77002400D02*
X80795000Y-77002400D01*
X87045000Y-82052400D02*
X80795000Y-82052400D01*
X80795000Y-82052400D02*
G75*
G02*
X80795000Y-77002400I0J2525000D01*
G01*
X87045000Y-77002400D02*
G75*
G02*
X87045000Y-82052400I0J-2525000D01*
G01*
%TO.C,R2*%
X103790000Y-51998400D02*
X104410000Y-51998400D01*
X103790000Y-51998400D02*
G75*
G02*
X101950000Y-51998400I-920000J0D01*
G01*
X101950000Y-51998400D02*
G75*
G02*
X103790000Y-51998400I920000J0D01*
G01*
%TO.C,D2*%
X106760000Y-56580400D02*
X106760000Y-53960400D01*
X111440000Y-54190400D02*
X111440000Y-53960400D01*
X111440000Y-56580400D02*
X111440000Y-56350400D01*
X111560000Y-54190400D02*
X111560000Y-53960400D01*
X111560000Y-56580400D02*
X111560000Y-56350400D01*
X111680000Y-53960400D02*
X106760000Y-53960400D01*
X111680000Y-56580400D02*
X106760000Y-56580400D01*
X111680000Y-56580400D02*
X111680000Y-53960400D01*
%TO.C,R8*%
X103790000Y-72288400D02*
X104410000Y-72288400D01*
X103790000Y-72288400D02*
G75*
G02*
X101950000Y-72288400I-920000J0D01*
G01*
X101950000Y-72288400D02*
G75*
G02*
X103790000Y-72288400I920000J0D01*
G01*
%TO.C,C5*%
X104490000Y-79922400D02*
X104490000Y-78664400D01*
X106330000Y-79922400D02*
X106330000Y-78664400D01*
%TO.C,R1*%
X88770000Y-48502400D02*
X88770000Y-47882400D01*
X89690000Y-49422400D02*
G75*
G02*
X87850000Y-49422400I-920000J0D01*
G01*
X87850000Y-49422400D02*
G75*
G02*
X89690000Y-49422400I920000J0D01*
G01*
%TO.C,J1*%
X74870000Y-49622400D02*
X76200000Y-49622400D01*
X74870000Y-50952400D02*
X74870000Y-49622400D01*
X74870000Y-52222400D02*
X74870000Y-77682400D01*
X74870000Y-52222400D02*
X77530000Y-52222400D01*
X74870000Y-77682400D02*
X77530000Y-77682400D01*
X77530000Y-52222400D02*
X77530000Y-77682400D01*
%TO.C,R6*%
X103790000Y-65684400D02*
X104410000Y-65684400D01*
X103790000Y-65684400D02*
G75*
G02*
X101950000Y-65684400I-920000J0D01*
G01*
X101950000Y-65684400D02*
G75*
G02*
X103790000Y-65684400I920000J0D01*
G01*
%TO.C,D8*%
X106760000Y-76900400D02*
X106760000Y-74280400D01*
X111440000Y-74510400D02*
X111440000Y-74280400D01*
X111440000Y-76900400D02*
X111440000Y-76670400D01*
X111560000Y-74510400D02*
X111560000Y-74280400D01*
X111560000Y-76900400D02*
X111560000Y-76670400D01*
X111680000Y-74280400D02*
X106760000Y-74280400D01*
X111680000Y-76900400D02*
X106760000Y-76900400D01*
X111680000Y-76900400D02*
X111680000Y-74280400D01*
%TO.C,R4*%
X103790000Y-58572400D02*
X104410000Y-58572400D01*
X103790000Y-58572400D02*
G75*
G02*
X101950000Y-58572400I-920000J0D01*
G01*
X101950000Y-58572400D02*
G75*
G02*
X103790000Y-58572400I920000J0D01*
G01*
%TO.C,R3*%
X103790000Y-55270400D02*
X104410000Y-55270400D01*
X103790000Y-55270400D02*
G75*
G02*
X101950000Y-55270400I-920000J0D01*
G01*
X101950000Y-55270400D02*
G75*
G02*
X103790000Y-55270400I920000J0D01*
G01*
%TO.C,R7*%
X103790000Y-68986400D02*
X104410000Y-68986400D01*
X103790000Y-68986400D02*
G75*
G02*
X101950000Y-68986400I-920000J0D01*
G01*
X101950000Y-68986400D02*
G75*
G02*
X103790000Y-68986400I920000J0D01*
G01*
%TO.C,R5*%
X103790000Y-61874400D02*
X104410000Y-61874400D01*
X103790000Y-61874400D02*
G75*
G02*
X101950000Y-61874400I-920000J0D01*
G01*
X101950000Y-61874400D02*
G75*
G02*
X103790000Y-61874400I920000J0D01*
G01*
%TO.C,C4*%
X101950000Y-79922400D02*
X101950000Y-78664400D01*
X103790000Y-79922400D02*
X103790000Y-78664400D01*
%TO.C,U2*%
X81170000Y-50892400D02*
X81170000Y-76412400D01*
X81170000Y-76412400D02*
X86470000Y-76412400D01*
X82820000Y-50892400D02*
X81170000Y-50892400D01*
X86470000Y-50892400D02*
X84820000Y-50892400D01*
X86470000Y-76412400D02*
X86470000Y-50892400D01*
X84820000Y-50892400D02*
G75*
G02*
X82820000Y-50892400I-1000000J0D01*
G01*
%TO.C,U4*%
X111960000Y-64482400D02*
X111960000Y-66092400D01*
X112310000Y-64002400D02*
X112310000Y-76722400D01*
X117043800Y-68619600D02*
X117043800Y-72302600D01*
X121946000Y-68441800D02*
X117043800Y-68441800D01*
X121946000Y-72480400D02*
X117043800Y-72480400D01*
X122047600Y-68619600D02*
X122047600Y-72302600D01*
X127483200Y-68441800D02*
X122123800Y-68441800D01*
X127483200Y-72480400D02*
X122123800Y-72480400D01*
X127508600Y-68619600D02*
X127508600Y-72302600D01*
X131530000Y-64002400D02*
X112310000Y-64002400D01*
X131530000Y-64002400D02*
X131530000Y-76722400D01*
X131530000Y-76722400D02*
X112310000Y-76722400D01*
X117330000Y-73352400D02*
G75*
G02*
X116385066Y-73352400I-472467J0D01*
G01*
X116385066Y-73352400D02*
G75*
G02*
X117330000Y-73352400I472467J0D01*
G01*
%TO.C,D5*%
X106760000Y-66994400D02*
X106760000Y-64374400D01*
X111440000Y-64604400D02*
X111440000Y-64374400D01*
X111440000Y-66994400D02*
X111440000Y-66764400D01*
X111560000Y-64604400D02*
X111560000Y-64374400D01*
X111560000Y-66994400D02*
X111560000Y-66764400D01*
X111680000Y-64374400D02*
X106760000Y-64374400D01*
X111680000Y-66994400D02*
X106760000Y-66994400D01*
X111680000Y-66994400D02*
X111680000Y-64374400D01*
%TD*%
M02*
