%TF.GenerationSoftware,KiCad,Pcbnew,9.0.0*%
%TF.CreationDate,2025-06-26T09:06:52-07:00*%
%TF.ProjectId,HexDisplay,48657844-6973-4706-9c61-792e6b696361,A*%
%TF.SameCoordinates,Original*%
%TF.FileFunction,Copper,L1,Top*%
%TF.FilePolarity,Positive*%
%FSLAX46Y46*%
G04 Gerber Fmt 4.6, Leading zero omitted, Abs format (unit mm)*
G04 Created by KiCad (PCBNEW 9.0.0) date 2025-06-26 09:06:52*
%MOMM*%
%LPD*%
G01*
G04 APERTURE LIST*
%TA.AperFunction,ComponentPad*%
%ADD10O,1.600000X1.600000*%
%TD*%
%TA.AperFunction,ComponentPad*%
%ADD11C,1.400000*%
%TD*%
%TA.AperFunction,ComponentPad*%
%ADD12O,1.400000X1.400000*%
%TD*%
%TA.AperFunction,ComponentPad*%
%ADD13R,1.800000X1.800000*%
%TD*%
%TA.AperFunction,ComponentPad*%
%ADD14C,1.800000*%
%TD*%
%TA.AperFunction,ComponentPad*%
%ADD15R,1.600000X1.600000*%
%TD*%
%TA.AperFunction,ComponentPad*%
%ADD16C,1.600000*%
%TD*%
%TA.AperFunction,ComponentPad*%
%ADD17C,1.500000*%
%TD*%
%TA.AperFunction,ComponentPad*%
%ADD18R,1.700000X1.700000*%
%TD*%
%TA.AperFunction,ComponentPad*%
%ADD19O,1.700000X1.700000*%
%TD*%
%TA.AperFunction,Conductor*%
%ADD20C,0.200000*%
%TD*%
%TA.AperFunction,Conductor*%
%ADD21C,1.000000*%
%TD*%
%TA.AperFunction,Conductor*%
%ADD22C,0.500000*%
%TD*%
G04 APERTURE END LIST*
D10*
%TO.P,,22,GND*%
%TO.N,GND*%
X105410000Y-48260000D03*
%TD*%
D11*
%TO.P,R9,1*%
%TO.N,/D7*%
X102870000Y-75590400D03*
D12*
%TO.P,R9,2*%
%TO.N,Net-(D8-A)*%
X105410000Y-75590400D03*
%TD*%
D13*
%TO.P,D7,1,K*%
%TO.N,Net-(D1-K)*%
X110490000Y-72288400D03*
D14*
%TO.P,D7,2,A*%
%TO.N,Net-(D7-A)*%
X107950000Y-72288400D03*
%TD*%
D13*
%TO.P,D4,1,K*%
%TO.N,Net-(D1-K)*%
X110490000Y-61874400D03*
D14*
%TO.P,D4,2,A*%
%TO.N,Net-(D4-A)*%
X107950000Y-61874400D03*
%TD*%
D15*
%TO.P,U1,1,~{RESET}/PC6*%
%TO.N,/RES*%
X91440000Y-47142400D03*
D10*
%TO.P,U1,2,PD0*%
%TO.N,Net-(U1-PD0)*%
X91440000Y-49682400D03*
%TO.P,U1,3,PD1*%
%TO.N,Net-(U1-PD1)*%
X91440000Y-52222400D03*
%TO.P,U1,4,PD2*%
%TO.N,Net-(U1-PD2)*%
X91440000Y-54762400D03*
%TO.P,U1,5,PD3*%
%TO.N,Net-(U1-PD3)*%
X91440000Y-57302400D03*
%TO.P,U1,6,PD4*%
%TO.N,Net-(U1-PD4)*%
X91440000Y-59842400D03*
%TO.P,U1,7,VCC*%
%TO.N,+5V*%
X91440000Y-62382400D03*
%TO.P,U1,8,GND*%
%TO.N,GND*%
X91440000Y-64922400D03*
%TO.P,U1,9,XTAL1/PB6*%
%TO.N,Net-(U1-XTAL1{slash}PB6)*%
X91440000Y-67462400D03*
%TO.P,U1,10,XTAL2/PB7*%
%TO.N,Net-(U1-XTAL2{slash}PB7)*%
X91440000Y-70002400D03*
%TO.P,U1,11,PD5*%
%TO.N,Net-(U1-PD5)*%
X91440000Y-72542400D03*
%TO.P,U1,12,PD6*%
%TO.N,Net-(U1-PD6)*%
X91440000Y-75082400D03*
%TO.P,U1,13,PD7*%
%TO.N,Net-(U1-PD7)*%
X91440000Y-77622400D03*
%TO.P,U1,14,PB0*%
%TO.N,/D7*%
X91440000Y-80162400D03*
%TO.P,U1,15,PB1*%
%TO.N,/D6*%
X99060000Y-80162400D03*
%TO.P,U1,16,PB2*%
%TO.N,/D5*%
X99060000Y-77622400D03*
%TO.P,U1,17,PB3*%
%TO.N,/D4*%
X99060000Y-75082400D03*
%TO.P,U1,18,PB4*%
%TO.N,/D3*%
X99060000Y-72542400D03*
%TO.P,U1,19,PB5*%
%TO.N,/D2*%
X99060000Y-70002400D03*
%TO.P,U1,20,AVCC*%
%TO.N,+5V*%
X99060000Y-67462400D03*
%TO.P,U1,21,AREF*%
%TO.N,unconnected-(U1-AREF-Pad21)*%
X99060000Y-64922400D03*
%TO.P,U1,22,GND*%
%TO.N,GND*%
X99060000Y-62382400D03*
%TO.P,U1,23,PC0*%
%TO.N,/D1*%
X99060000Y-59842400D03*
%TO.P,U1,24,PC1*%
%TO.N,/D0*%
X99060000Y-57302400D03*
%TO.P,U1,25,PC2*%
%TO.N,Net-(J1-Pin_10)*%
X99060000Y-54762400D03*
%TO.P,U1,26,PC3*%
%TO.N,Net-(D1-K)*%
X99060000Y-52222400D03*
%TO.P,U1,27,PC4*%
%TO.N,Net-(U1-PC4)*%
X99060000Y-49682400D03*
%TO.P,U1,28,PC5*%
%TO.N,Net-(U1-PC5)*%
X99060000Y-47142400D03*
%TD*%
D13*
%TO.P,D1,1,K*%
%TO.N,Net-(D1-K)*%
X110490000Y-51968400D03*
D14*
%TO.P,D1,2,A*%
%TO.N,Net-(D1-A)*%
X107950000Y-51968400D03*
%TD*%
D16*
%TO.P,C3,1*%
%TO.N,+5V*%
X85770000Y-46922400D03*
%TO.P,C3,2*%
%TO.N,GND*%
X80770000Y-46922400D03*
%TD*%
D13*
%TO.P,D6,1,K*%
%TO.N,Net-(D1-K)*%
X110490000Y-68986400D03*
D14*
%TO.P,D6,2,A*%
%TO.N,Net-(D6-A)*%
X107950000Y-68986400D03*
%TD*%
D13*
%TO.P,D3,1,K*%
%TO.N,Net-(D1-K)*%
X110490000Y-58572400D03*
D14*
%TO.P,D3,2,A*%
%TO.N,Net-(D3-A)*%
X107950000Y-58572400D03*
%TD*%
D15*
%TO.P,U3,1,E*%
%TO.N,Net-(D5-A)*%
X114300000Y-52032400D03*
D16*
%TO.P,U3,2,D*%
%TO.N,Net-(D4-A)*%
X114300000Y-54572400D03*
%TO.P,U3,3,CC*%
%TO.N,Net-(U1-PC4)*%
X114300000Y-57112400D03*
%TO.P,U3,4,C*%
%TO.N,Net-(D3-A)*%
X114300000Y-59652400D03*
%TO.P,U3,5,DP*%
%TO.N,unconnected-(U3-DP-Pad5)*%
X114300000Y-62192400D03*
%TO.P,U3,6,B*%
%TO.N,Net-(D2-A)*%
X129540000Y-62192400D03*
%TO.P,U3,7,A*%
%TO.N,Net-(D1-A)*%
X129540000Y-59652400D03*
%TO.P,U3,8,CC*%
%TO.N,Net-(U1-PC4)*%
X129540000Y-57112400D03*
%TO.P,U3,9,F*%
%TO.N,Net-(D6-A)*%
X129540000Y-54572400D03*
%TO.P,U3,10,G*%
%TO.N,Net-(D7-A)*%
X129540000Y-52032400D03*
%TD*%
%TO.P,C1,1*%
%TO.N,GND*%
X80770000Y-49422400D03*
%TO.P,C1,2*%
%TO.N,+5V*%
X85770000Y-49422400D03*
%TD*%
D17*
%TO.P,Y1,1,1*%
%TO.N,Net-(U1-XTAL2{slash}PB7)*%
X86360000Y-79527400D03*
%TO.P,Y1,2,2*%
%TO.N,Net-(U1-XTAL1{slash}PB6)*%
X81480000Y-79527400D03*
%TD*%
D11*
%TO.P,R2,1*%
%TO.N,/D0*%
X102870000Y-51998400D03*
D12*
%TO.P,R2,2*%
%TO.N,Net-(D1-A)*%
X105410000Y-51998400D03*
%TD*%
D13*
%TO.P,D2,1,K*%
%TO.N,Net-(D1-K)*%
X110490000Y-55270400D03*
D14*
%TO.P,D2,2,A*%
%TO.N,Net-(D2-A)*%
X107950000Y-55270400D03*
%TD*%
D11*
%TO.P,R8,1*%
%TO.N,/D6*%
X102870000Y-72288400D03*
D12*
%TO.P,R8,2*%
%TO.N,Net-(D7-A)*%
X105410000Y-72288400D03*
%TD*%
D16*
%TO.P,C5,1*%
%TO.N,Net-(U1-XTAL1{slash}PB6)*%
X105410000Y-80543400D03*
%TO.P,C5,2*%
%TO.N,GND*%
X105410000Y-78043400D03*
%TD*%
D11*
%TO.P,R1,1*%
%TO.N,/RES*%
X88770000Y-49422400D03*
D12*
%TO.P,R1,2*%
%TO.N,+5V*%
X88770000Y-46882400D03*
%TD*%
D18*
%TO.P,J1,1,Pin_1*%
%TO.N,+5V*%
X76200000Y-50952400D03*
D19*
%TO.P,J1,2,Pin_2*%
%TO.N,Net-(J1-Pin_2)*%
X76200000Y-53492400D03*
%TO.P,J1,3,Pin_3*%
%TO.N,Net-(J1-Pin_3)*%
X76200000Y-56032400D03*
%TO.P,J1,4,Pin_4*%
%TO.N,Net-(J1-Pin_4)*%
X76200000Y-58572400D03*
%TO.P,J1,5,Pin_5*%
%TO.N,Net-(J1-Pin_5)*%
X76200000Y-61112400D03*
%TO.P,J1,6,Pin_6*%
%TO.N,Net-(J1-Pin_6)*%
X76200000Y-63652400D03*
%TO.P,J1,7,Pin_7*%
%TO.N,Net-(J1-Pin_7)*%
X76200000Y-66192400D03*
%TO.P,J1,8,Pin_8*%
%TO.N,Net-(J1-Pin_8)*%
X76200000Y-68732400D03*
%TO.P,J1,9,Pin_9*%
%TO.N,Net-(J1-Pin_9)*%
X76200000Y-71272400D03*
%TO.P,J1,10,Pin_10*%
%TO.N,Net-(J1-Pin_10)*%
X76200000Y-73812400D03*
%TO.P,J1,11,Pin_11*%
%TO.N,GND*%
X76200000Y-76352400D03*
%TD*%
D11*
%TO.P,R6,1*%
%TO.N,/D4*%
X102870000Y-65684400D03*
D12*
%TO.P,R6,2*%
%TO.N,Net-(D5-A)*%
X105410000Y-65684400D03*
%TD*%
D13*
%TO.P,D8,1,K*%
%TO.N,Net-(D1-K)*%
X110490000Y-75590400D03*
D14*
%TO.P,D8,2,A*%
%TO.N,Net-(D8-A)*%
X107950000Y-75590400D03*
%TD*%
D11*
%TO.P,R4,1*%
%TO.N,/D2*%
X102870000Y-58572400D03*
D12*
%TO.P,R4,2*%
%TO.N,Net-(D3-A)*%
X105410000Y-58572400D03*
%TD*%
D11*
%TO.P,R3,1*%
%TO.N,/D1*%
X102870000Y-55270400D03*
D12*
%TO.P,R3,2*%
%TO.N,Net-(D2-A)*%
X105410000Y-55270400D03*
%TD*%
D11*
%TO.P,R7,1*%
%TO.N,/D5*%
X102870000Y-68986400D03*
D12*
%TO.P,R7,2*%
%TO.N,Net-(D6-A)*%
X105410000Y-68986400D03*
%TD*%
D11*
%TO.P,R5,1*%
%TO.N,/D3*%
X102870000Y-61874400D03*
D12*
%TO.P,R5,2*%
%TO.N,Net-(D4-A)*%
X105410000Y-61874400D03*
%TD*%
D16*
%TO.P,C4,1*%
%TO.N,Net-(U1-XTAL2{slash}PB7)*%
X102870000Y-80543400D03*
%TO.P,C4,2*%
%TO.N,GND*%
X102870000Y-78043400D03*
%TD*%
D15*
%TO.P,U2,1,OE*%
%TO.N,GND*%
X80010000Y-52222400D03*
D10*
%TO.P,U2,2,D0*%
%TO.N,Net-(J1-Pin_2)*%
X80010000Y-54762400D03*
%TO.P,U2,3,D1*%
%TO.N,Net-(J1-Pin_3)*%
X80010000Y-57302400D03*
%TO.P,U2,4,D2*%
%TO.N,Net-(J1-Pin_4)*%
X80010000Y-59842400D03*
%TO.P,U2,5,D3*%
%TO.N,Net-(J1-Pin_5)*%
X80010000Y-62382400D03*
%TO.P,U2,6,D4*%
%TO.N,Net-(J1-Pin_6)*%
X80010000Y-64922400D03*
%TO.P,U2,7,D5*%
%TO.N,Net-(J1-Pin_7)*%
X80010000Y-67462400D03*
%TO.P,U2,8,D6*%
%TO.N,Net-(J1-Pin_8)*%
X80010000Y-70002400D03*
%TO.P,U2,9,D7*%
%TO.N,Net-(J1-Pin_9)*%
X80010000Y-72542400D03*
%TO.P,U2,10,GND*%
%TO.N,GND*%
X80010000Y-75082400D03*
%TO.P,U2,11,Cp*%
%TO.N,Net-(J1-Pin_10)*%
X87630000Y-75082400D03*
%TO.P,U2,12,Q7*%
%TO.N,Net-(U1-PD7)*%
X87630000Y-72542400D03*
%TO.P,U2,13,Q6*%
%TO.N,Net-(U1-PD6)*%
X87630000Y-70002400D03*
%TO.P,U2,14,Q5*%
%TO.N,Net-(U1-PD5)*%
X87630000Y-67462400D03*
%TO.P,U2,15,Q4*%
%TO.N,Net-(U1-PD4)*%
X87630000Y-64922400D03*
%TO.P,U2,16,Q3*%
%TO.N,Net-(U1-PD3)*%
X87630000Y-62382400D03*
%TO.P,U2,17,Q2*%
%TO.N,Net-(U1-PD2)*%
X87630000Y-59842400D03*
%TO.P,U2,18,Q1*%
%TO.N,Net-(U1-PD1)*%
X87630000Y-57302400D03*
%TO.P,U2,19,Q0*%
%TO.N,Net-(U1-PD0)*%
X87630000Y-54762400D03*
%TO.P,U2,20,VCC*%
%TO.N,+5V*%
X87630000Y-52222400D03*
%TD*%
D15*
%TO.P,U4,1,E*%
%TO.N,Net-(D5-A)*%
X114300000Y-65282400D03*
D16*
%TO.P,U4,2,D*%
%TO.N,Net-(D4-A)*%
X114300000Y-67822400D03*
%TO.P,U4,3,CC*%
%TO.N,Net-(U1-PC5)*%
X114300000Y-70362400D03*
%TO.P,U4,4,C*%
%TO.N,Net-(D3-A)*%
X114300000Y-72902400D03*
%TO.P,U4,5,DP*%
%TO.N,unconnected-(U4-DP-Pad5)*%
X114300000Y-75442400D03*
%TO.P,U4,6,B*%
%TO.N,Net-(D2-A)*%
X129540000Y-75442400D03*
%TO.P,U4,7,A*%
%TO.N,Net-(D1-A)*%
X129540000Y-72902400D03*
%TO.P,U4,8,CC*%
%TO.N,Net-(U1-PC5)*%
X129540000Y-70362400D03*
%TO.P,U4,9,F*%
%TO.N,Net-(D6-A)*%
X129540000Y-67822400D03*
%TO.P,U4,10,G*%
%TO.N,Net-(D7-A)*%
X129540000Y-65282400D03*
%TD*%
D13*
%TO.P,D5,1,K*%
%TO.N,Net-(D1-K)*%
X110490000Y-65684400D03*
D14*
%TO.P,D5,2,A*%
%TO.N,Net-(D5-A)*%
X107950000Y-65684400D03*
%TD*%
D20*
%TO.N,Net-(U1-PC5)*%
X116987000Y-70362400D02*
X122047000Y-70362400D01*
X116840000Y-56545300D02*
X116987000Y-56692300D01*
X115316000Y-49682400D02*
X116840000Y-51206400D01*
X101600000Y-49682400D02*
X115316000Y-49682400D01*
X116840000Y-51206400D02*
X116840000Y-56545300D01*
X116987000Y-56692300D02*
X116987000Y-70362400D01*
X99060000Y-47142400D02*
X101600000Y-49682400D01*
%TO.N,GND*%
X97028000Y-60350400D02*
X97028000Y-46278800D01*
X99060000Y-62382400D02*
X97028000Y-60350400D01*
D21*
%TO.N,+5V*%
X85770000Y-49422400D02*
X85770000Y-50362400D01*
X89408000Y-60350400D02*
X91440000Y-62382400D01*
X89408000Y-54000400D02*
X89408000Y-60350400D01*
X97790000Y-67462400D02*
X99060000Y-67462400D01*
X87630000Y-52222400D02*
X89408000Y-54000400D01*
X92710000Y-62382400D02*
X97790000Y-67462400D01*
X85770000Y-49422400D02*
X85770000Y-46922400D01*
X85770000Y-50362400D02*
X87630000Y-52222400D01*
X91440000Y-62382400D02*
X92710000Y-62382400D01*
%TO.N,GND*%
X90170000Y-66192400D02*
X89916000Y-66192400D01*
X105410000Y-78043400D02*
X102870000Y-78043400D01*
D22*
X100736400Y-71323200D02*
X100685600Y-71272400D01*
D21*
X82804000Y-66192400D02*
X82804000Y-63652400D01*
X82804000Y-63652400D02*
X86360000Y-63652400D01*
X100736400Y-73914000D02*
X100736400Y-75909800D01*
X80010000Y-75082400D02*
X82804000Y-72288400D01*
D22*
X100634800Y-73812400D02*
X100736400Y-73914000D01*
D21*
X97840800Y-73812400D02*
X97028000Y-72999600D01*
X82804000Y-55016400D02*
X80010000Y-52222400D01*
X100736400Y-75909800D02*
X102870000Y-78043400D01*
D22*
X97840800Y-73812400D02*
X100634800Y-73812400D01*
D21*
X90170000Y-63652400D02*
X91440000Y-64922400D01*
X89916000Y-66192400D02*
X89154000Y-66192400D01*
X100736400Y-71323200D02*
X100736400Y-73914000D01*
X91440000Y-64922400D02*
X90170000Y-66192400D01*
D20*
X80770000Y-49422400D02*
X80770000Y-49680400D01*
D21*
X82804000Y-72288400D02*
X82804000Y-66192400D01*
X89154000Y-63652400D02*
X90170000Y-63652400D01*
X97028000Y-70510400D02*
X91440000Y-64922400D01*
X97028000Y-72999600D02*
X97028000Y-70510400D01*
X80010000Y-50440400D02*
X80010000Y-52222400D01*
D22*
X86360000Y-66192400D02*
X89154000Y-66192400D01*
X89154000Y-63652400D02*
X86360000Y-63652400D01*
D21*
X80770000Y-49680400D02*
X80010000Y-50440400D01*
X82804000Y-66192400D02*
X86360000Y-66192400D01*
X82804000Y-63652400D02*
X82804000Y-55016400D01*
X80770000Y-46922400D02*
X80770000Y-49422400D01*
D22*
X100685600Y-71272400D02*
X97028000Y-71272400D01*
D20*
%TO.N,Net-(U1-XTAL1{slash}PB6)*%
X89154000Y-75692000D02*
X87223600Y-77622400D01*
X95656400Y-71678800D02*
X91440000Y-67462400D01*
X105410000Y-80543400D02*
X104165400Y-79298800D01*
X91440000Y-67462400D02*
X89154000Y-69748400D01*
X100787200Y-78384400D02*
X100787200Y-77520800D01*
X101701600Y-79298800D02*
X100787200Y-78384400D01*
X100787200Y-77520800D02*
X99618800Y-76352400D01*
X89154000Y-69748400D02*
X89154000Y-75692000D01*
X99618800Y-76352400D02*
X97739200Y-76352400D01*
X95707200Y-74320400D02*
X95707200Y-71678800D01*
X95707200Y-71678800D02*
X95656400Y-71678800D01*
X83385000Y-77622400D02*
X81480000Y-79527400D01*
X104165400Y-79298800D02*
X101701600Y-79298800D01*
X97739200Y-76352400D02*
X95707200Y-74320400D01*
X87223600Y-77622400D02*
X83385000Y-77622400D01*
%TO.N,Net-(U1-XTAL2{slash}PB7)*%
X91440000Y-70002400D02*
X94894400Y-73456800D01*
X99974400Y-78892400D02*
X101625400Y-80543400D01*
X89916000Y-71526400D02*
X91440000Y-70002400D01*
X86474300Y-79413100D02*
X86474300Y-79387700D01*
X101625400Y-80543400D02*
X102870000Y-80543400D01*
X86360000Y-79527400D02*
X86474300Y-79413100D01*
X86474300Y-79387700D02*
X89916000Y-75946000D01*
X94894400Y-76098400D02*
X97688400Y-78892400D01*
X97688400Y-78892400D02*
X99974400Y-78892400D01*
X94894400Y-73456800D02*
X94894400Y-76098400D01*
X89916000Y-75946000D02*
X89916000Y-71526400D01*
%TO.N,Net-(D1-K)*%
X110490000Y-68986400D02*
X110490000Y-72288400D01*
X110490000Y-61874400D02*
X110490000Y-65684400D01*
X100965000Y-50317400D02*
X99060000Y-52222400D01*
X110490000Y-72288400D02*
X110490000Y-75590400D01*
X110490000Y-51968400D02*
X108839000Y-50317400D01*
X110490000Y-55270400D02*
X110490000Y-58572400D01*
X110490000Y-51968400D02*
X110490000Y-55270400D01*
X110490000Y-65684400D02*
X110490000Y-68986400D01*
X108839000Y-50317400D02*
X100965000Y-50317400D01*
X110490000Y-58572400D02*
X110490000Y-61874400D01*
%TO.N,Net-(D2-A)*%
X129540000Y-62192400D02*
X128587000Y-62192400D01*
X130683000Y-74299400D02*
X129540000Y-75442400D01*
X128587000Y-62192400D02*
X127635000Y-63144400D01*
X130683000Y-69748400D02*
X130683000Y-74299400D01*
X127635000Y-67843400D02*
X128905000Y-69113400D01*
X128905000Y-69113400D02*
X130048000Y-69113400D01*
X127635000Y-63144400D02*
X127635000Y-67843400D01*
X130048000Y-69113400D02*
X130683000Y-69748400D01*
%TO.N,Net-(D3-A)*%
X112903000Y-60752400D02*
X112903000Y-71802400D01*
X112903000Y-71802400D02*
X114003000Y-72902400D01*
X114003000Y-59652400D02*
X112903000Y-60752400D01*
%TO.N,Net-(D4-A)*%
X116586000Y-65536400D02*
X116586000Y-56858400D01*
X116586000Y-56858400D02*
X114300000Y-54572400D01*
X114300000Y-67822400D02*
X116586000Y-65536400D01*
%TO.N,Net-(D5-A)*%
X115824000Y-56794400D02*
X114935000Y-55905400D01*
X115803000Y-63779400D02*
X115824000Y-63779400D01*
X112903000Y-53429400D02*
X114300000Y-52032400D01*
X112903000Y-55016400D02*
X112903000Y-53429400D01*
X114300000Y-65282400D02*
X115803000Y-63779400D01*
X113792000Y-55905400D02*
X112903000Y-55016400D01*
X115824000Y-63779400D02*
X115824000Y-56794400D01*
X114935000Y-55905400D02*
X113792000Y-55905400D01*
%TO.N,Net-(D6-A)*%
X130048000Y-63779400D02*
X128778000Y-63779400D01*
X130759200Y-63068200D02*
X130048000Y-63779400D01*
X128143000Y-64414400D02*
X128143000Y-66425400D01*
X128778000Y-63779400D02*
X128143000Y-64414400D01*
X128143000Y-66425400D02*
X129540000Y-67822400D01*
X129540000Y-54572400D02*
X130759200Y-55791600D01*
X130759200Y-55791600D02*
X130759200Y-63068200D01*
%TO.N,Net-(D7-A)*%
X131191000Y-63631400D02*
X129540000Y-65282400D01*
X129540000Y-52032400D02*
X131191000Y-53683400D01*
X131191000Y-53683400D02*
X131191000Y-63631400D01*
%TO.N,Net-(U1-PC5)*%
X122047000Y-70362400D02*
X129540000Y-70362400D01*
X114300000Y-70362400D02*
X122047000Y-70362400D01*
%TD*%
%TA.AperFunction,Conductor*%
%TO.N,GND*%
G36*
X79598010Y-46113185D02*
G01*
X79643765Y-46165989D01*
X79653709Y-46235147D01*
X79641456Y-46273794D01*
X79565245Y-46423365D01*
X79502009Y-46617982D01*
X79470000Y-46820082D01*
X79470000Y-47024717D01*
X79502009Y-47226817D01*
X79565244Y-47421431D01*
X79658141Y-47603750D01*
X79658147Y-47603759D01*
X79690523Y-47648321D01*
X79690524Y-47648322D01*
X80370000Y-46968846D01*
X80370000Y-46975061D01*
X80397259Y-47076794D01*
X80449920Y-47168006D01*
X80524394Y-47242480D01*
X80615606Y-47295141D01*
X80717339Y-47322400D01*
X80723553Y-47322400D01*
X80044076Y-48001874D01*
X80088650Y-48034259D01*
X80142927Y-48061915D01*
X80193723Y-48109890D01*
X80210518Y-48177711D01*
X80187981Y-48243846D01*
X80142928Y-48282884D01*
X80088648Y-48310541D01*
X80088645Y-48310543D01*
X80044077Y-48342923D01*
X80044077Y-48342924D01*
X80723554Y-49022400D01*
X80717339Y-49022400D01*
X80615606Y-49049659D01*
X80524394Y-49102320D01*
X80449920Y-49176794D01*
X80397259Y-49268006D01*
X80370000Y-49369739D01*
X80370000Y-49375953D01*
X79690524Y-48696477D01*
X79690523Y-48696477D01*
X79658143Y-48741044D01*
X79565244Y-48923368D01*
X79502009Y-49117982D01*
X79470000Y-49320082D01*
X79470000Y-49524717D01*
X79502009Y-49726817D01*
X79565244Y-49921431D01*
X79658141Y-50103750D01*
X79658147Y-50103759D01*
X79690523Y-50148321D01*
X79690524Y-50148322D01*
X80370000Y-49468846D01*
X80370000Y-49475061D01*
X80397259Y-49576794D01*
X80449920Y-49668006D01*
X80524394Y-49742480D01*
X80615606Y-49795141D01*
X80717339Y-49822400D01*
X80723553Y-49822400D01*
X80044076Y-50501874D01*
X80088650Y-50534259D01*
X80270968Y-50627155D01*
X80435049Y-50680469D01*
X80492724Y-50719907D01*
X80519922Y-50784266D01*
X80508007Y-50853112D01*
X80460763Y-50904588D01*
X80396730Y-50922400D01*
X80260000Y-50922400D01*
X80260000Y-51906714D01*
X80255606Y-51902320D01*
X80164394Y-51849659D01*
X80062661Y-51822400D01*
X79957339Y-51822400D01*
X79855606Y-51849659D01*
X79764394Y-51902320D01*
X79760000Y-51906714D01*
X79760000Y-50922400D01*
X79162155Y-50922400D01*
X79102627Y-50928801D01*
X79102620Y-50928803D01*
X78967913Y-50979045D01*
X78967906Y-50979049D01*
X78852812Y-51065209D01*
X78852809Y-51065212D01*
X78766649Y-51180306D01*
X78766645Y-51180313D01*
X78716403Y-51315020D01*
X78716401Y-51315027D01*
X78710000Y-51374555D01*
X78710000Y-51972400D01*
X79694314Y-51972400D01*
X79689920Y-51976794D01*
X79637259Y-52068006D01*
X79610000Y-52169739D01*
X79610000Y-52275061D01*
X79637259Y-52376794D01*
X79689920Y-52468006D01*
X79694314Y-52472400D01*
X78710000Y-52472400D01*
X78710000Y-53070244D01*
X78716401Y-53129772D01*
X78716403Y-53129779D01*
X78766645Y-53264486D01*
X78766649Y-53264493D01*
X78852809Y-53379587D01*
X78852812Y-53379590D01*
X78967906Y-53465750D01*
X78967913Y-53465754D01*
X79102620Y-53515996D01*
X79140043Y-53520020D01*
X79204595Y-53546758D01*
X79244443Y-53604150D01*
X79246937Y-53673976D01*
X79211285Y-53734065D01*
X79199675Y-53743627D01*
X79162789Y-53770426D01*
X79162782Y-53770432D01*
X79018028Y-53915186D01*
X78897715Y-54080786D01*
X78804781Y-54263176D01*
X78741522Y-54457865D01*
X78726259Y-54554236D01*
X78709500Y-54660048D01*
X78709500Y-54864752D01*
X78711495Y-54877349D01*
X78741522Y-55066934D01*
X78804781Y-55261623D01*
X78897715Y-55444013D01*
X79018028Y-55609613D01*
X79162786Y-55754371D01*
X79291260Y-55847711D01*
X79328390Y-55874687D01*
X79405244Y-55913846D01*
X79421080Y-55921915D01*
X79471876Y-55969890D01*
X79488671Y-56037711D01*
X79466134Y-56103846D01*
X79421080Y-56142885D01*
X79328386Y-56190115D01*
X79162786Y-56310428D01*
X79018028Y-56455186D01*
X78897715Y-56620786D01*
X78804781Y-56803176D01*
X78741522Y-56997865D01*
X78722980Y-57114939D01*
X78709500Y-57200048D01*
X78709500Y-57404752D01*
X78711495Y-57417349D01*
X78741522Y-57606934D01*
X78804781Y-57801623D01*
X78897715Y-57984013D01*
X79018028Y-58149613D01*
X79162786Y-58294371D01*
X79291260Y-58387711D01*
X79328390Y-58414687D01*
X79405244Y-58453846D01*
X79421080Y-58461915D01*
X79471876Y-58509890D01*
X79488671Y-58577711D01*
X79466134Y-58643846D01*
X79421080Y-58682885D01*
X79328386Y-58730115D01*
X79162786Y-58850428D01*
X79018028Y-58995186D01*
X78897715Y-59160786D01*
X78804781Y-59343176D01*
X78741522Y-59537865D01*
X78718227Y-59684947D01*
X78709500Y-59740048D01*
X78709500Y-59944752D01*
X78711495Y-59957349D01*
X78741522Y-60146934D01*
X78804781Y-60341623D01*
X78862151Y-60454215D01*
X78895983Y-60520615D01*
X78897715Y-60524013D01*
X79018028Y-60689613D01*
X79162786Y-60834371D01*
X79291260Y-60927711D01*
X79328390Y-60954687D01*
X79405244Y-60993846D01*
X79421080Y-61001915D01*
X79471876Y-61049890D01*
X79488671Y-61117711D01*
X79466134Y-61183846D01*
X79421080Y-61222885D01*
X79328386Y-61270115D01*
X79162786Y-61390428D01*
X79018028Y-61535186D01*
X78897715Y-61700786D01*
X78804781Y-61883176D01*
X78741522Y-62077865D01*
X78709500Y-62280048D01*
X78709500Y-62484751D01*
X78741522Y-62686934D01*
X78804781Y-62881623D01*
X78897715Y-63064013D01*
X79018028Y-63229613D01*
X79162786Y-63374371D01*
X79317749Y-63486956D01*
X79328390Y-63494687D01*
X79388552Y-63525341D01*
X79421080Y-63541915D01*
X79471876Y-63589890D01*
X79488671Y-63657711D01*
X79466134Y-63723846D01*
X79421080Y-63762885D01*
X79328386Y-63810115D01*
X79162786Y-63930428D01*
X79018028Y-64075186D01*
X78897715Y-64240786D01*
X78804781Y-64423176D01*
X78741522Y-64617865D01*
X78709500Y-64820048D01*
X78709500Y-65024751D01*
X78741522Y-65226934D01*
X78804781Y-65421623D01*
X78841899Y-65494469D01*
X78890533Y-65589919D01*
X78897715Y-65604013D01*
X79018028Y-65769613D01*
X79162786Y-65914371D01*
X79297647Y-66012351D01*
X79328390Y-66034687D01*
X79419840Y-66081283D01*
X79421080Y-66081915D01*
X79471876Y-66129890D01*
X79488671Y-66197711D01*
X79466134Y-66263846D01*
X79421080Y-66302885D01*
X79328386Y-66350115D01*
X79162786Y-66470428D01*
X79018028Y-66615186D01*
X78897715Y-66780786D01*
X78804781Y-66963176D01*
X78741522Y-67157865D01*
X78709500Y-67360048D01*
X78709500Y-67564751D01*
X78741522Y-67766934D01*
X78804781Y-67961623D01*
X78868691Y-68087053D01*
X78889012Y-68126934D01*
X78897715Y-68144013D01*
X79018028Y-68309613D01*
X79162786Y-68454371D01*
X79317749Y-68566956D01*
X79328390Y-68574687D01*
X79419840Y-68621283D01*
X79421080Y-68621915D01*
X79471876Y-68669890D01*
X79488671Y-68737711D01*
X79466134Y-68803846D01*
X79421080Y-68842885D01*
X79328386Y-68890115D01*
X79162786Y-69010428D01*
X79018028Y-69155186D01*
X78897715Y-69320786D01*
X78804781Y-69503176D01*
X78741522Y-69697865D01*
X78711496Y-69887448D01*
X78709500Y-69900048D01*
X78709500Y-70104752D01*
X78713298Y-70128731D01*
X78741522Y-70306934D01*
X78804781Y-70501623D01*
X78897715Y-70684013D01*
X79018028Y-70849613D01*
X79162786Y-70994371D01*
X79295216Y-71090585D01*
X79328390Y-71114687D01*
X79419840Y-71161283D01*
X79421080Y-71161915D01*
X79471876Y-71209890D01*
X79488671Y-71277711D01*
X79466134Y-71343846D01*
X79421080Y-71382885D01*
X79328386Y-71430115D01*
X79162786Y-71550428D01*
X79018028Y-71695186D01*
X78897715Y-71860786D01*
X78804781Y-72043176D01*
X78741522Y-72237865D01*
X78709500Y-72440048D01*
X78709500Y-72644751D01*
X78741522Y-72846934D01*
X78804781Y-73041623D01*
X78836862Y-73104584D01*
X78889012Y-73206934D01*
X78897715Y-73224013D01*
X79018028Y-73389613D01*
X79162786Y-73534371D01*
X79297435Y-73632197D01*
X79328390Y-73654687D01*
X79395533Y-73688898D01*
X79421629Y-73702195D01*
X79472425Y-73750170D01*
X79489220Y-73817991D01*
X79466682Y-73884126D01*
X79421629Y-73923165D01*
X79328650Y-73970540D01*
X79163105Y-74090817D01*
X79163104Y-74090817D01*
X79018417Y-74235504D01*
X79018417Y-74235505D01*
X78898140Y-74401050D01*
X78805244Y-74583370D01*
X78742009Y-74777986D01*
X78733391Y-74832400D01*
X79694314Y-74832400D01*
X79689920Y-74836794D01*
X79637259Y-74928006D01*
X79610000Y-75029739D01*
X79610000Y-75135061D01*
X79637259Y-75236794D01*
X79689920Y-75328006D01*
X79694314Y-75332400D01*
X78733391Y-75332400D01*
X78742009Y-75386813D01*
X78805244Y-75581429D01*
X78898140Y-75763749D01*
X79018417Y-75929294D01*
X79018417Y-75929295D01*
X79163104Y-76073982D01*
X79328650Y-76194259D01*
X79510968Y-76287154D01*
X79705578Y-76350388D01*
X79760000Y-76359007D01*
X79760000Y-75398086D01*
X79764394Y-75402480D01*
X79855606Y-75455141D01*
X79957339Y-75482400D01*
X80062661Y-75482400D01*
X80164394Y-75455141D01*
X80255606Y-75402480D01*
X80260000Y-75398086D01*
X80260000Y-76359006D01*
X80314421Y-76350388D01*
X80509031Y-76287154D01*
X80691349Y-76194259D01*
X80856894Y-76073982D01*
X80856895Y-76073982D01*
X81001582Y-75929295D01*
X81001582Y-75929294D01*
X81121859Y-75763749D01*
X81214755Y-75581429D01*
X81277990Y-75386813D01*
X81286609Y-75332400D01*
X80325686Y-75332400D01*
X80330080Y-75328006D01*
X80382741Y-75236794D01*
X80410000Y-75135061D01*
X80410000Y-75029739D01*
X80382741Y-74928006D01*
X80330080Y-74836794D01*
X80325686Y-74832400D01*
X81286609Y-74832400D01*
X81277990Y-74777986D01*
X81214755Y-74583370D01*
X81121859Y-74401050D01*
X81001582Y-74235505D01*
X81001582Y-74235504D01*
X80856895Y-74090817D01*
X80691349Y-73970540D01*
X80598370Y-73923165D01*
X80547574Y-73875190D01*
X80530779Y-73807369D01*
X80553316Y-73741235D01*
X80598370Y-73702195D01*
X80602472Y-73700105D01*
X80691610Y-73654687D01*
X80722565Y-73632197D01*
X80857213Y-73534371D01*
X80857215Y-73534368D01*
X80857219Y-73534366D01*
X81001966Y-73389619D01*
X81001968Y-73389615D01*
X81001971Y-73389613D01*
X81062375Y-73306472D01*
X81122287Y-73224010D01*
X81215220Y-73041619D01*
X81278477Y-72846934D01*
X81310500Y-72644752D01*
X81310500Y-72440048D01*
X81301446Y-72382886D01*
X81278477Y-72237865D01*
X81219586Y-72056619D01*
X81215220Y-72043181D01*
X81215218Y-72043178D01*
X81215218Y-72043176D01*
X81167336Y-71949203D01*
X81122287Y-71860790D01*
X81098150Y-71827568D01*
X81001971Y-71695186D01*
X80857213Y-71550428D01*
X80691614Y-71430115D01*
X80615268Y-71391215D01*
X80598917Y-71382883D01*
X80548123Y-71334911D01*
X80531328Y-71267090D01*
X80553865Y-71200955D01*
X80598917Y-71161916D01*
X80691610Y-71114687D01*
X80724784Y-71090585D01*
X80857213Y-70994371D01*
X80857215Y-70994368D01*
X80857219Y-70994366D01*
X81001966Y-70849619D01*
X81001968Y-70849615D01*
X81001971Y-70849613D01*
X81071445Y-70753988D01*
X81122287Y-70684010D01*
X81215220Y-70501619D01*
X81278477Y-70306934D01*
X81310500Y-70104752D01*
X81310500Y-69900048D01*
X81301695Y-69844458D01*
X81278477Y-69697865D01*
X81228960Y-69545468D01*
X81215220Y-69503181D01*
X81215218Y-69503178D01*
X81215218Y-69503176D01*
X81152295Y-69379684D01*
X81122287Y-69320790D01*
X81083846Y-69267880D01*
X81001971Y-69155186D01*
X80857213Y-69010428D01*
X80691614Y-68890115D01*
X80615268Y-68851215D01*
X80598917Y-68842883D01*
X80548123Y-68794911D01*
X80531328Y-68727090D01*
X80553865Y-68660955D01*
X80598917Y-68621916D01*
X80691610Y-68574687D01*
X80759224Y-68525563D01*
X80857213Y-68454371D01*
X80857215Y-68454368D01*
X80857219Y-68454366D01*
X81001966Y-68309619D01*
X81001968Y-68309615D01*
X81001971Y-68309613D01*
X81071445Y-68213988D01*
X81122287Y-68144010D01*
X81215220Y-67961619D01*
X81278477Y-67766934D01*
X81310500Y-67564752D01*
X81310500Y-67360048D01*
X81278477Y-67157866D01*
X81278321Y-67157387D01*
X81221431Y-66982296D01*
X81215220Y-66963181D01*
X81215218Y-66963178D01*
X81215218Y-66963176D01*
X81173964Y-66882212D01*
X81122287Y-66780790D01*
X81101837Y-66752643D01*
X81001971Y-66615186D01*
X80857213Y-66470428D01*
X80691614Y-66350115D01*
X80619943Y-66313597D01*
X80598917Y-66302883D01*
X80548123Y-66254911D01*
X80531328Y-66187090D01*
X80553865Y-66120955D01*
X80598917Y-66081916D01*
X80691610Y-66034687D01*
X80786814Y-65965518D01*
X80857213Y-65914371D01*
X80857215Y-65914368D01*
X80857219Y-65914366D01*
X81001966Y-65769619D01*
X81001968Y-65769615D01*
X81001971Y-65769613D01*
X81071445Y-65673988D01*
X81122287Y-65604010D01*
X81215220Y-65421619D01*
X81278477Y-65226934D01*
X81310500Y-65024752D01*
X81310500Y-64820048D01*
X81287830Y-64676916D01*
X81278477Y-64617865D01*
X81222192Y-64444640D01*
X81215220Y-64423181D01*
X81215218Y-64423178D01*
X81215218Y-64423176D01*
X81173144Y-64340602D01*
X81122287Y-64240790D01*
X81071447Y-64170814D01*
X81001971Y-64075186D01*
X80857213Y-63930428D01*
X80691614Y-63810115D01*
X80685006Y-63806748D01*
X80598917Y-63762883D01*
X80548123Y-63714911D01*
X80531328Y-63647090D01*
X80553865Y-63580955D01*
X80598917Y-63541916D01*
X80691610Y-63494687D01*
X80770314Y-63437506D01*
X80857213Y-63374371D01*
X80857215Y-63374368D01*
X80857219Y-63374366D01*
X81001966Y-63229619D01*
X81001968Y-63229615D01*
X81001971Y-63229613D01*
X81071445Y-63133988D01*
X81122287Y-63064010D01*
X81215027Y-62881997D01*
X81215218Y-62881623D01*
X81215218Y-62881622D01*
X81215220Y-62881619D01*
X81278477Y-62686934D01*
X81310500Y-62484752D01*
X81310500Y-62280048D01*
X81288419Y-62140638D01*
X81278477Y-62077865D01*
X81222192Y-61904640D01*
X81215220Y-61883181D01*
X81215218Y-61883178D01*
X81215218Y-61883176D01*
X81146819Y-61748937D01*
X81122287Y-61700790D01*
X81093931Y-61661761D01*
X81001971Y-61535186D01*
X80857213Y-61390428D01*
X80691614Y-61270115D01*
X80685006Y-61266748D01*
X80598917Y-61222883D01*
X80548123Y-61174911D01*
X80531328Y-61107090D01*
X80553865Y-61040955D01*
X80598917Y-61001916D01*
X80691610Y-60954687D01*
X80728740Y-60927711D01*
X80857213Y-60834371D01*
X80857215Y-60834368D01*
X80857219Y-60834366D01*
X81001966Y-60689619D01*
X81001968Y-60689615D01*
X81001971Y-60689613D01*
X81071445Y-60593988D01*
X81122287Y-60524010D01*
X81215220Y-60341619D01*
X81278477Y-60146934D01*
X81310500Y-59944752D01*
X81310500Y-59740048D01*
X81282295Y-59561970D01*
X81278477Y-59537865D01*
X81249127Y-59447537D01*
X81215220Y-59343181D01*
X81215218Y-59343178D01*
X81215218Y-59343176D01*
X81143079Y-59201597D01*
X81122287Y-59160790D01*
X81114556Y-59150149D01*
X81001971Y-58995186D01*
X80857213Y-58850428D01*
X80691614Y-58730115D01*
X80685006Y-58726748D01*
X80598917Y-58682883D01*
X80548123Y-58634911D01*
X80531328Y-58567090D01*
X80553865Y-58500955D01*
X80598917Y-58461916D01*
X80691610Y-58414687D01*
X80787501Y-58345019D01*
X80857213Y-58294371D01*
X80857215Y-58294368D01*
X80857219Y-58294366D01*
X81001966Y-58149619D01*
X81001968Y-58149615D01*
X81001971Y-58149613D01*
X81071445Y-58053988D01*
X81122287Y-57984010D01*
X81215220Y-57801619D01*
X81278477Y-57606934D01*
X81310500Y-57404752D01*
X81310500Y-57200048D01*
X81286402Y-57047900D01*
X81278477Y-56997865D01*
X81216742Y-56807865D01*
X81215220Y-56803181D01*
X81215218Y-56803178D01*
X81215218Y-56803176D01*
X81157848Y-56690583D01*
X81122287Y-56620790D01*
X81114556Y-56610149D01*
X81001971Y-56455186D01*
X80857213Y-56310428D01*
X80691614Y-56190115D01*
X80677175Y-56182758D01*
X80598917Y-56142883D01*
X80548123Y-56094911D01*
X80531328Y-56027090D01*
X80553865Y-55960955D01*
X80598917Y-55921916D01*
X80691610Y-55874687D01*
X80774772Y-55814267D01*
X80857213Y-55754371D01*
X80857215Y-55754368D01*
X80857219Y-55754366D01*
X81001966Y-55609619D01*
X81001968Y-55609615D01*
X81001971Y-55609613D01*
X81071445Y-55513988D01*
X81122287Y-55444010D01*
X81215220Y-55261619D01*
X81278477Y-55066934D01*
X81310500Y-54864752D01*
X81310500Y-54660048D01*
X81283301Y-54488324D01*
X81278477Y-54457865D01*
X81228960Y-54305468D01*
X81215220Y-54263181D01*
X81215218Y-54263178D01*
X81215218Y-54263176D01*
X81161553Y-54157854D01*
X81122287Y-54080790D01*
X81072930Y-54012855D01*
X81001971Y-53915186D01*
X80857217Y-53770432D01*
X80857212Y-53770428D01*
X80820325Y-53743628D01*
X80777659Y-53688298D01*
X80771680Y-53618685D01*
X80804286Y-53556890D01*
X80865124Y-53522533D01*
X80879956Y-53520020D01*
X80917379Y-53515996D01*
X81052086Y-53465754D01*
X81052093Y-53465750D01*
X81167187Y-53379590D01*
X81167190Y-53379587D01*
X81253350Y-53264493D01*
X81253354Y-53264486D01*
X81303596Y-53129779D01*
X81303598Y-53129772D01*
X81309999Y-53070244D01*
X81310000Y-53070227D01*
X81310000Y-52472400D01*
X80325686Y-52472400D01*
X80330080Y-52468006D01*
X80382741Y-52376794D01*
X80410000Y-52275061D01*
X80410000Y-52169739D01*
X80382741Y-52068006D01*
X80330080Y-51976794D01*
X80325686Y-51972400D01*
X81310000Y-51972400D01*
X81310000Y-51374572D01*
X81309999Y-51374555D01*
X81303598Y-51315027D01*
X81303596Y-51315020D01*
X81253354Y-51180313D01*
X81253350Y-51180306D01*
X81167190Y-51065212D01*
X81167187Y-51065209D01*
X81052093Y-50979049D01*
X81052088Y-50979046D01*
X80957508Y-50943770D01*
X80901575Y-50901898D01*
X80877158Y-50836434D01*
X80892010Y-50768161D01*
X80941415Y-50718756D01*
X80981445Y-50705115D01*
X81074417Y-50690390D01*
X81269031Y-50627155D01*
X81451349Y-50534259D01*
X81495921Y-50501874D01*
X80816447Y-49822400D01*
X80822661Y-49822400D01*
X80924394Y-49795141D01*
X81015606Y-49742480D01*
X81090080Y-49668006D01*
X81142741Y-49576794D01*
X81170000Y-49475061D01*
X81170000Y-49468847D01*
X81849474Y-50148321D01*
X81881859Y-50103749D01*
X81974755Y-49921431D01*
X82037990Y-49726817D01*
X82070000Y-49524717D01*
X82070000Y-49320082D01*
X82037990Y-49117982D01*
X81974755Y-48923368D01*
X81881859Y-48741050D01*
X81849474Y-48696477D01*
X81849474Y-48696476D01*
X81170000Y-49375951D01*
X81170000Y-49369739D01*
X81142741Y-49268006D01*
X81090080Y-49176794D01*
X81015606Y-49102320D01*
X80924394Y-49049659D01*
X80822661Y-49022400D01*
X80816446Y-49022400D01*
X81495922Y-48342924D01*
X81495921Y-48342923D01*
X81451359Y-48310547D01*
X81451350Y-48310541D01*
X81397072Y-48282885D01*
X81346276Y-48234910D01*
X81329481Y-48167089D01*
X81352018Y-48100954D01*
X81397073Y-48061915D01*
X81451346Y-48034261D01*
X81451347Y-48034261D01*
X81495921Y-48001874D01*
X80816447Y-47322400D01*
X80822661Y-47322400D01*
X80924394Y-47295141D01*
X81015606Y-47242480D01*
X81090080Y-47168006D01*
X81142741Y-47076794D01*
X81170000Y-46975061D01*
X81170000Y-46968847D01*
X81849474Y-47648321D01*
X81881859Y-47603749D01*
X81974755Y-47421431D01*
X82037990Y-47226817D01*
X82070000Y-47024717D01*
X82070000Y-46820082D01*
X82037990Y-46617982D01*
X81974754Y-46423365D01*
X81898544Y-46273794D01*
X81885648Y-46205125D01*
X81911925Y-46140385D01*
X81969031Y-46100128D01*
X82009029Y-46093500D01*
X84530411Y-46093500D01*
X84597450Y-46113185D01*
X84643205Y-46165989D01*
X84653149Y-46235147D01*
X84640896Y-46273795D01*
X84564781Y-46423176D01*
X84501522Y-46617865D01*
X84469500Y-46820048D01*
X84469500Y-47024751D01*
X84501522Y-47226934D01*
X84564781Y-47421623D01*
X84621792Y-47533511D01*
X84657713Y-47604010D01*
X84745819Y-47725277D01*
X84769298Y-47791081D01*
X84769500Y-47798161D01*
X84769500Y-48546637D01*
X84749815Y-48613676D01*
X84745818Y-48619522D01*
X84657715Y-48740786D01*
X84564781Y-48923176D01*
X84501522Y-49117865D01*
X84469500Y-49320048D01*
X84469500Y-49524751D01*
X84501522Y-49726934D01*
X84564781Y-49921623D01*
X84632501Y-50054529D01*
X84657713Y-50104010D01*
X84745819Y-50225277D01*
X84769298Y-50291081D01*
X84769500Y-50298161D01*
X84769500Y-50460943D01*
X84806474Y-50646823D01*
X84807948Y-50654233D01*
X84883364Y-50836307D01*
X84883371Y-50836320D01*
X84992860Y-51000181D01*
X84992863Y-51000185D01*
X85136537Y-51143859D01*
X85136559Y-51143879D01*
X86303281Y-52310601D01*
X86336766Y-52371924D01*
X86338073Y-52378883D01*
X86361523Y-52526935D01*
X86424781Y-52721623D01*
X86456862Y-52784584D01*
X86505865Y-52880758D01*
X86517715Y-52904013D01*
X86638028Y-53069613D01*
X86782786Y-53214371D01*
X86917435Y-53312197D01*
X86948390Y-53334687D01*
X87015533Y-53368898D01*
X87041080Y-53381915D01*
X87091876Y-53429890D01*
X87108671Y-53497711D01*
X87086134Y-53563846D01*
X87041080Y-53602885D01*
X86948386Y-53650115D01*
X86782786Y-53770428D01*
X86638028Y-53915186D01*
X86517715Y-54080786D01*
X86424781Y-54263176D01*
X86361522Y-54457865D01*
X86346259Y-54554236D01*
X86329500Y-54660048D01*
X86329500Y-54864752D01*
X86331495Y-54877349D01*
X86361522Y-55066934D01*
X86424781Y-55261623D01*
X86517715Y-55444013D01*
X86638028Y-55609613D01*
X86782786Y-55754371D01*
X86911260Y-55847711D01*
X86948390Y-55874687D01*
X87025244Y-55913846D01*
X87041080Y-55921915D01*
X87091876Y-55969890D01*
X87108671Y-56037711D01*
X87086134Y-56103846D01*
X87041080Y-56142885D01*
X86948386Y-56190115D01*
X86782786Y-56310428D01*
X86638028Y-56455186D01*
X86517715Y-56620786D01*
X86424781Y-56803176D01*
X86361522Y-56997865D01*
X86342980Y-57114939D01*
X86329500Y-57200048D01*
X86329500Y-57404752D01*
X86331495Y-57417349D01*
X86361522Y-57606934D01*
X86424781Y-57801623D01*
X86517715Y-57984013D01*
X86638028Y-58149613D01*
X86782786Y-58294371D01*
X86911260Y-58387711D01*
X86948390Y-58414687D01*
X87025244Y-58453846D01*
X87041080Y-58461915D01*
X87091876Y-58509890D01*
X87108671Y-58577711D01*
X87086134Y-58643846D01*
X87041080Y-58682885D01*
X86948386Y-58730115D01*
X86782786Y-58850428D01*
X86638028Y-58995186D01*
X86517715Y-59160786D01*
X86424781Y-59343176D01*
X86361522Y-59537865D01*
X86338227Y-59684947D01*
X86329500Y-59740048D01*
X86329500Y-59944752D01*
X86331495Y-59957349D01*
X86361522Y-60146934D01*
X86424781Y-60341623D01*
X86482151Y-60454215D01*
X86515983Y-60520615D01*
X86517715Y-60524013D01*
X86638028Y-60689613D01*
X86782786Y-60834371D01*
X86911260Y-60927711D01*
X86948390Y-60954687D01*
X87025244Y-60993846D01*
X87041080Y-61001915D01*
X87091876Y-61049890D01*
X87108671Y-61117711D01*
X87086134Y-61183846D01*
X87041080Y-61222885D01*
X86948386Y-61270115D01*
X86782786Y-61390428D01*
X86638028Y-61535186D01*
X86517715Y-61700786D01*
X86424781Y-61883176D01*
X86361522Y-62077865D01*
X86329500Y-62280048D01*
X86329500Y-62484751D01*
X86361522Y-62686934D01*
X86424781Y-62881623D01*
X86517715Y-63064013D01*
X86638028Y-63229613D01*
X86782786Y-63374371D01*
X86937749Y-63486956D01*
X86948390Y-63494687D01*
X87008552Y-63525341D01*
X87041080Y-63541915D01*
X87091876Y-63589890D01*
X87108671Y-63657711D01*
X87086134Y-63723846D01*
X87041080Y-63762885D01*
X86948386Y-63810115D01*
X86782786Y-63930428D01*
X86638028Y-64075186D01*
X86517715Y-64240786D01*
X86424781Y-64423176D01*
X86361522Y-64617865D01*
X86329500Y-64820048D01*
X86329500Y-65024751D01*
X86361522Y-65226934D01*
X86424781Y-65421623D01*
X86461899Y-65494469D01*
X86510533Y-65589919D01*
X86517715Y-65604013D01*
X86638028Y-65769613D01*
X86782786Y-65914371D01*
X86917647Y-66012351D01*
X86948390Y-66034687D01*
X87039840Y-66081283D01*
X87041080Y-66081915D01*
X87091876Y-66129890D01*
X87108671Y-66197711D01*
X87086134Y-66263846D01*
X87041080Y-66302885D01*
X86948386Y-66350115D01*
X86782786Y-66470428D01*
X86638028Y-66615186D01*
X86517715Y-66780786D01*
X86424781Y-66963176D01*
X86361522Y-67157865D01*
X86329500Y-67360048D01*
X86329500Y-67564751D01*
X86361522Y-67766934D01*
X86424781Y-67961623D01*
X86488691Y-68087053D01*
X86509012Y-68126934D01*
X86517715Y-68144013D01*
X86638028Y-68309613D01*
X86782786Y-68454371D01*
X86937749Y-68566956D01*
X86948390Y-68574687D01*
X87039840Y-68621283D01*
X87041080Y-68621915D01*
X87091876Y-68669890D01*
X87108671Y-68737711D01*
X87086134Y-68803846D01*
X87041080Y-68842885D01*
X86948386Y-68890115D01*
X86782786Y-69010428D01*
X86638028Y-69155186D01*
X86517715Y-69320786D01*
X86424781Y-69503176D01*
X86361522Y-69697865D01*
X86331496Y-69887448D01*
X86329500Y-69900048D01*
X86329500Y-70104752D01*
X86333298Y-70128731D01*
X86361522Y-70306934D01*
X86424781Y-70501623D01*
X86517715Y-70684013D01*
X86638028Y-70849613D01*
X86782786Y-70994371D01*
X86915216Y-71090585D01*
X86948390Y-71114687D01*
X87039840Y-71161283D01*
X87041080Y-71161915D01*
X87091876Y-71209890D01*
X87108671Y-71277711D01*
X87086134Y-71343846D01*
X87041080Y-71382885D01*
X86948386Y-71430115D01*
X86782786Y-71550428D01*
X86638028Y-71695186D01*
X86517715Y-71860786D01*
X86424781Y-72043176D01*
X86361522Y-72237865D01*
X86329500Y-72440048D01*
X86329500Y-72644751D01*
X86361522Y-72846934D01*
X86424781Y-73041623D01*
X86456862Y-73104584D01*
X86509012Y-73206934D01*
X86517715Y-73224013D01*
X86638028Y-73389613D01*
X86782786Y-73534371D01*
X86917435Y-73632197D01*
X86948390Y-73654687D01*
X87015533Y-73688898D01*
X87041080Y-73701915D01*
X87091876Y-73749890D01*
X87108671Y-73817711D01*
X87086134Y-73883846D01*
X87041080Y-73922885D01*
X86948386Y-73970115D01*
X86782786Y-74090428D01*
X86638028Y-74235186D01*
X86517715Y-74400786D01*
X86424781Y-74583176D01*
X86361522Y-74777865D01*
X86329500Y-74980048D01*
X86329500Y-75184751D01*
X86361522Y-75386934D01*
X86424781Y-75581623D01*
X86463348Y-75657313D01*
X86509012Y-75746934D01*
X86517715Y-75764013D01*
X86638028Y-75929613D01*
X86782786Y-76074371D01*
X86924675Y-76177457D01*
X86948390Y-76194687D01*
X87041080Y-76241915D01*
X87130776Y-76287618D01*
X87130778Y-76287618D01*
X87130781Y-76287620D01*
X87325466Y-76350877D01*
X87361711Y-76356617D01*
X87424843Y-76386545D01*
X87461775Y-76445856D01*
X87460779Y-76515718D01*
X87429993Y-76566771D01*
X87011184Y-76985581D01*
X86949861Y-77019066D01*
X86923503Y-77021900D01*
X83471669Y-77021900D01*
X83471653Y-77021899D01*
X83464057Y-77021899D01*
X83305943Y-77021899D01*
X83198587Y-77050665D01*
X83153210Y-77062824D01*
X83153209Y-77062825D01*
X83103096Y-77091759D01*
X83103095Y-77091760D01*
X83063251Y-77114764D01*
X83016285Y-77141879D01*
X83016282Y-77141881D01*
X82904478Y-77253686D01*
X81884532Y-78273631D01*
X81823209Y-78307116D01*
X81777453Y-78308423D01*
X81578422Y-78276900D01*
X81578417Y-78276900D01*
X81381583Y-78276900D01*
X81381578Y-78276900D01*
X81187173Y-78307690D01*
X80999970Y-78368517D01*
X80824594Y-78457876D01*
X80733741Y-78523885D01*
X80665354Y-78573572D01*
X80665352Y-78573574D01*
X80665351Y-78573574D01*
X80526174Y-78712751D01*
X80526174Y-78712752D01*
X80526172Y-78712754D01*
X80485073Y-78769322D01*
X80410476Y-78871994D01*
X80321117Y-79047370D01*
X80260290Y-79234573D01*
X80229500Y-79428977D01*
X80229500Y-79625822D01*
X80260290Y-79820226D01*
X80321117Y-80007429D01*
X80394927Y-80152288D01*
X80410476Y-80182805D01*
X80526172Y-80342046D01*
X80665354Y-80481228D01*
X80824595Y-80596924D01*
X80907455Y-80639143D01*
X80999970Y-80686282D01*
X80999972Y-80686282D01*
X80999975Y-80686284D01*
X81100317Y-80718887D01*
X81187173Y-80747109D01*
X81381578Y-80777900D01*
X81381583Y-80777900D01*
X81578422Y-80777900D01*
X81772826Y-80747109D01*
X81960025Y-80686284D01*
X82135405Y-80596924D01*
X82294646Y-80481228D01*
X82433828Y-80342046D01*
X82549524Y-80182805D01*
X82638884Y-80007425D01*
X82699709Y-79820226D01*
X82719356Y-79696181D01*
X82730500Y-79625822D01*
X82730500Y-79428978D01*
X82716118Y-79338180D01*
X82699709Y-79234574D01*
X82699707Y-79234568D01*
X82698975Y-79229946D01*
X82707929Y-79160652D01*
X82733764Y-79122869D01*
X83597416Y-78259219D01*
X83658739Y-78225734D01*
X83685097Y-78222900D01*
X85649264Y-78222900D01*
X85716303Y-78242585D01*
X85762058Y-78295389D01*
X85772002Y-78364547D01*
X85742977Y-78428103D01*
X85708564Y-78455032D01*
X85708747Y-78455331D01*
X85706146Y-78456924D01*
X85705558Y-78457385D01*
X85704596Y-78457874D01*
X85593195Y-78538813D01*
X85545354Y-78573572D01*
X85545352Y-78573574D01*
X85545351Y-78573574D01*
X85406174Y-78712751D01*
X85406174Y-78712752D01*
X85406172Y-78712754D01*
X85365073Y-78769322D01*
X85290476Y-78871994D01*
X85201117Y-79047370D01*
X85140290Y-79234573D01*
X85109500Y-79428977D01*
X85109500Y-79625822D01*
X85140290Y-79820226D01*
X85201117Y-80007429D01*
X85274927Y-80152288D01*
X85290476Y-80182805D01*
X85406172Y-80342046D01*
X85545354Y-80481228D01*
X85704595Y-80596924D01*
X85787455Y-80639143D01*
X85879970Y-80686282D01*
X85879972Y-80686282D01*
X85879975Y-80686284D01*
X85980317Y-80718887D01*
X86067173Y-80747109D01*
X86261578Y-80777900D01*
X86261583Y-80777900D01*
X86458422Y-80777900D01*
X86652826Y-80747109D01*
X86840025Y-80686284D01*
X87015405Y-80596924D01*
X87174646Y-80481228D01*
X87313828Y-80342046D01*
X87429524Y-80182805D01*
X87518884Y-80007425D01*
X87579709Y-79820226D01*
X87599356Y-79696181D01*
X87610500Y-79625822D01*
X87610500Y-79428977D01*
X87579710Y-79234579D01*
X87579709Y-79234577D01*
X87579709Y-79234574D01*
X87577918Y-79229064D01*
X87575922Y-79159227D01*
X87608166Y-79103067D01*
X90274506Y-76436728D01*
X90274511Y-76436724D01*
X90284714Y-76426520D01*
X90284716Y-76426520D01*
X90396520Y-76314716D01*
X90451435Y-76219599D01*
X90475577Y-76177785D01*
X90476401Y-76174708D01*
X90481637Y-76165302D01*
X90501649Y-76145610D01*
X90519266Y-76123750D01*
X90526217Y-76121436D01*
X90531440Y-76116298D01*
X90558923Y-76110551D01*
X90585561Y-76101686D01*
X90592658Y-76103497D01*
X90599831Y-76101998D01*
X90626057Y-76112022D01*
X90653260Y-76118966D01*
X90662870Y-76125289D01*
X90734675Y-76177457D01*
X90758390Y-76194687D01*
X90849840Y-76241283D01*
X90851080Y-76241915D01*
X90901876Y-76289890D01*
X90918671Y-76357711D01*
X90896134Y-76423846D01*
X90851080Y-76462885D01*
X90758386Y-76510115D01*
X90592786Y-76630428D01*
X90448028Y-76775186D01*
X90327715Y-76940786D01*
X90234781Y-77123176D01*
X90171522Y-77317865D01*
X90151902Y-77441743D01*
X90139500Y-77520048D01*
X90139500Y-77724752D01*
X90141733Y-77738848D01*
X90171522Y-77926934D01*
X90234781Y-78121623D01*
X90273593Y-78197794D01*
X90323320Y-78295389D01*
X90327715Y-78304013D01*
X90448028Y-78469613D01*
X90592786Y-78614371D01*
X90744711Y-78724749D01*
X90758390Y-78734687D01*
X90826363Y-78769321D01*
X90851080Y-78781915D01*
X90901876Y-78829890D01*
X90918671Y-78897711D01*
X90896134Y-78963846D01*
X90851080Y-79002885D01*
X90758386Y-79050115D01*
X90592786Y-79170428D01*
X90448028Y-79315186D01*
X90327715Y-79480786D01*
X90234781Y-79663176D01*
X90171522Y-79857865D01*
X90139500Y-80060048D01*
X90139500Y-80264751D01*
X90171522Y-80466934D01*
X90234781Y-80661623D01*
X90327715Y-80844013D01*
X90448028Y-81009613D01*
X90448034Y-81009619D01*
X90592781Y-81154366D01*
X90611796Y-81168181D01*
X90654462Y-81223511D01*
X90660441Y-81293124D01*
X90627836Y-81354920D01*
X90566997Y-81389277D01*
X90538911Y-81392500D01*
X75021100Y-81392500D01*
X74954061Y-81372815D01*
X74908306Y-81320011D01*
X74897100Y-81268500D01*
X74897100Y-77237502D01*
X74916785Y-77170463D01*
X74969589Y-77124708D01*
X75038747Y-77114764D01*
X75102303Y-77143789D01*
X75121418Y-77164617D01*
X75170272Y-77231859D01*
X75170276Y-77231864D01*
X75320535Y-77382123D01*
X75320540Y-77382127D01*
X75492442Y-77507020D01*
X75681782Y-77603495D01*
X75883871Y-77669157D01*
X75950000Y-77679631D01*
X75950000Y-76785412D01*
X76007007Y-76818325D01*
X76134174Y-76852400D01*
X76265826Y-76852400D01*
X76392993Y-76818325D01*
X76450000Y-76785412D01*
X76450000Y-77679630D01*
X76516126Y-77669157D01*
X76516129Y-77669157D01*
X76718217Y-77603495D01*
X76907557Y-77507020D01*
X77079459Y-77382127D01*
X77079464Y-77382123D01*
X77229723Y-77231864D01*
X77229727Y-77231859D01*
X77354620Y-77059957D01*
X77451095Y-76870617D01*
X77516757Y-76668529D01*
X77516757Y-76668526D01*
X77527231Y-76602400D01*
X76633012Y-76602400D01*
X76665925Y-76545393D01*
X76700000Y-76418226D01*
X76700000Y-76286574D01*
X76665925Y-76159407D01*
X76633012Y-76102400D01*
X77527231Y-76102400D01*
X77516757Y-76036273D01*
X77516757Y-76036270D01*
X77451095Y-75834182D01*
X77354620Y-75644842D01*
X77229727Y-75472940D01*
X77229723Y-75472935D01*
X77079464Y-75322676D01*
X77079459Y-75322672D01*
X76907555Y-75197777D01*
X76898500Y-75193163D01*
X76847706Y-75145188D01*
X76830912Y-75077366D01*
X76853451Y-75011232D01*
X76898508Y-74972193D01*
X76907816Y-74967451D01*
X76987007Y-74909915D01*
X77079786Y-74842509D01*
X77079788Y-74842506D01*
X77079792Y-74842504D01*
X77230104Y-74692192D01*
X77230106Y-74692188D01*
X77230109Y-74692186D01*
X77353640Y-74522158D01*
X77355051Y-74520216D01*
X77451557Y-74330812D01*
X77517246Y-74128643D01*
X77550500Y-73918687D01*
X77550500Y-73706113D01*
X77517246Y-73496157D01*
X77451557Y-73293988D01*
X77355051Y-73104584D01*
X77355049Y-73104581D01*
X77355048Y-73104579D01*
X77230109Y-72932613D01*
X77079786Y-72782290D01*
X76907820Y-72657351D01*
X76907115Y-72656991D01*
X76899054Y-72652885D01*
X76848259Y-72604912D01*
X76831463Y-72537092D01*
X76853999Y-72470956D01*
X76899054Y-72431915D01*
X76907816Y-72427451D01*
X76995403Y-72363816D01*
X77079786Y-72302509D01*
X77079788Y-72302506D01*
X77079792Y-72302504D01*
X77230104Y-72152192D01*
X77230106Y-72152188D01*
X77230109Y-72152186D01*
X77355048Y-71980220D01*
X77355047Y-71980220D01*
X77355051Y-71980216D01*
X77451557Y-71790812D01*
X77517246Y-71588643D01*
X77550500Y-71378687D01*
X77550500Y-71166113D01*
X77517246Y-70956157D01*
X77451557Y-70753988D01*
X77355051Y-70564584D01*
X77355049Y-70564581D01*
X77355048Y-70564579D01*
X77230109Y-70392613D01*
X77079786Y-70242290D01*
X76907820Y-70117351D01*
X76907115Y-70116991D01*
X76899054Y-70112885D01*
X76848259Y-70064912D01*
X76831463Y-69997092D01*
X76853999Y-69930956D01*
X76899054Y-69891915D01*
X76907816Y-69887451D01*
X76966991Y-69844458D01*
X77079786Y-69762509D01*
X77079788Y-69762506D01*
X77079792Y-69762504D01*
X77230104Y-69612192D01*
X77230106Y-69612188D01*
X77230109Y-69612186D01*
X77355048Y-69440220D01*
X77355047Y-69440220D01*
X77355051Y-69440216D01*
X77451557Y-69250812D01*
X77517246Y-69048643D01*
X77550500Y-68838687D01*
X77550500Y-68626113D01*
X77517246Y-68416157D01*
X77451557Y-68213988D01*
X77355051Y-68024584D01*
X77355049Y-68024581D01*
X77355048Y-68024579D01*
X77230109Y-67852613D01*
X77079786Y-67702290D01*
X76907820Y-67577351D01*
X76902605Y-67574694D01*
X76899054Y-67572885D01*
X76848259Y-67524912D01*
X76831463Y-67457092D01*
X76853999Y-67390956D01*
X76899054Y-67351915D01*
X76907816Y-67347451D01*
X76941228Y-67323176D01*
X77079786Y-67222509D01*
X77079788Y-67222506D01*
X77079792Y-67222504D01*
X77230104Y-67072192D01*
X77230106Y-67072188D01*
X77230109Y-67072186D01*
X77355048Y-66900220D01*
X77355047Y-66900220D01*
X77355051Y-66900216D01*
X77451557Y-66710812D01*
X77517246Y-66508643D01*
X77550500Y-66298687D01*
X77550500Y-66086113D01*
X77517246Y-65876157D01*
X77451557Y-65673988D01*
X77355051Y-65484584D01*
X77355049Y-65484581D01*
X77355048Y-65484579D01*
X77230109Y-65312613D01*
X77079786Y-65162290D01*
X76907820Y-65037351D01*
X76907115Y-65036991D01*
X76899054Y-65032885D01*
X76848259Y-64984912D01*
X76831463Y-64917092D01*
X76853999Y-64850956D01*
X76899054Y-64811915D01*
X76907816Y-64807451D01*
X76964799Y-64766051D01*
X77079786Y-64682509D01*
X77079788Y-64682506D01*
X77079792Y-64682504D01*
X77230104Y-64532192D01*
X77230106Y-64532188D01*
X77230109Y-64532186D01*
X77355048Y-64360220D01*
X77355047Y-64360220D01*
X77355051Y-64360216D01*
X77451557Y-64170812D01*
X77517246Y-63968643D01*
X77550500Y-63758687D01*
X77550500Y-63546113D01*
X77517246Y-63336157D01*
X77451557Y-63133988D01*
X77355051Y-62944584D01*
X77355049Y-62944581D01*
X77355048Y-62944579D01*
X77230109Y-62772613D01*
X77079786Y-62622290D01*
X76907820Y-62497351D01*
X76907115Y-62496991D01*
X76899054Y-62492885D01*
X76848259Y-62444912D01*
X76831463Y-62377092D01*
X76853999Y-62310956D01*
X76899054Y-62271915D01*
X76907816Y-62267451D01*
X76997419Y-62202351D01*
X77079786Y-62142509D01*
X77079788Y-62142506D01*
X77079792Y-62142504D01*
X77230104Y-61992192D01*
X77230106Y-61992188D01*
X77230109Y-61992186D01*
X77355048Y-61820220D01*
X77355047Y-61820220D01*
X77355051Y-61820216D01*
X77451557Y-61630812D01*
X77517246Y-61428643D01*
X77550500Y-61218687D01*
X77550500Y-61006113D01*
X77517246Y-60796157D01*
X77451557Y-60593988D01*
X77355051Y-60404584D01*
X77355049Y-60404581D01*
X77355048Y-60404579D01*
X77230109Y-60232613D01*
X77079786Y-60082290D01*
X76907820Y-59957351D01*
X76907002Y-59956934D01*
X76899054Y-59952885D01*
X76848259Y-59904912D01*
X76831463Y-59837092D01*
X76853999Y-59770956D01*
X76899054Y-59731915D01*
X76907816Y-59727451D01*
X76966321Y-59684945D01*
X77079786Y-59602509D01*
X77079788Y-59602506D01*
X77079792Y-59602504D01*
X77230104Y-59452192D01*
X77230106Y-59452188D01*
X77230109Y-59452186D01*
X77355048Y-59280220D01*
X77355047Y-59280220D01*
X77355051Y-59280216D01*
X77451557Y-59090812D01*
X77517246Y-58888643D01*
X77550500Y-58678687D01*
X77550500Y-58466113D01*
X77517246Y-58256157D01*
X77451557Y-58053988D01*
X77355051Y-57864584D01*
X77355049Y-57864581D01*
X77355048Y-57864579D01*
X77230109Y-57692613D01*
X77079786Y-57542290D01*
X76907820Y-57417351D01*
X76907002Y-57416934D01*
X76899054Y-57412885D01*
X76848259Y-57364912D01*
X76831463Y-57297092D01*
X76853999Y-57230956D01*
X76899054Y-57191915D01*
X76907816Y-57187451D01*
X77028994Y-57099411D01*
X77079786Y-57062509D01*
X77079788Y-57062506D01*
X77079792Y-57062504D01*
X77230104Y-56912192D01*
X77230106Y-56912188D01*
X77230109Y-56912186D01*
X77355048Y-56740220D01*
X77355047Y-56740220D01*
X77355051Y-56740216D01*
X77451557Y-56550812D01*
X77517246Y-56348643D01*
X77550500Y-56138687D01*
X77550500Y-55926113D01*
X77517246Y-55716157D01*
X77451557Y-55513988D01*
X77355051Y-55324584D01*
X77355049Y-55324581D01*
X77355048Y-55324579D01*
X77230109Y-55152613D01*
X77079786Y-55002290D01*
X76907820Y-54877351D01*
X76906994Y-54876930D01*
X76899054Y-54872885D01*
X76896293Y-54870276D01*
X76892609Y-54869356D01*
X76871100Y-54846483D01*
X76848259Y-54824912D01*
X76847345Y-54821223D01*
X76844744Y-54818457D01*
X76839014Y-54787582D01*
X76831463Y-54757092D01*
X76832688Y-54753496D01*
X76831995Y-54749761D01*
X76843868Y-54720684D01*
X76853999Y-54690956D01*
X76857391Y-54687570D01*
X76858410Y-54685077D01*
X76866528Y-54678453D01*
X76884121Y-54660898D01*
X76891268Y-54655882D01*
X76907816Y-54647451D01*
X77036097Y-54554249D01*
X77036117Y-54554236D01*
X77079785Y-54522509D01*
X77079783Y-54522509D01*
X77079792Y-54522504D01*
X77230104Y-54372192D01*
X77230106Y-54372188D01*
X77230109Y-54372186D01*
X77353640Y-54202158D01*
X77355051Y-54200216D01*
X77451557Y-54010812D01*
X77517246Y-53808643D01*
X77550500Y-53598687D01*
X77550500Y-53386113D01*
X77517246Y-53176157D01*
X77451557Y-52973988D01*
X77355051Y-52784584D01*
X77355049Y-52784581D01*
X77355048Y-52784579D01*
X77230109Y-52612613D01*
X77116569Y-52499073D01*
X77083084Y-52437750D01*
X77088068Y-52368058D01*
X77129940Y-52312125D01*
X77160915Y-52295210D01*
X77292331Y-52246196D01*
X77407546Y-52159946D01*
X77493796Y-52044731D01*
X77544091Y-51909883D01*
X77550500Y-51850273D01*
X77550499Y-50952400D01*
X77550499Y-50454615D01*
X77550499Y-50054529D01*
X77550498Y-50054523D01*
X77544091Y-49994916D01*
X77493797Y-49860071D01*
X77493793Y-49860064D01*
X77407547Y-49744855D01*
X77407544Y-49744852D01*
X77292335Y-49658606D01*
X77292328Y-49658602D01*
X77157482Y-49608308D01*
X77157483Y-49608308D01*
X77097883Y-49601901D01*
X77097881Y-49601900D01*
X77097873Y-49601900D01*
X77097864Y-49601900D01*
X75302129Y-49601900D01*
X75302123Y-49601901D01*
X75242516Y-49608308D01*
X75107671Y-49658602D01*
X75107669Y-49658603D01*
X75095410Y-49667781D01*
X75029945Y-49692197D01*
X74961672Y-49677345D01*
X74912267Y-49627939D01*
X74897100Y-49568513D01*
X74897100Y-46217500D01*
X74916785Y-46150461D01*
X74969589Y-46104706D01*
X75021100Y-46093500D01*
X79530971Y-46093500D01*
X79598010Y-46113185D01*
G37*
%TD.AperFunction*%
%TA.AperFunction,Conductor*%
G36*
X115082942Y-50302585D02*
G01*
X115103584Y-50319219D01*
X115312099Y-50527734D01*
X115345584Y-50589057D01*
X115340600Y-50658749D01*
X115298728Y-50714682D01*
X115233264Y-50739099D01*
X115211164Y-50738705D01*
X115207484Y-50738309D01*
X115207483Y-50738309D01*
X115147873Y-50731900D01*
X115147865Y-50731900D01*
X113452129Y-50731900D01*
X113452123Y-50731901D01*
X113392516Y-50738308D01*
X113257671Y-50788602D01*
X113257664Y-50788606D01*
X113142455Y-50874852D01*
X113142452Y-50874855D01*
X113056206Y-50990064D01*
X113056202Y-50990071D01*
X113005908Y-51124917D01*
X113003872Y-51143859D01*
X112999501Y-51184525D01*
X112999500Y-51184535D01*
X112999500Y-52432302D01*
X112979815Y-52499341D01*
X112963181Y-52519983D01*
X112422481Y-53060682D01*
X112422479Y-53060684D01*
X112397231Y-53104415D01*
X112386560Y-53122900D01*
X112343423Y-53197615D01*
X112302499Y-53350343D01*
X112302499Y-53350345D01*
X112302499Y-53518446D01*
X112302500Y-53518459D01*
X112302500Y-54929730D01*
X112302499Y-54929748D01*
X112302499Y-55095454D01*
X112302498Y-55095454D01*
X112343423Y-55248185D01*
X112372358Y-55298300D01*
X112372359Y-55298304D01*
X112372360Y-55298304D01*
X112410800Y-55364886D01*
X112422479Y-55385114D01*
X112422481Y-55385117D01*
X112541349Y-55503985D01*
X112541355Y-55503990D01*
X113230837Y-56193472D01*
X113264322Y-56254795D01*
X113259338Y-56324487D01*
X113243476Y-56354036D01*
X113187712Y-56430791D01*
X113094781Y-56613176D01*
X113031522Y-56807865D01*
X112999500Y-57010048D01*
X112999500Y-57214751D01*
X113031522Y-57416934D01*
X113094781Y-57611623D01*
X113136049Y-57692614D01*
X113185836Y-57790327D01*
X113187715Y-57794013D01*
X113308028Y-57959613D01*
X113452786Y-58104371D01*
X113600933Y-58212004D01*
X113618390Y-58224687D01*
X113709840Y-58271283D01*
X113711080Y-58271915D01*
X113761876Y-58319890D01*
X113778671Y-58387711D01*
X113756134Y-58453846D01*
X113711080Y-58492885D01*
X113618386Y-58540115D01*
X113452786Y-58660428D01*
X113308028Y-58805186D01*
X113187715Y-58970786D01*
X113094781Y-59153176D01*
X113031522Y-59347865D01*
X112999500Y-59550048D01*
X112999500Y-59755302D01*
X112979815Y-59822341D01*
X112963181Y-59842983D01*
X112422481Y-60383682D01*
X112422479Y-60383685D01*
X112372361Y-60470494D01*
X112372359Y-60470496D01*
X112343425Y-60520609D01*
X112343424Y-60520610D01*
X112343423Y-60520615D01*
X112302499Y-60673343D01*
X112302499Y-60673345D01*
X112302499Y-60841446D01*
X112302500Y-60841459D01*
X112302500Y-71715730D01*
X112302499Y-71715748D01*
X112302499Y-71881454D01*
X112302498Y-71881454D01*
X112302499Y-71881457D01*
X112343423Y-72034185D01*
X112343424Y-72034187D01*
X112343423Y-72034187D01*
X112356374Y-72056617D01*
X112356375Y-72056619D01*
X112422475Y-72171109D01*
X112422481Y-72171117D01*
X112541349Y-72289985D01*
X112541355Y-72289990D01*
X112963181Y-72711816D01*
X112996666Y-72773139D01*
X112999500Y-72799497D01*
X112999500Y-73004751D01*
X113031522Y-73206934D01*
X113094781Y-73401623D01*
X113142951Y-73496160D01*
X113168318Y-73545946D01*
X113187715Y-73584013D01*
X113308028Y-73749613D01*
X113452786Y-73894371D01*
X113557041Y-73970115D01*
X113618390Y-74014687D01*
X113709840Y-74061283D01*
X113711080Y-74061915D01*
X113761876Y-74109890D01*
X113778671Y-74177711D01*
X113756134Y-74243846D01*
X113711080Y-74282885D01*
X113618386Y-74330115D01*
X113452786Y-74450428D01*
X113308028Y-74595186D01*
X113187715Y-74760786D01*
X113094781Y-74943176D01*
X113031522Y-75137865D01*
X112999500Y-75340048D01*
X112999500Y-75544751D01*
X113031522Y-75746934D01*
X113094781Y-75941623D01*
X113150631Y-76051232D01*
X113186401Y-76121436D01*
X113187715Y-76124013D01*
X113308028Y-76289613D01*
X113452786Y-76434371D01*
X113595798Y-76538273D01*
X113618390Y-76554687D01*
X113679826Y-76585990D01*
X113800776Y-76647618D01*
X113800778Y-76647618D01*
X113800781Y-76647620D01*
X113905137Y-76681527D01*
X113995465Y-76710877D01*
X114060111Y-76721116D01*
X114197648Y-76742900D01*
X114197649Y-76742900D01*
X114402351Y-76742900D01*
X114402352Y-76742900D01*
X114604534Y-76710877D01*
X114799219Y-76647620D01*
X114981610Y-76554687D01*
X115107966Y-76462885D01*
X115147213Y-76434371D01*
X115147215Y-76434368D01*
X115147219Y-76434366D01*
X115291966Y-76289619D01*
X115291968Y-76289615D01*
X115291971Y-76289613D01*
X115344732Y-76216990D01*
X115412287Y-76124010D01*
X115505220Y-75941619D01*
X115568477Y-75746934D01*
X115600500Y-75544752D01*
X115600500Y-75340048D01*
X115573411Y-75169016D01*
X115568477Y-75137865D01*
X115517199Y-74980048D01*
X115505220Y-74943181D01*
X115505218Y-74943178D01*
X115505218Y-74943176D01*
X115463136Y-74860586D01*
X115412287Y-74760790D01*
X115404556Y-74750149D01*
X115291971Y-74595186D01*
X115147213Y-74450428D01*
X114981614Y-74330115D01*
X114975006Y-74326748D01*
X114888917Y-74282883D01*
X114838123Y-74234911D01*
X114821328Y-74167090D01*
X114843865Y-74100955D01*
X114888917Y-74061916D01*
X114981610Y-74014687D01*
X115042959Y-73970115D01*
X115147213Y-73894371D01*
X115147215Y-73894368D01*
X115147219Y-73894366D01*
X115291966Y-73749619D01*
X115291968Y-73749615D01*
X115291971Y-73749613D01*
X115350382Y-73669216D01*
X115412287Y-73584010D01*
X115505220Y-73401619D01*
X115568477Y-73206934D01*
X115600500Y-73004752D01*
X115600500Y-72800048D01*
X115577898Y-72657349D01*
X115568477Y-72597865D01*
X115539127Y-72507537D01*
X115505220Y-72403181D01*
X115505218Y-72403178D01*
X115505218Y-72403176D01*
X115447546Y-72289990D01*
X115412287Y-72220790D01*
X115376192Y-72171109D01*
X115291971Y-72055186D01*
X115147213Y-71910428D01*
X114981614Y-71790115D01*
X114975006Y-71786748D01*
X114888917Y-71742883D01*
X114838123Y-71694911D01*
X114821328Y-71627090D01*
X114843865Y-71560955D01*
X114888917Y-71521916D01*
X114981610Y-71474687D01*
X115042959Y-71430115D01*
X115147213Y-71354371D01*
X115147215Y-71354368D01*
X115147219Y-71354366D01*
X115291966Y-71209619D01*
X115291968Y-71209615D01*
X115291971Y-71209613D01*
X115412284Y-71044014D01*
X115412283Y-71044014D01*
X115412287Y-71044010D01*
X115419117Y-71030604D01*
X115467091Y-70979809D01*
X115529602Y-70962900D01*
X116907943Y-70962900D01*
X117066057Y-70962900D01*
X121967943Y-70962900D01*
X128310398Y-70962900D01*
X128377437Y-70982585D01*
X128420883Y-71030605D01*
X128427715Y-71044014D01*
X128548028Y-71209613D01*
X128692786Y-71354371D01*
X128847749Y-71466956D01*
X128858390Y-71474687D01*
X128949840Y-71521283D01*
X128951080Y-71521915D01*
X129001876Y-71569890D01*
X129018671Y-71637711D01*
X128996134Y-71703846D01*
X128951080Y-71742885D01*
X128858386Y-71790115D01*
X128692786Y-71910428D01*
X128548028Y-72055186D01*
X128427715Y-72220786D01*
X128334781Y-72403176D01*
X128271522Y-72597865D01*
X128239500Y-72800048D01*
X128239500Y-73004751D01*
X128271522Y-73206934D01*
X128334781Y-73401623D01*
X128382951Y-73496160D01*
X128408318Y-73545946D01*
X128427715Y-73584013D01*
X128548028Y-73749613D01*
X128692786Y-73894371D01*
X128797041Y-73970115D01*
X128858390Y-74014687D01*
X128949840Y-74061283D01*
X128951080Y-74061915D01*
X129001876Y-74109890D01*
X129018671Y-74177711D01*
X128996134Y-74243846D01*
X128951080Y-74282885D01*
X128858386Y-74330115D01*
X128692786Y-74450428D01*
X128548028Y-74595186D01*
X128427715Y-74760786D01*
X128334781Y-74943176D01*
X128271522Y-75137865D01*
X128239500Y-75340048D01*
X128239500Y-75544751D01*
X128271522Y-75746934D01*
X128334781Y-75941623D01*
X128390631Y-76051232D01*
X128426401Y-76121436D01*
X128427715Y-76124013D01*
X128548028Y-76289613D01*
X128692786Y-76434371D01*
X128835798Y-76538273D01*
X128858390Y-76554687D01*
X128919826Y-76585990D01*
X129040776Y-76647618D01*
X129040778Y-76647618D01*
X129040781Y-76647620D01*
X129145137Y-76681527D01*
X129235465Y-76710877D01*
X129300111Y-76721116D01*
X129437648Y-76742900D01*
X129437649Y-76742900D01*
X129642351Y-76742900D01*
X129642352Y-76742900D01*
X129844534Y-76710877D01*
X130039219Y-76647620D01*
X130221610Y-76554687D01*
X130347966Y-76462885D01*
X130387213Y-76434371D01*
X130387215Y-76434368D01*
X130387219Y-76434366D01*
X130531966Y-76289619D01*
X130531968Y-76289615D01*
X130531971Y-76289613D01*
X130584732Y-76216990D01*
X130652287Y-76124010D01*
X130745220Y-75941619D01*
X130808477Y-75746934D01*
X130840500Y-75544752D01*
X130840500Y-75340048D01*
X130808477Y-75137866D01*
X130803825Y-75123551D01*
X130801832Y-75053712D01*
X130834074Y-74997559D01*
X130984421Y-74847212D01*
X131045742Y-74813730D01*
X131115434Y-74818714D01*
X131171367Y-74860586D01*
X131195784Y-74926050D01*
X131196100Y-74934896D01*
X131196100Y-81268500D01*
X131176415Y-81335539D01*
X131123611Y-81381294D01*
X131072100Y-81392500D01*
X106639296Y-81392500D01*
X106572257Y-81372815D01*
X106526502Y-81320011D01*
X106516558Y-81250853D01*
X106528811Y-81212205D01*
X106528871Y-81212089D01*
X106615220Y-81042619D01*
X106678477Y-80847934D01*
X106710500Y-80645752D01*
X106710500Y-80441048D01*
X106678477Y-80238866D01*
X106615220Y-80044181D01*
X106615218Y-80044178D01*
X106615218Y-80044176D01*
X106581503Y-79978007D01*
X106522287Y-79861790D01*
X106514556Y-79851149D01*
X106401971Y-79696186D01*
X106257213Y-79551428D01*
X106091611Y-79431113D01*
X106037621Y-79403603D01*
X105986825Y-79355628D01*
X105970031Y-79287807D01*
X105992569Y-79221672D01*
X106037624Y-79182633D01*
X106091349Y-79155259D01*
X106135921Y-79122874D01*
X105456446Y-78443400D01*
X105462661Y-78443400D01*
X105564394Y-78416141D01*
X105655606Y-78363480D01*
X105730080Y-78289006D01*
X105782741Y-78197794D01*
X105810000Y-78096061D01*
X105810000Y-78089848D01*
X106489474Y-78769322D01*
X106489474Y-78769321D01*
X106521859Y-78724749D01*
X106614755Y-78542431D01*
X106677990Y-78347817D01*
X106710000Y-78145717D01*
X106710000Y-77941082D01*
X106677990Y-77738982D01*
X106614755Y-77544368D01*
X106521859Y-77362050D01*
X106489474Y-77317477D01*
X106489474Y-77317476D01*
X105810000Y-77996951D01*
X105810000Y-77990739D01*
X105782741Y-77889006D01*
X105730080Y-77797794D01*
X105655606Y-77723320D01*
X105564394Y-77670659D01*
X105462661Y-77643400D01*
X105456446Y-77643400D01*
X106135922Y-76963924D01*
X106135921Y-76963923D01*
X106091359Y-76931547D01*
X106091350Y-76931541D01*
X105973609Y-76871549D01*
X105922813Y-76823574D01*
X105906018Y-76755753D01*
X105928555Y-76689618D01*
X105973610Y-76650579D01*
X105979418Y-76647620D01*
X106039199Y-76617160D01*
X106192073Y-76506090D01*
X106325690Y-76372473D01*
X106436760Y-76219599D01*
X106457282Y-76179321D01*
X106505256Y-76128526D01*
X106573076Y-76111730D01*
X106639212Y-76134267D01*
X106678250Y-76179319D01*
X106747239Y-76314716D01*
X106752187Y-76324425D01*
X106881752Y-76502758D01*
X106881756Y-76502763D01*
X107037636Y-76658643D01*
X107037641Y-76658647D01*
X107185916Y-76766374D01*
X107215978Y-76788215D01*
X107341947Y-76852400D01*
X107412393Y-76888295D01*
X107412396Y-76888296D01*
X107517221Y-76922355D01*
X107622049Y-76956415D01*
X107839778Y-76990900D01*
X107839779Y-76990900D01*
X108060221Y-76990900D01*
X108060222Y-76990900D01*
X108277951Y-76956415D01*
X108487606Y-76888295D01*
X108684022Y-76788215D01*
X108862365Y-76658642D01*
X108912536Y-76608470D01*
X108973857Y-76574986D01*
X109043548Y-76579970D01*
X109099482Y-76621841D01*
X109116398Y-76652819D01*
X109146202Y-76732728D01*
X109146206Y-76732735D01*
X109232452Y-76847944D01*
X109232455Y-76847947D01*
X109347664Y-76934193D01*
X109347671Y-76934197D01*
X109482517Y-76984491D01*
X109482516Y-76984491D01*
X109489444Y-76985235D01*
X109542127Y-76990900D01*
X111437872Y-76990899D01*
X111497483Y-76984491D01*
X111632331Y-76934196D01*
X111747546Y-76847946D01*
X111833796Y-76732731D01*
X111884091Y-76597883D01*
X111890500Y-76538273D01*
X111890499Y-74642528D01*
X111884091Y-74582917D01*
X111876901Y-74563640D01*
X111833797Y-74448071D01*
X111833793Y-74448064D01*
X111747547Y-74332855D01*
X111747544Y-74332852D01*
X111632335Y-74246606D01*
X111632328Y-74246602D01*
X111497482Y-74196308D01*
X111497483Y-74196308D01*
X111437883Y-74189901D01*
X111437881Y-74189900D01*
X111437873Y-74189900D01*
X111437865Y-74189900D01*
X111214500Y-74189900D01*
X111147461Y-74170215D01*
X111101706Y-74117411D01*
X111090500Y-74065900D01*
X111090500Y-73812899D01*
X111110185Y-73745860D01*
X111162989Y-73700105D01*
X111214500Y-73688899D01*
X111437871Y-73688899D01*
X111437872Y-73688899D01*
X111497483Y-73682491D01*
X111632331Y-73632196D01*
X111747546Y-73545946D01*
X111833796Y-73430731D01*
X111884091Y-73295883D01*
X111890500Y-73236273D01*
X111890499Y-71340528D01*
X111884091Y-71280917D01*
X111882895Y-71277711D01*
X111833797Y-71146071D01*
X111833793Y-71146064D01*
X111747547Y-71030855D01*
X111747544Y-71030852D01*
X111632335Y-70944606D01*
X111632328Y-70944602D01*
X111497482Y-70894308D01*
X111497483Y-70894308D01*
X111437883Y-70887901D01*
X111437881Y-70887900D01*
X111437873Y-70887900D01*
X111437865Y-70887900D01*
X111214500Y-70887900D01*
X111147461Y-70868215D01*
X111101706Y-70815411D01*
X111090500Y-70763900D01*
X111090500Y-70510899D01*
X111110185Y-70443860D01*
X111162989Y-70398105D01*
X111214500Y-70386899D01*
X111437871Y-70386899D01*
X111437872Y-70386899D01*
X111497483Y-70380491D01*
X111632331Y-70330196D01*
X111747546Y-70243946D01*
X111833796Y-70128731D01*
X111884091Y-69993883D01*
X111890500Y-69934273D01*
X111890499Y-68038528D01*
X111884091Y-67978917D01*
X111880010Y-67967976D01*
X111833797Y-67844071D01*
X111833793Y-67844064D01*
X111747547Y-67728855D01*
X111747544Y-67728852D01*
X111632335Y-67642606D01*
X111632328Y-67642602D01*
X111497482Y-67592308D01*
X111497483Y-67592308D01*
X111437883Y-67585901D01*
X111437881Y-67585900D01*
X111437873Y-67585900D01*
X111437865Y-67585900D01*
X111214500Y-67585900D01*
X111147461Y-67566215D01*
X111101706Y-67513411D01*
X111090500Y-67461900D01*
X111090500Y-67208899D01*
X111110185Y-67141860D01*
X111162989Y-67096105D01*
X111214500Y-67084899D01*
X111437871Y-67084899D01*
X111437872Y-67084899D01*
X111497483Y-67078491D01*
X111632331Y-67028196D01*
X111747546Y-66941946D01*
X111833796Y-66826731D01*
X111884091Y-66691883D01*
X111890500Y-66632273D01*
X111890499Y-64736528D01*
X111884091Y-64676917D01*
X111882406Y-64672400D01*
X111833797Y-64542071D01*
X111833793Y-64542064D01*
X111747547Y-64426855D01*
X111747544Y-64426852D01*
X111632335Y-64340606D01*
X111632328Y-64340602D01*
X111497482Y-64290308D01*
X111497483Y-64290308D01*
X111437883Y-64283901D01*
X111437881Y-64283900D01*
X111437873Y-64283900D01*
X111437865Y-64283900D01*
X111214500Y-64283900D01*
X111147461Y-64264215D01*
X111101706Y-64211411D01*
X111090500Y-64159900D01*
X111090500Y-63398899D01*
X111110185Y-63331860D01*
X111162989Y-63286105D01*
X111214500Y-63274899D01*
X111437871Y-63274899D01*
X111437872Y-63274899D01*
X111497483Y-63268491D01*
X111632331Y-63218196D01*
X111747546Y-63131946D01*
X111833796Y-63016731D01*
X111884091Y-62881883D01*
X111890500Y-62822273D01*
X111890499Y-60926528D01*
X111884091Y-60866917D01*
X111883157Y-60864414D01*
X111833797Y-60732071D01*
X111833793Y-60732064D01*
X111747547Y-60616855D01*
X111747544Y-60616852D01*
X111632335Y-60530606D01*
X111632328Y-60530602D01*
X111497482Y-60480308D01*
X111497483Y-60480308D01*
X111437883Y-60473901D01*
X111437881Y-60473900D01*
X111437873Y-60473900D01*
X111437865Y-60473900D01*
X111214500Y-60473900D01*
X111147461Y-60454215D01*
X111101706Y-60401411D01*
X111090500Y-60349900D01*
X111090500Y-60096899D01*
X111110185Y-60029860D01*
X111162989Y-59984105D01*
X111214500Y-59972899D01*
X111437871Y-59972899D01*
X111437872Y-59972899D01*
X111497483Y-59966491D01*
X111632331Y-59916196D01*
X111747546Y-59829946D01*
X111833796Y-59714731D01*
X111884091Y-59579883D01*
X111890500Y-59520273D01*
X111890499Y-57624528D01*
X111884091Y-57564917D01*
X111876901Y-57545640D01*
X111833797Y-57430071D01*
X111833793Y-57430064D01*
X111747547Y-57314855D01*
X111747544Y-57314852D01*
X111632335Y-57228606D01*
X111632328Y-57228602D01*
X111497482Y-57178308D01*
X111497483Y-57178308D01*
X111437883Y-57171901D01*
X111437881Y-57171900D01*
X111437873Y-57171900D01*
X111437865Y-57171900D01*
X111214500Y-57171900D01*
X111147461Y-57152215D01*
X111101706Y-57099411D01*
X111090500Y-57047900D01*
X111090500Y-56794899D01*
X111110185Y-56727860D01*
X111162989Y-56682105D01*
X111214500Y-56670899D01*
X111437871Y-56670899D01*
X111437872Y-56670899D01*
X111497483Y-56664491D01*
X111632331Y-56614196D01*
X111747546Y-56527946D01*
X111833796Y-56412731D01*
X111884091Y-56277883D01*
X111890500Y-56218273D01*
X111890499Y-54322528D01*
X111884091Y-54262917D01*
X111876901Y-54243640D01*
X111833797Y-54128071D01*
X111833793Y-54128064D01*
X111747547Y-54012855D01*
X111747544Y-54012852D01*
X111632335Y-53926606D01*
X111632328Y-53926602D01*
X111497482Y-53876308D01*
X111497483Y-53876308D01*
X111437883Y-53869901D01*
X111437881Y-53869900D01*
X111437873Y-53869900D01*
X111437865Y-53869900D01*
X111214500Y-53869900D01*
X111147461Y-53850215D01*
X111101706Y-53797411D01*
X111090500Y-53745900D01*
X111090500Y-53492899D01*
X111110185Y-53425860D01*
X111162989Y-53380105D01*
X111214500Y-53368899D01*
X111437871Y-53368899D01*
X111437872Y-53368899D01*
X111497483Y-53362491D01*
X111632331Y-53312196D01*
X111747546Y-53225946D01*
X111833796Y-53110731D01*
X111884091Y-52975883D01*
X111890500Y-52916273D01*
X111890499Y-51020528D01*
X111884091Y-50960917D01*
X111882895Y-50957711D01*
X111833797Y-50826071D01*
X111833793Y-50826064D01*
X111747547Y-50710855D01*
X111747544Y-50710852D01*
X111632335Y-50624606D01*
X111632328Y-50624602D01*
X111497482Y-50574308D01*
X111497483Y-50574308D01*
X111437883Y-50567901D01*
X111437881Y-50567900D01*
X111437873Y-50567900D01*
X111437865Y-50567900D01*
X109990098Y-50567900D01*
X109960657Y-50559255D01*
X109930671Y-50552732D01*
X109925655Y-50548977D01*
X109923059Y-50548215D01*
X109902417Y-50531581D01*
X109865417Y-50494581D01*
X109831932Y-50433258D01*
X109836916Y-50363566D01*
X109878788Y-50307633D01*
X109944252Y-50283216D01*
X109953098Y-50282900D01*
X115015903Y-50282900D01*
X115082942Y-50302585D01*
G37*
%TD.AperFunction*%
%TA.AperFunction,Conductor*%
G36*
X102020414Y-50937585D02*
G01*
X102066169Y-50990389D01*
X102076113Y-51059547D01*
X102047088Y-51123103D01*
X102041056Y-51129581D01*
X101954312Y-51216324D01*
X101954312Y-51216325D01*
X101954310Y-51216327D01*
X101906610Y-51281979D01*
X101843240Y-51369200D01*
X101757454Y-51537563D01*
X101699059Y-51717281D01*
X101669500Y-51903913D01*
X101669500Y-52092886D01*
X101699059Y-52279518D01*
X101757454Y-52459236D01*
X101826702Y-52595141D01*
X101843240Y-52627599D01*
X101954310Y-52780473D01*
X102087927Y-52914090D01*
X102240801Y-53025160D01*
X102263336Y-53036642D01*
X102409163Y-53110945D01*
X102409165Y-53110945D01*
X102409168Y-53110947D01*
X102505497Y-53142246D01*
X102588881Y-53169340D01*
X102775514Y-53198900D01*
X102775519Y-53198900D01*
X102964486Y-53198900D01*
X103151118Y-53169340D01*
X103160745Y-53166212D01*
X103330832Y-53110947D01*
X103499199Y-53025160D01*
X103652073Y-52914090D01*
X103785690Y-52780473D01*
X103896760Y-52627599D01*
X103982547Y-52459232D01*
X104022069Y-52337595D01*
X104061507Y-52279921D01*
X104125866Y-52252723D01*
X104194712Y-52264638D01*
X104246188Y-52311882D01*
X104257930Y-52337594D01*
X104267829Y-52368058D01*
X104297454Y-52459236D01*
X104366702Y-52595141D01*
X104383240Y-52627599D01*
X104494310Y-52780473D01*
X104627927Y-52914090D01*
X104780801Y-53025160D01*
X104803336Y-53036642D01*
X104949163Y-53110945D01*
X104949165Y-53110945D01*
X104949168Y-53110947D01*
X105045497Y-53142246D01*
X105128881Y-53169340D01*
X105315514Y-53198900D01*
X105315519Y-53198900D01*
X105504486Y-53198900D01*
X105691118Y-53169340D01*
X105700745Y-53166212D01*
X105870832Y-53110947D01*
X106039199Y-53025160D01*
X106192073Y-52914090D01*
X106325690Y-52780473D01*
X106436760Y-52627599D01*
X106464926Y-52572319D01*
X106512897Y-52521526D01*
X106580717Y-52504730D01*
X106646853Y-52527266D01*
X106685893Y-52572320D01*
X106752185Y-52702423D01*
X106881752Y-52880758D01*
X106881756Y-52880763D01*
X107037636Y-53036643D01*
X107037641Y-53036647D01*
X107156361Y-53122901D01*
X107215978Y-53166215D01*
X107344375Y-53231637D01*
X107412393Y-53266295D01*
X107412396Y-53266296D01*
X107517221Y-53300355D01*
X107622049Y-53334415D01*
X107839778Y-53368900D01*
X107839779Y-53368900D01*
X108060221Y-53368900D01*
X108060222Y-53368900D01*
X108277951Y-53334415D01*
X108487606Y-53266295D01*
X108684022Y-53166215D01*
X108862365Y-53036642D01*
X108912536Y-52986470D01*
X108973857Y-52952986D01*
X109043548Y-52957970D01*
X109099482Y-52999841D01*
X109116398Y-53030819D01*
X109146202Y-53110728D01*
X109146206Y-53110735D01*
X109232452Y-53225944D01*
X109232455Y-53225947D01*
X109347664Y-53312193D01*
X109347671Y-53312197D01*
X109385996Y-53326491D01*
X109482517Y-53362491D01*
X109542127Y-53368900D01*
X109765500Y-53368899D01*
X109832539Y-53388583D01*
X109878294Y-53441387D01*
X109889500Y-53492899D01*
X109889500Y-53745900D01*
X109869815Y-53812939D01*
X109817011Y-53858694D01*
X109765501Y-53869900D01*
X109542130Y-53869900D01*
X109542123Y-53869901D01*
X109482516Y-53876308D01*
X109347671Y-53926602D01*
X109347664Y-53926606D01*
X109232455Y-54012852D01*
X109232452Y-54012855D01*
X109146206Y-54128064D01*
X109146203Y-54128069D01*
X109116398Y-54207981D01*
X109074526Y-54263914D01*
X109009062Y-54288331D01*
X108940789Y-54273479D01*
X108912535Y-54252328D01*
X108862363Y-54202156D01*
X108862358Y-54202152D01*
X108684025Y-54072587D01*
X108684024Y-54072586D01*
X108684022Y-54072585D01*
X108566791Y-54012852D01*
X108487606Y-53972504D01*
X108487603Y-53972503D01*
X108277952Y-53904385D01*
X108169086Y-53887142D01*
X108060222Y-53869900D01*
X107839778Y-53869900D01*
X107767201Y-53881395D01*
X107622047Y-53904385D01*
X107412396Y-53972503D01*
X107412393Y-53972504D01*
X107215974Y-54072587D01*
X107037641Y-54202152D01*
X107037636Y-54202156D01*
X106881756Y-54358036D01*
X106881752Y-54358041D01*
X106752187Y-54536374D01*
X106678252Y-54681478D01*
X106630277Y-54732274D01*
X106562456Y-54749069D01*
X106496321Y-54726531D01*
X106457282Y-54681478D01*
X106453855Y-54674752D01*
X106436760Y-54641201D01*
X106325690Y-54488327D01*
X106192073Y-54354710D01*
X106039199Y-54243640D01*
X105870836Y-54157854D01*
X105691118Y-54099459D01*
X105504486Y-54069900D01*
X105504481Y-54069900D01*
X105315519Y-54069900D01*
X105315514Y-54069900D01*
X105128881Y-54099459D01*
X104949163Y-54157854D01*
X104780800Y-54243640D01*
X104719289Y-54288331D01*
X104627927Y-54354710D01*
X104627925Y-54354712D01*
X104627924Y-54354712D01*
X104494312Y-54488324D01*
X104494312Y-54488325D01*
X104494310Y-54488327D01*
X104469479Y-54522504D01*
X104383240Y-54641200D01*
X104297454Y-54809563D01*
X104257931Y-54931203D01*
X104218493Y-54988878D01*
X104154134Y-55016076D01*
X104085288Y-55004161D01*
X104033812Y-54956916D01*
X104022069Y-54931203D01*
X104004571Y-54877351D01*
X103982547Y-54809568D01*
X103982545Y-54809565D01*
X103982545Y-54809563D01*
X103913855Y-54674752D01*
X103896760Y-54641201D01*
X103785690Y-54488327D01*
X103652073Y-54354710D01*
X103499199Y-54243640D01*
X103330836Y-54157854D01*
X103151118Y-54099459D01*
X102964486Y-54069900D01*
X102964481Y-54069900D01*
X102775519Y-54069900D01*
X102775514Y-54069900D01*
X102588881Y-54099459D01*
X102409163Y-54157854D01*
X102240800Y-54243640D01*
X102179289Y-54288331D01*
X102087927Y-54354710D01*
X102087925Y-54354712D01*
X102087924Y-54354712D01*
X101954312Y-54488324D01*
X101954312Y-54488325D01*
X101954310Y-54488327D01*
X101929479Y-54522504D01*
X101843240Y-54641200D01*
X101757454Y-54809563D01*
X101699059Y-54989281D01*
X101669500Y-55175913D01*
X101669500Y-55364886D01*
X101699059Y-55551518D01*
X101757454Y-55731236D01*
X101816802Y-55847711D01*
X101843240Y-55899599D01*
X101954310Y-56052473D01*
X102087927Y-56186090D01*
X102240801Y-56297160D01*
X102310786Y-56332819D01*
X102409163Y-56382945D01*
X102409165Y-56382945D01*
X102409168Y-56382947D01*
X102500824Y-56412728D01*
X102588881Y-56441340D01*
X102775514Y-56470900D01*
X102775519Y-56470900D01*
X102964486Y-56470900D01*
X103151118Y-56441340D01*
X103183587Y-56430790D01*
X103330832Y-56382947D01*
X103499199Y-56297160D01*
X103652073Y-56186090D01*
X103785690Y-56052473D01*
X103896760Y-55899599D01*
X103982547Y-55731232D01*
X104022069Y-55609595D01*
X104061507Y-55551921D01*
X104125866Y-55524723D01*
X104194712Y-55536638D01*
X104246188Y-55583882D01*
X104257930Y-55609594D01*
X104257938Y-55609619D01*
X104297454Y-55731236D01*
X104356802Y-55847711D01*
X104383240Y-55899599D01*
X104494310Y-56052473D01*
X104627927Y-56186090D01*
X104780801Y-56297160D01*
X104850786Y-56332819D01*
X104949163Y-56382945D01*
X104949165Y-56382945D01*
X104949168Y-56382947D01*
X105040824Y-56412728D01*
X105128881Y-56441340D01*
X105315514Y-56470900D01*
X105315519Y-56470900D01*
X105504486Y-56470900D01*
X105691118Y-56441340D01*
X105723587Y-56430790D01*
X105870832Y-56382947D01*
X106039199Y-56297160D01*
X106192073Y-56186090D01*
X106325690Y-56052473D01*
X106436760Y-55899599D01*
X106457282Y-55859321D01*
X106505256Y-55808526D01*
X106573076Y-55791730D01*
X106639212Y-55814267D01*
X106678250Y-55859319D01*
X106749990Y-56000115D01*
X106752187Y-56004425D01*
X106881752Y-56182758D01*
X106881756Y-56182763D01*
X107037636Y-56338643D01*
X107037641Y-56338647D01*
X107193192Y-56451660D01*
X107215978Y-56468215D01*
X107344375Y-56533637D01*
X107412393Y-56568295D01*
X107412396Y-56568296D01*
X107517221Y-56602355D01*
X107622049Y-56636415D01*
X107839778Y-56670900D01*
X107839779Y-56670900D01*
X108060221Y-56670900D01*
X108060222Y-56670900D01*
X108277951Y-56636415D01*
X108487606Y-56568295D01*
X108684022Y-56468215D01*
X108862365Y-56338642D01*
X108912536Y-56288470D01*
X108973857Y-56254986D01*
X109043548Y-56259970D01*
X109099482Y-56301841D01*
X109116398Y-56332819D01*
X109146202Y-56412728D01*
X109146206Y-56412735D01*
X109232452Y-56527944D01*
X109232455Y-56527947D01*
X109347664Y-56614193D01*
X109347671Y-56614197D01*
X109365348Y-56620790D01*
X109482517Y-56664491D01*
X109542127Y-56670900D01*
X109765500Y-56670899D01*
X109832539Y-56690583D01*
X109878294Y-56743387D01*
X109889500Y-56794899D01*
X109889500Y-57047900D01*
X109869815Y-57114939D01*
X109817011Y-57160694D01*
X109765501Y-57171900D01*
X109542130Y-57171900D01*
X109542123Y-57171901D01*
X109482516Y-57178308D01*
X109347671Y-57228602D01*
X109347664Y-57228606D01*
X109232455Y-57314852D01*
X109232452Y-57314855D01*
X109146206Y-57430064D01*
X109146203Y-57430069D01*
X109116398Y-57509981D01*
X109074526Y-57565914D01*
X109009062Y-57590331D01*
X108940789Y-57575479D01*
X108912535Y-57554328D01*
X108862363Y-57504156D01*
X108862358Y-57504152D01*
X108684025Y-57374587D01*
X108684024Y-57374586D01*
X108684022Y-57374585D01*
X108621096Y-57342522D01*
X108487606Y-57274504D01*
X108487603Y-57274503D01*
X108277952Y-57206385D01*
X108158407Y-57187451D01*
X108060222Y-57171900D01*
X107839778Y-57171900D01*
X107767201Y-57183395D01*
X107622047Y-57206385D01*
X107412396Y-57274503D01*
X107412393Y-57274504D01*
X107215974Y-57374587D01*
X107037641Y-57504152D01*
X107037636Y-57504156D01*
X106881756Y-57660036D01*
X106881752Y-57660041D01*
X106752187Y-57838374D01*
X106678252Y-57983478D01*
X106630277Y-58034274D01*
X106562456Y-58051069D01*
X106496321Y-58028531D01*
X106457282Y-57983478D01*
X106436759Y-57943200D01*
X106325690Y-57790327D01*
X106192073Y-57656710D01*
X106039199Y-57545640D01*
X106032624Y-57542290D01*
X105870836Y-57459854D01*
X105691118Y-57401459D01*
X105504486Y-57371900D01*
X105504481Y-57371900D01*
X105315519Y-57371900D01*
X105315514Y-57371900D01*
X105128881Y-57401459D01*
X104949163Y-57459854D01*
X104780800Y-57545640D01*
X104752896Y-57565914D01*
X104627927Y-57656710D01*
X104627925Y-57656712D01*
X104627924Y-57656712D01*
X104494312Y-57790324D01*
X104494312Y-57790325D01*
X104494310Y-57790327D01*
X104459402Y-57838374D01*
X104383240Y-57943200D01*
X104297454Y-58111563D01*
X104257931Y-58233203D01*
X104218493Y-58290878D01*
X104154134Y-58318076D01*
X104085288Y-58306161D01*
X104033812Y-58258916D01*
X104022069Y-58233203D01*
X104011649Y-58201134D01*
X103982547Y-58111568D01*
X103982545Y-58111565D01*
X103982545Y-58111563D01*
X103937290Y-58022747D01*
X103896760Y-57943201D01*
X103785690Y-57790327D01*
X103652073Y-57656710D01*
X103499199Y-57545640D01*
X103492624Y-57542290D01*
X103330836Y-57459854D01*
X103151118Y-57401459D01*
X102964486Y-57371900D01*
X102964481Y-57371900D01*
X102775519Y-57371900D01*
X102775514Y-57371900D01*
X102588881Y-57401459D01*
X102409163Y-57459854D01*
X102240800Y-57545640D01*
X102212896Y-57565914D01*
X102087927Y-57656710D01*
X102087925Y-57656712D01*
X102087924Y-57656712D01*
X101954312Y-57790324D01*
X101954312Y-57790325D01*
X101954310Y-57790327D01*
X101919402Y-57838374D01*
X101843240Y-57943200D01*
X101757454Y-58111563D01*
X101699059Y-58291281D01*
X101669500Y-58477913D01*
X101669500Y-58666886D01*
X101699059Y-58853518D01*
X101757454Y-59033236D01*
X101786791Y-59090812D01*
X101843240Y-59201599D01*
X101954310Y-59354473D01*
X102087927Y-59488090D01*
X102240801Y-59599160D01*
X102310786Y-59634819D01*
X102409163Y-59684945D01*
X102409165Y-59684945D01*
X102409168Y-59684947D01*
X102500824Y-59714728D01*
X102588881Y-59743340D01*
X102775514Y-59772900D01*
X102775519Y-59772900D01*
X102964486Y-59772900D01*
X103151118Y-59743340D01*
X103186283Y-59731914D01*
X103330832Y-59684947D01*
X103499199Y-59599160D01*
X103652073Y-59488090D01*
X103785690Y-59354473D01*
X103896760Y-59201599D01*
X103982547Y-59033232D01*
X104022069Y-58911595D01*
X104061507Y-58853921D01*
X104125866Y-58826723D01*
X104194712Y-58838638D01*
X104246188Y-58885882D01*
X104257931Y-58911596D01*
X104297454Y-59033236D01*
X104326791Y-59090812D01*
X104383240Y-59201599D01*
X104494310Y-59354473D01*
X104627927Y-59488090D01*
X104780801Y-59599160D01*
X104850786Y-59634819D01*
X104949163Y-59684945D01*
X104949165Y-59684945D01*
X104949168Y-59684947D01*
X105040824Y-59714728D01*
X105128881Y-59743340D01*
X105315514Y-59772900D01*
X105315519Y-59772900D01*
X105504486Y-59772900D01*
X105691118Y-59743340D01*
X105726283Y-59731914D01*
X105870832Y-59684947D01*
X106039199Y-59599160D01*
X106192073Y-59488090D01*
X106325690Y-59354473D01*
X106436760Y-59201599D01*
X106457282Y-59161321D01*
X106505256Y-59110526D01*
X106573076Y-59093730D01*
X106639212Y-59116267D01*
X106678250Y-59161319D01*
X106738834Y-59280220D01*
X106752187Y-59306425D01*
X106881752Y-59484758D01*
X106881756Y-59484763D01*
X107037636Y-59640643D01*
X107037641Y-59640647D01*
X107193192Y-59753660D01*
X107215978Y-59770215D01*
X107344375Y-59835637D01*
X107412393Y-59870295D01*
X107412396Y-59870296D01*
X107517221Y-59904355D01*
X107622049Y-59938415D01*
X107839778Y-59972900D01*
X107839779Y-59972900D01*
X108060221Y-59972900D01*
X108060222Y-59972900D01*
X108277951Y-59938415D01*
X108487606Y-59870295D01*
X108684022Y-59770215D01*
X108862365Y-59640642D01*
X108912536Y-59590470D01*
X108973857Y-59556986D01*
X109043548Y-59561970D01*
X109099482Y-59603841D01*
X109116398Y-59634819D01*
X109146202Y-59714728D01*
X109146206Y-59714735D01*
X109232452Y-59829944D01*
X109232455Y-59829947D01*
X109347664Y-59916193D01*
X109347671Y-59916197D01*
X109392618Y-59932961D01*
X109482517Y-59966491D01*
X109542127Y-59972900D01*
X109765500Y-59972899D01*
X109832539Y-59992583D01*
X109878294Y-60045387D01*
X109889500Y-60096899D01*
X109889500Y-60349900D01*
X109869815Y-60416939D01*
X109817011Y-60462694D01*
X109765501Y-60473900D01*
X109542130Y-60473900D01*
X109542123Y-60473901D01*
X109482516Y-60480308D01*
X109347671Y-60530602D01*
X109347664Y-60530606D01*
X109232455Y-60616852D01*
X109232452Y-60616855D01*
X109146206Y-60732064D01*
X109146203Y-60732069D01*
X109116398Y-60811981D01*
X109074526Y-60867914D01*
X109009062Y-60892331D01*
X108940789Y-60877479D01*
X108912535Y-60856328D01*
X108862363Y-60806156D01*
X108862358Y-60806152D01*
X108684025Y-60676587D01*
X108684024Y-60676586D01*
X108684022Y-60676585D01*
X108566791Y-60616852D01*
X108487606Y-60576504D01*
X108487603Y-60576503D01*
X108277952Y-60508385D01*
X108169086Y-60491142D01*
X108060222Y-60473900D01*
X107839778Y-60473900D01*
X107767201Y-60485395D01*
X107622047Y-60508385D01*
X107412396Y-60576503D01*
X107412393Y-60576504D01*
X107215974Y-60676587D01*
X107037641Y-60806152D01*
X107037636Y-60806156D01*
X106881756Y-60962036D01*
X106881752Y-60962041D01*
X106752187Y-61140374D01*
X106678252Y-61285478D01*
X106630277Y-61336274D01*
X106562456Y-61353069D01*
X106496321Y-61330531D01*
X106457282Y-61285478D01*
X106436759Y-61245200D01*
X106325690Y-61092327D01*
X106192073Y-60958710D01*
X106039199Y-60847640D01*
X106013157Y-60834371D01*
X105870836Y-60761854D01*
X105691118Y-60703459D01*
X105504486Y-60673900D01*
X105504481Y-60673900D01*
X105315519Y-60673900D01*
X105315514Y-60673900D01*
X105128881Y-60703459D01*
X104949163Y-60761854D01*
X104780800Y-60847640D01*
X104721860Y-60890463D01*
X104627927Y-60958710D01*
X104627925Y-60958712D01*
X104627924Y-60958712D01*
X104494312Y-61092324D01*
X104494312Y-61092325D01*
X104494310Y-61092327D01*
X104446610Y-61157979D01*
X104383240Y-61245200D01*
X104297454Y-61413563D01*
X104257931Y-61535203D01*
X104218493Y-61592878D01*
X104154134Y-61620076D01*
X104085288Y-61608161D01*
X104033812Y-61560916D01*
X104022069Y-61535203D01*
X103982545Y-61413563D01*
X103912817Y-61276715D01*
X103896760Y-61245201D01*
X103785690Y-61092327D01*
X103652073Y-60958710D01*
X103499199Y-60847640D01*
X103473157Y-60834371D01*
X103330836Y-60761854D01*
X103151118Y-60703459D01*
X102964486Y-60673900D01*
X102964481Y-60673900D01*
X102775519Y-60673900D01*
X102775514Y-60673900D01*
X102588881Y-60703459D01*
X102409163Y-60761854D01*
X102240800Y-60847640D01*
X102181860Y-60890463D01*
X102087927Y-60958710D01*
X102087925Y-60958712D01*
X102087924Y-60958712D01*
X101954312Y-61092324D01*
X101954312Y-61092325D01*
X101954310Y-61092327D01*
X101906610Y-61157979D01*
X101843240Y-61245200D01*
X101757454Y-61413563D01*
X101699059Y-61593281D01*
X101669500Y-61779913D01*
X101669500Y-61968886D01*
X101699059Y-62155518D01*
X101757454Y-62335236D01*
X101817890Y-62453847D01*
X101843240Y-62503599D01*
X101954310Y-62656473D01*
X102087927Y-62790090D01*
X102240801Y-62901160D01*
X102263283Y-62912615D01*
X102409163Y-62986945D01*
X102409165Y-62986945D01*
X102409168Y-62986947D01*
X102500824Y-63016728D01*
X102588881Y-63045340D01*
X102775514Y-63074900D01*
X102775519Y-63074900D01*
X102964486Y-63074900D01*
X103151118Y-63045340D01*
X103330832Y-62986947D01*
X103499199Y-62901160D01*
X103652073Y-62790090D01*
X103785690Y-62656473D01*
X103896760Y-62503599D01*
X103982547Y-62335232D01*
X104022069Y-62213595D01*
X104061507Y-62155921D01*
X104125866Y-62128723D01*
X104194712Y-62140638D01*
X104246188Y-62187882D01*
X104257931Y-62213596D01*
X104297454Y-62335236D01*
X104357890Y-62453847D01*
X104383240Y-62503599D01*
X104494310Y-62656473D01*
X104627927Y-62790090D01*
X104780801Y-62901160D01*
X104803283Y-62912615D01*
X104949163Y-62986945D01*
X104949165Y-62986945D01*
X104949168Y-62986947D01*
X105040824Y-63016728D01*
X105128881Y-63045340D01*
X105315514Y-63074900D01*
X105315519Y-63074900D01*
X105504486Y-63074900D01*
X105691118Y-63045340D01*
X105870832Y-62986947D01*
X106039199Y-62901160D01*
X106192073Y-62790090D01*
X106325690Y-62656473D01*
X106436760Y-62503599D01*
X106457282Y-62463321D01*
X106505256Y-62412526D01*
X106573076Y-62395730D01*
X106639212Y-62418267D01*
X106678250Y-62463319D01*
X106715688Y-62536794D01*
X106752187Y-62608425D01*
X106881752Y-62786758D01*
X106881756Y-62786763D01*
X107037636Y-62942643D01*
X107037641Y-62942647D01*
X107193192Y-63055660D01*
X107215978Y-63072215D01*
X107337207Y-63133985D01*
X107412393Y-63172295D01*
X107412396Y-63172296D01*
X107440281Y-63181356D01*
X107622049Y-63240415D01*
X107839778Y-63274900D01*
X107839779Y-63274900D01*
X108060221Y-63274900D01*
X108060222Y-63274900D01*
X108277951Y-63240415D01*
X108487606Y-63172295D01*
X108684022Y-63072215D01*
X108862365Y-62942642D01*
X108912536Y-62892470D01*
X108973857Y-62858986D01*
X109043548Y-62863970D01*
X109099482Y-62905841D01*
X109116398Y-62936819D01*
X109146202Y-63016728D01*
X109146206Y-63016735D01*
X109232452Y-63131944D01*
X109232455Y-63131947D01*
X109347664Y-63218193D01*
X109347671Y-63218197D01*
X109388556Y-63233446D01*
X109482517Y-63268491D01*
X109542127Y-63274900D01*
X109765500Y-63274899D01*
X109832539Y-63294583D01*
X109878294Y-63347387D01*
X109889500Y-63398899D01*
X109889500Y-64159900D01*
X109869815Y-64226939D01*
X109817011Y-64272694D01*
X109765501Y-64283900D01*
X109542130Y-64283900D01*
X109542123Y-64283901D01*
X109482516Y-64290308D01*
X109347671Y-64340602D01*
X109347664Y-64340606D01*
X109232455Y-64426852D01*
X109232452Y-64426855D01*
X109146206Y-64542064D01*
X109146203Y-64542069D01*
X109116398Y-64621981D01*
X109074526Y-64677914D01*
X109009062Y-64702331D01*
X108940789Y-64687479D01*
X108912535Y-64666328D01*
X108862363Y-64616156D01*
X108862358Y-64616152D01*
X108684025Y-64486587D01*
X108684024Y-64486586D01*
X108684022Y-64486585D01*
X108566791Y-64426852D01*
X108487606Y-64386504D01*
X108487603Y-64386503D01*
X108277952Y-64318385D01*
X108169086Y-64301142D01*
X108060222Y-64283900D01*
X107839778Y-64283900D01*
X107767201Y-64295395D01*
X107622047Y-64318385D01*
X107412396Y-64386503D01*
X107412393Y-64386504D01*
X107215974Y-64486587D01*
X107037641Y-64616152D01*
X107037636Y-64616156D01*
X106881756Y-64772036D01*
X106881752Y-64772041D01*
X106752187Y-64950374D01*
X106678252Y-65095478D01*
X106630277Y-65146274D01*
X106562456Y-65163069D01*
X106496321Y-65140531D01*
X106457282Y-65095478D01*
X106436759Y-65055200D01*
X106423791Y-65037351D01*
X106325690Y-64902327D01*
X106192073Y-64768710D01*
X106039199Y-64657640D01*
X106031527Y-64653731D01*
X105870836Y-64571854D01*
X105691118Y-64513459D01*
X105504486Y-64483900D01*
X105504481Y-64483900D01*
X105315519Y-64483900D01*
X105315514Y-64483900D01*
X105128881Y-64513459D01*
X104949163Y-64571854D01*
X104780800Y-64657640D01*
X104719289Y-64702331D01*
X104627927Y-64768710D01*
X104627925Y-64768712D01*
X104627924Y-64768712D01*
X104494312Y-64902324D01*
X104494312Y-64902325D01*
X104494310Y-64902327D01*
X104459402Y-64950374D01*
X104383240Y-65055200D01*
X104297454Y-65223563D01*
X104257931Y-65345203D01*
X104218493Y-65402878D01*
X104154134Y-65430076D01*
X104085288Y-65418161D01*
X104033812Y-65370916D01*
X104022069Y-65345203D01*
X104005803Y-65295141D01*
X103982547Y-65223568D01*
X103982545Y-65223565D01*
X103982545Y-65223563D01*
X103896759Y-65055200D01*
X103883791Y-65037351D01*
X103785690Y-64902327D01*
X103652073Y-64768710D01*
X103499199Y-64657640D01*
X103491527Y-64653731D01*
X103330836Y-64571854D01*
X103151118Y-64513459D01*
X102964486Y-64483900D01*
X102964481Y-64483900D01*
X102775519Y-64483900D01*
X102775514Y-64483900D01*
X102588881Y-64513459D01*
X102409163Y-64571854D01*
X102240800Y-64657640D01*
X102179289Y-64702331D01*
X102087927Y-64768710D01*
X102087925Y-64768712D01*
X102087924Y-64768712D01*
X101954312Y-64902324D01*
X101954312Y-64902325D01*
X101954310Y-64902327D01*
X101919402Y-64950374D01*
X101843240Y-65055200D01*
X101757454Y-65223563D01*
X101699059Y-65403281D01*
X101669500Y-65589913D01*
X101669500Y-65778886D01*
X101699059Y-65965518D01*
X101757454Y-66145236D01*
X101821184Y-66270312D01*
X101843240Y-66313599D01*
X101954310Y-66466473D01*
X102087927Y-66600090D01*
X102240801Y-66711160D01*
X102310786Y-66746819D01*
X102409163Y-66796945D01*
X102409165Y-66796945D01*
X102409168Y-66796947D01*
X102500824Y-66826728D01*
X102588881Y-66855340D01*
X102775514Y-66884900D01*
X102775519Y-66884900D01*
X102964486Y-66884900D01*
X103151118Y-66855340D01*
X103330832Y-66796947D01*
X103499199Y-66711160D01*
X103652073Y-66600090D01*
X103785690Y-66466473D01*
X103896760Y-66313599D01*
X103982547Y-66145232D01*
X104022069Y-66023595D01*
X104061507Y-65965921D01*
X104125866Y-65938723D01*
X104194712Y-65950638D01*
X104246188Y-65997882D01*
X104257931Y-66023596D01*
X104297454Y-66145236D01*
X104361184Y-66270312D01*
X104383240Y-66313599D01*
X104494310Y-66466473D01*
X104627927Y-66600090D01*
X104780801Y-66711160D01*
X104850786Y-66746819D01*
X104949163Y-66796945D01*
X104949165Y-66796945D01*
X104949168Y-66796947D01*
X105040824Y-66826728D01*
X105128881Y-66855340D01*
X105315514Y-66884900D01*
X105315519Y-66884900D01*
X105504486Y-66884900D01*
X105691118Y-66855340D01*
X105870832Y-66796947D01*
X106039199Y-66711160D01*
X106192073Y-66600090D01*
X106325690Y-66466473D01*
X106436760Y-66313599D01*
X106457282Y-66273321D01*
X106505256Y-66222526D01*
X106573076Y-66205730D01*
X106639212Y-66228267D01*
X106678250Y-66273319D01*
X106750831Y-66415765D01*
X106752187Y-66418425D01*
X106881752Y-66596758D01*
X106881756Y-66596763D01*
X107037636Y-66752643D01*
X107037641Y-66752647D01*
X107193192Y-66865660D01*
X107215978Y-66882215D01*
X107344375Y-66947637D01*
X107412393Y-66982295D01*
X107412396Y-66982296D01*
X107483714Y-67005468D01*
X107622049Y-67050415D01*
X107839778Y-67084900D01*
X107839779Y-67084900D01*
X108060221Y-67084900D01*
X108060222Y-67084900D01*
X108277951Y-67050415D01*
X108487606Y-66982295D01*
X108684022Y-66882215D01*
X108862365Y-66752642D01*
X108912536Y-66702470D01*
X108973857Y-66668986D01*
X109043548Y-66673970D01*
X109099482Y-66715841D01*
X109116398Y-66746819D01*
X109146202Y-66826728D01*
X109146206Y-66826735D01*
X109232452Y-66941944D01*
X109232455Y-66941947D01*
X109347664Y-67028193D01*
X109347671Y-67028197D01*
X109392618Y-67044961D01*
X109482517Y-67078491D01*
X109542127Y-67084900D01*
X109765500Y-67084899D01*
X109832539Y-67104583D01*
X109878294Y-67157387D01*
X109889500Y-67208899D01*
X109889500Y-67461900D01*
X109869815Y-67528939D01*
X109817011Y-67574694D01*
X109765501Y-67585900D01*
X109542130Y-67585900D01*
X109542123Y-67585901D01*
X109482516Y-67592308D01*
X109347671Y-67642602D01*
X109347664Y-67642606D01*
X109232455Y-67728852D01*
X109232452Y-67728855D01*
X109146206Y-67844064D01*
X109146203Y-67844069D01*
X109116398Y-67923981D01*
X109074526Y-67979914D01*
X109009062Y-68004331D01*
X108940789Y-67989479D01*
X108912535Y-67968328D01*
X108862363Y-67918156D01*
X108862358Y-67918152D01*
X108684025Y-67788587D01*
X108684024Y-67788586D01*
X108684022Y-67788585D01*
X108566791Y-67728852D01*
X108487606Y-67688504D01*
X108487603Y-67688503D01*
X108277952Y-67620385D01*
X108169086Y-67603142D01*
X108060222Y-67585900D01*
X107839778Y-67585900D01*
X107784438Y-67594665D01*
X107622047Y-67620385D01*
X107412396Y-67688503D01*
X107412393Y-67688504D01*
X107215974Y-67788587D01*
X107037641Y-67918152D01*
X107037636Y-67918156D01*
X106881756Y-68074036D01*
X106881752Y-68074041D01*
X106752187Y-68252374D01*
X106678252Y-68397478D01*
X106630277Y-68448274D01*
X106562456Y-68465069D01*
X106496321Y-68442531D01*
X106457282Y-68397478D01*
X106436759Y-68357200D01*
X106430823Y-68349030D01*
X106325690Y-68204327D01*
X106192073Y-68070710D01*
X106039199Y-67959640D01*
X105870836Y-67873854D01*
X105691118Y-67815459D01*
X105504486Y-67785900D01*
X105504481Y-67785900D01*
X105315519Y-67785900D01*
X105315514Y-67785900D01*
X105128881Y-67815459D01*
X104949163Y-67873854D01*
X104780800Y-67959640D01*
X104752896Y-67979914D01*
X104627927Y-68070710D01*
X104627925Y-68070712D01*
X104627924Y-68070712D01*
X104494312Y-68204324D01*
X104494312Y-68204325D01*
X104494310Y-68204327D01*
X104487293Y-68213985D01*
X104383240Y-68357200D01*
X104297454Y-68525563D01*
X104257931Y-68647203D01*
X104218493Y-68704878D01*
X104154134Y-68732076D01*
X104085288Y-68720161D01*
X104033812Y-68672916D01*
X104022069Y-68647203D01*
X103982545Y-68525563D01*
X103917282Y-68397478D01*
X103896760Y-68357201D01*
X103785690Y-68204327D01*
X103652073Y-68070710D01*
X103499199Y-67959640D01*
X103330836Y-67873854D01*
X103151118Y-67815459D01*
X102964486Y-67785900D01*
X102964481Y-67785900D01*
X102775519Y-67785900D01*
X102775514Y-67785900D01*
X102588881Y-67815459D01*
X102409163Y-67873854D01*
X102240800Y-67959640D01*
X102212896Y-67979914D01*
X102087927Y-68070710D01*
X102087925Y-68070712D01*
X102087924Y-68070712D01*
X101954312Y-68204324D01*
X101954312Y-68204325D01*
X101954310Y-68204327D01*
X101947293Y-68213985D01*
X101843240Y-68357200D01*
X101757454Y-68525563D01*
X101699059Y-68705281D01*
X101669500Y-68891913D01*
X101669500Y-69080886D01*
X101699059Y-69267518D01*
X101757454Y-69447236D01*
X101822717Y-69575321D01*
X101843240Y-69615599D01*
X101954310Y-69768473D01*
X102087927Y-69902090D01*
X102240801Y-70013160D01*
X102310152Y-70048496D01*
X102409163Y-70098945D01*
X102409165Y-70098945D01*
X102409168Y-70098947D01*
X102500824Y-70128728D01*
X102588881Y-70157340D01*
X102775514Y-70186900D01*
X102775519Y-70186900D01*
X102964486Y-70186900D01*
X103151118Y-70157340D01*
X103330832Y-70098947D01*
X103499199Y-70013160D01*
X103652073Y-69902090D01*
X103785690Y-69768473D01*
X103896760Y-69615599D01*
X103982547Y-69447232D01*
X104022069Y-69325595D01*
X104061507Y-69267921D01*
X104125866Y-69240723D01*
X104194712Y-69252638D01*
X104246188Y-69299882D01*
X104257931Y-69325596D01*
X104297454Y-69447236D01*
X104362717Y-69575321D01*
X104383240Y-69615599D01*
X104494310Y-69768473D01*
X104627927Y-69902090D01*
X104780801Y-70013160D01*
X104850152Y-70048496D01*
X104949163Y-70098945D01*
X104949165Y-70098945D01*
X104949168Y-70098947D01*
X105040824Y-70128728D01*
X105128881Y-70157340D01*
X105315514Y-70186900D01*
X105315519Y-70186900D01*
X105504486Y-70186900D01*
X105691118Y-70157340D01*
X105870832Y-70098947D01*
X106039199Y-70013160D01*
X106192073Y-69902090D01*
X106325690Y-69768473D01*
X106436760Y-69615599D01*
X106457282Y-69575321D01*
X106505256Y-69524526D01*
X106573076Y-69507730D01*
X106639212Y-69530267D01*
X106678250Y-69575319D01*
X106731992Y-69680792D01*
X106752187Y-69720425D01*
X106881752Y-69898758D01*
X106881756Y-69898763D01*
X107037636Y-70054643D01*
X107037641Y-70054647D01*
X107193192Y-70167660D01*
X107215978Y-70184215D01*
X107344375Y-70249637D01*
X107412393Y-70284295D01*
X107412396Y-70284296D01*
X107517221Y-70318355D01*
X107622049Y-70352415D01*
X107839778Y-70386900D01*
X107839779Y-70386900D01*
X108060221Y-70386900D01*
X108060222Y-70386900D01*
X108277951Y-70352415D01*
X108487606Y-70284295D01*
X108684022Y-70184215D01*
X108862365Y-70054642D01*
X108912536Y-70004470D01*
X108973857Y-69970986D01*
X109043548Y-69975970D01*
X109099482Y-70017841D01*
X109116398Y-70048819D01*
X109146202Y-70128728D01*
X109146206Y-70128735D01*
X109232452Y-70243944D01*
X109232455Y-70243947D01*
X109347664Y-70330193D01*
X109347671Y-70330197D01*
X109392618Y-70346961D01*
X109482517Y-70380491D01*
X109542127Y-70386900D01*
X109765500Y-70386899D01*
X109832539Y-70406583D01*
X109878294Y-70459387D01*
X109889500Y-70510899D01*
X109889500Y-70763900D01*
X109869815Y-70830939D01*
X109817011Y-70876694D01*
X109765501Y-70887900D01*
X109542130Y-70887900D01*
X109542123Y-70887901D01*
X109482516Y-70894308D01*
X109347671Y-70944602D01*
X109347664Y-70944606D01*
X109232455Y-71030852D01*
X109232452Y-71030855D01*
X109146206Y-71146064D01*
X109146203Y-71146069D01*
X109116398Y-71225981D01*
X109074526Y-71281914D01*
X109009062Y-71306331D01*
X108940789Y-71291479D01*
X108912535Y-71270328D01*
X108862363Y-71220156D01*
X108862358Y-71220152D01*
X108684025Y-71090587D01*
X108684024Y-71090586D01*
X108684022Y-71090585D01*
X108621096Y-71058522D01*
X108487606Y-70990504D01*
X108487603Y-70990503D01*
X108277952Y-70922385D01*
X108169086Y-70905142D01*
X108060222Y-70887900D01*
X107839778Y-70887900D01*
X107767201Y-70899395D01*
X107622047Y-70922385D01*
X107412396Y-70990503D01*
X107412393Y-70990504D01*
X107215974Y-71090587D01*
X107037641Y-71220152D01*
X107037636Y-71220156D01*
X106881756Y-71376036D01*
X106881752Y-71376041D01*
X106752187Y-71554374D01*
X106678252Y-71699478D01*
X106630277Y-71750274D01*
X106562456Y-71767069D01*
X106496321Y-71744531D01*
X106457282Y-71699478D01*
X106436759Y-71659200D01*
X106325690Y-71506327D01*
X106192073Y-71372710D01*
X106039199Y-71261640D01*
X105870836Y-71175854D01*
X105691118Y-71117459D01*
X105504486Y-71087900D01*
X105504481Y-71087900D01*
X105315519Y-71087900D01*
X105315514Y-71087900D01*
X105128881Y-71117459D01*
X104949163Y-71175854D01*
X104780800Y-71261640D01*
X104693579Y-71325010D01*
X104627927Y-71372710D01*
X104627925Y-71372712D01*
X104627924Y-71372712D01*
X104494312Y-71506324D01*
X104494312Y-71506325D01*
X104494310Y-71506327D01*
X104462269Y-71550428D01*
X104383240Y-71659200D01*
X104297454Y-71827563D01*
X104257931Y-71949203D01*
X104218493Y-72006878D01*
X104154134Y-72034076D01*
X104085288Y-72022161D01*
X104033812Y-71974916D01*
X104022069Y-71949203D01*
X104000056Y-71881454D01*
X103982547Y-71827568D01*
X103982545Y-71827565D01*
X103982545Y-71827563D01*
X103925563Y-71715730D01*
X103896760Y-71659201D01*
X103785690Y-71506327D01*
X103652073Y-71372710D01*
X103499199Y-71261640D01*
X103330836Y-71175854D01*
X103151118Y-71117459D01*
X102964486Y-71087900D01*
X102964481Y-71087900D01*
X102775519Y-71087900D01*
X102775514Y-71087900D01*
X102588881Y-71117459D01*
X102409163Y-71175854D01*
X102240800Y-71261640D01*
X102153579Y-71325010D01*
X102087927Y-71372710D01*
X102087925Y-71372712D01*
X102087924Y-71372712D01*
X101954312Y-71506324D01*
X101954312Y-71506325D01*
X101954310Y-71506327D01*
X101922269Y-71550428D01*
X101843240Y-71659200D01*
X101757454Y-71827563D01*
X101699059Y-72007281D01*
X101669500Y-72193913D01*
X101669500Y-72382886D01*
X101699059Y-72569518D01*
X101757454Y-72749236D01*
X101788278Y-72809730D01*
X101843240Y-72917599D01*
X101954310Y-73070473D01*
X102087927Y-73204090D01*
X102240801Y-73315160D01*
X102310786Y-73350819D01*
X102409163Y-73400945D01*
X102409165Y-73400945D01*
X102409168Y-73400947D01*
X102500824Y-73430728D01*
X102588881Y-73459340D01*
X102775514Y-73488900D01*
X102775519Y-73488900D01*
X102964486Y-73488900D01*
X103151118Y-73459340D01*
X103154980Y-73458085D01*
X103330832Y-73400947D01*
X103499199Y-73315160D01*
X103652073Y-73204090D01*
X103785690Y-73070473D01*
X103896760Y-72917599D01*
X103982547Y-72749232D01*
X104022069Y-72627595D01*
X104061507Y-72569921D01*
X104125866Y-72542723D01*
X104194712Y-72554638D01*
X104246188Y-72601882D01*
X104257930Y-72627594D01*
X104266148Y-72652886D01*
X104297454Y-72749236D01*
X104328278Y-72809730D01*
X104383240Y-72917599D01*
X104494310Y-73070473D01*
X104627927Y-73204090D01*
X104780801Y-73315160D01*
X104850786Y-73350819D01*
X104949163Y-73400945D01*
X104949165Y-73400945D01*
X104949168Y-73400947D01*
X105040824Y-73430728D01*
X105128881Y-73459340D01*
X105315514Y-73488900D01*
X105315519Y-73488900D01*
X105504486Y-73488900D01*
X105691118Y-73459340D01*
X105694980Y-73458085D01*
X105870832Y-73400947D01*
X106039199Y-73315160D01*
X106192073Y-73204090D01*
X106325690Y-73070473D01*
X106436760Y-72917599D01*
X106457282Y-72877321D01*
X106505256Y-72826526D01*
X106573076Y-72809730D01*
X106639212Y-72832267D01*
X106678250Y-72877319D01*
X106743181Y-73004751D01*
X106752187Y-73022425D01*
X106881752Y-73200758D01*
X106881756Y-73200763D01*
X107037636Y-73356643D01*
X107037641Y-73356647D01*
X107193192Y-73469660D01*
X107215978Y-73486215D01*
X107344375Y-73551637D01*
X107412393Y-73586295D01*
X107412396Y-73586296D01*
X107517221Y-73620355D01*
X107622049Y-73654415D01*
X107839778Y-73688900D01*
X107839779Y-73688900D01*
X108060221Y-73688900D01*
X108060222Y-73688900D01*
X108277951Y-73654415D01*
X108487606Y-73586295D01*
X108684022Y-73486215D01*
X108862365Y-73356642D01*
X108912536Y-73306470D01*
X108973857Y-73272986D01*
X109043548Y-73277970D01*
X109099482Y-73319841D01*
X109116398Y-73350819D01*
X109146202Y-73430728D01*
X109146206Y-73430735D01*
X109232452Y-73545944D01*
X109232455Y-73545947D01*
X109347664Y-73632193D01*
X109347671Y-73632197D01*
X109392618Y-73648961D01*
X109482517Y-73682491D01*
X109542127Y-73688900D01*
X109765500Y-73688899D01*
X109832539Y-73708583D01*
X109878294Y-73761387D01*
X109889500Y-73812899D01*
X109889500Y-74065900D01*
X109869815Y-74132939D01*
X109817011Y-74178694D01*
X109765501Y-74189900D01*
X109542130Y-74189900D01*
X109542123Y-74189901D01*
X109482516Y-74196308D01*
X109347671Y-74246602D01*
X109347664Y-74246606D01*
X109232455Y-74332852D01*
X109232452Y-74332855D01*
X109146206Y-74448064D01*
X109146203Y-74448069D01*
X109116398Y-74527981D01*
X109074526Y-74583914D01*
X109009062Y-74608331D01*
X108940789Y-74593479D01*
X108912535Y-74572328D01*
X108862363Y-74522156D01*
X108862358Y-74522152D01*
X108684025Y-74392587D01*
X108684024Y-74392586D01*
X108684022Y-74392585D01*
X108566791Y-74332852D01*
X108487606Y-74292504D01*
X108487603Y-74292503D01*
X108277952Y-74224385D01*
X108169086Y-74207142D01*
X108060222Y-74189900D01*
X107839778Y-74189900D01*
X107767201Y-74201395D01*
X107622047Y-74224385D01*
X107412396Y-74292503D01*
X107412393Y-74292504D01*
X107215974Y-74392587D01*
X107037641Y-74522152D01*
X107037636Y-74522156D01*
X106881756Y-74678036D01*
X106881752Y-74678041D01*
X106752187Y-74856374D01*
X106678252Y-75001478D01*
X106630277Y-75052274D01*
X106562456Y-75069069D01*
X106496321Y-75046531D01*
X106457282Y-75001478D01*
X106446363Y-74980048D01*
X106436760Y-74961201D01*
X106325690Y-74808327D01*
X106192073Y-74674710D01*
X106039199Y-74563640D01*
X105870836Y-74477854D01*
X105691118Y-74419459D01*
X105504486Y-74389900D01*
X105504481Y-74389900D01*
X105315519Y-74389900D01*
X105315514Y-74389900D01*
X105128881Y-74419459D01*
X104949163Y-74477854D01*
X104780800Y-74563640D01*
X104719289Y-74608331D01*
X104627927Y-74674710D01*
X104627925Y-74674712D01*
X104627924Y-74674712D01*
X104494312Y-74808324D01*
X104494312Y-74808325D01*
X104494310Y-74808327D01*
X104446610Y-74873979D01*
X104383240Y-74961200D01*
X104297454Y-75129563D01*
X104257931Y-75251203D01*
X104218493Y-75308878D01*
X104154134Y-75336076D01*
X104085288Y-75324161D01*
X104033812Y-75276916D01*
X104022069Y-75251203D01*
X104003210Y-75193162D01*
X103982547Y-75129568D01*
X103982545Y-75129565D01*
X103982545Y-75129563D01*
X103906363Y-74980048D01*
X103896760Y-74961201D01*
X103785690Y-74808327D01*
X103652073Y-74674710D01*
X103499199Y-74563640D01*
X103330836Y-74477854D01*
X103151118Y-74419459D01*
X102964486Y-74389900D01*
X102964481Y-74389900D01*
X102775519Y-74389900D01*
X102775514Y-74389900D01*
X102588881Y-74419459D01*
X102409163Y-74477854D01*
X102240800Y-74563640D01*
X102179289Y-74608331D01*
X102087927Y-74674710D01*
X102087925Y-74674712D01*
X102087924Y-74674712D01*
X101954312Y-74808324D01*
X101954312Y-74808325D01*
X101954310Y-74808327D01*
X101906610Y-74873979D01*
X101843240Y-74961200D01*
X101757454Y-75129563D01*
X101699059Y-75309281D01*
X101669500Y-75495913D01*
X101669500Y-75684886D01*
X101699059Y-75871518D01*
X101757454Y-76051236D01*
X101821935Y-76177785D01*
X101843240Y-76219599D01*
X101954310Y-76372473D01*
X102087927Y-76506090D01*
X102240801Y-76617160D01*
X102306390Y-76650579D01*
X102357186Y-76698553D01*
X102373981Y-76766374D01*
X102351444Y-76832509D01*
X102306390Y-76871549D01*
X102188644Y-76931543D01*
X102144077Y-76963923D01*
X102144077Y-76963924D01*
X102823554Y-77643400D01*
X102817339Y-77643400D01*
X102715606Y-77670659D01*
X102624394Y-77723320D01*
X102549920Y-77797794D01*
X102497259Y-77889006D01*
X102470000Y-77990739D01*
X102470000Y-77996953D01*
X101790524Y-77317477D01*
X101790523Y-77317477D01*
X101758143Y-77362044D01*
X101665244Y-77544368D01*
X101629631Y-77653975D01*
X101590193Y-77711650D01*
X101525834Y-77738848D01*
X101456988Y-77726933D01*
X101405512Y-77679689D01*
X101387700Y-77615656D01*
X101387700Y-77441745D01*
X101387700Y-77441743D01*
X101365726Y-77359734D01*
X101346777Y-77289015D01*
X101317839Y-77238895D01*
X101267720Y-77152084D01*
X101155916Y-77040280D01*
X101155915Y-77040279D01*
X101151585Y-77035949D01*
X101151574Y-77035939D01*
X100124028Y-76008393D01*
X100090543Y-75947070D01*
X100095527Y-75877378D01*
X100111391Y-75847827D01*
X100121304Y-75834182D01*
X100172287Y-75764010D01*
X100265220Y-75581619D01*
X100328477Y-75386934D01*
X100360500Y-75184752D01*
X100360500Y-74980048D01*
X100338715Y-74842504D01*
X100328477Y-74777865D01*
X100278960Y-74625468D01*
X100265220Y-74583181D01*
X100265218Y-74583178D01*
X100265218Y-74583176D01*
X100211553Y-74477854D01*
X100172287Y-74400790D01*
X100122930Y-74332855D01*
X100051971Y-74235186D01*
X99907213Y-74090428D01*
X99741614Y-73970115D01*
X99735006Y-73966748D01*
X99648917Y-73922883D01*
X99598123Y-73874911D01*
X99581328Y-73807090D01*
X99603865Y-73740955D01*
X99648917Y-73701916D01*
X99741610Y-73654687D01*
X99772565Y-73632197D01*
X99907213Y-73534371D01*
X99907215Y-73534368D01*
X99907219Y-73534366D01*
X100051966Y-73389619D01*
X100051968Y-73389615D01*
X100051971Y-73389613D01*
X100112375Y-73306472D01*
X100172287Y-73224010D01*
X100265220Y-73041619D01*
X100328477Y-72846934D01*
X100360500Y-72644752D01*
X100360500Y-72440048D01*
X100351446Y-72382886D01*
X100328477Y-72237865D01*
X100269586Y-72056619D01*
X100265220Y-72043181D01*
X100265218Y-72043178D01*
X100265218Y-72043176D01*
X100217336Y-71949203D01*
X100172287Y-71860790D01*
X100148150Y-71827568D01*
X100051971Y-71695186D01*
X99907213Y-71550428D01*
X99741614Y-71430115D01*
X99665268Y-71391215D01*
X99648917Y-71382883D01*
X99598123Y-71334911D01*
X99581328Y-71267090D01*
X99603865Y-71200955D01*
X99648917Y-71161916D01*
X99741610Y-71114687D01*
X99774784Y-71090585D01*
X99907213Y-70994371D01*
X99907215Y-70994368D01*
X99907219Y-70994366D01*
X100051966Y-70849619D01*
X100051968Y-70849615D01*
X100051971Y-70849613D01*
X100121445Y-70753988D01*
X100172287Y-70684010D01*
X100265220Y-70501619D01*
X100328477Y-70306934D01*
X100360500Y-70104752D01*
X100360500Y-69900048D01*
X100351695Y-69844458D01*
X100328477Y-69697865D01*
X100278960Y-69545468D01*
X100265220Y-69503181D01*
X100265218Y-69503178D01*
X100265218Y-69503176D01*
X100202295Y-69379684D01*
X100172287Y-69320790D01*
X100133846Y-69267880D01*
X100051971Y-69155186D01*
X99907213Y-69010428D01*
X99741614Y-68890115D01*
X99665268Y-68851215D01*
X99648917Y-68842883D01*
X99598123Y-68794911D01*
X99581328Y-68727090D01*
X99603865Y-68660955D01*
X99648917Y-68621916D01*
X99741610Y-68574687D01*
X99809224Y-68525563D01*
X99907213Y-68454371D01*
X99907215Y-68454368D01*
X99907219Y-68454366D01*
X100051966Y-68309619D01*
X100051968Y-68309615D01*
X100051971Y-68309613D01*
X100121445Y-68213988D01*
X100172287Y-68144010D01*
X100265220Y-67961619D01*
X100328477Y-67766934D01*
X100360500Y-67564752D01*
X100360500Y-67360048D01*
X100328477Y-67157866D01*
X100328321Y-67157387D01*
X100271431Y-66982296D01*
X100265220Y-66963181D01*
X100265218Y-66963178D01*
X100265218Y-66963176D01*
X100223964Y-66882212D01*
X100172287Y-66780790D01*
X100151837Y-66752643D01*
X100051971Y-66615186D01*
X99907213Y-66470428D01*
X99741614Y-66350115D01*
X99669943Y-66313597D01*
X99648917Y-66302883D01*
X99598123Y-66254911D01*
X99581328Y-66187090D01*
X99603865Y-66120955D01*
X99648917Y-66081916D01*
X99741610Y-66034687D01*
X99836814Y-65965518D01*
X99907213Y-65914371D01*
X99907215Y-65914368D01*
X99907219Y-65914366D01*
X100051966Y-65769619D01*
X100051968Y-65769615D01*
X100051971Y-65769613D01*
X100121445Y-65673988D01*
X100172287Y-65604010D01*
X100265220Y-65421619D01*
X100328477Y-65226934D01*
X100360500Y-65024752D01*
X100360500Y-64820048D01*
X100337830Y-64676916D01*
X100328477Y-64617865D01*
X100272192Y-64444640D01*
X100265220Y-64423181D01*
X100265218Y-64423178D01*
X100265218Y-64423176D01*
X100223144Y-64340602D01*
X100172287Y-64240790D01*
X100121447Y-64170814D01*
X100051971Y-64075186D01*
X99907213Y-63930428D01*
X99741611Y-63810113D01*
X99648369Y-63762603D01*
X99597574Y-63714629D01*
X99580779Y-63646807D01*
X99603317Y-63580673D01*
X99648371Y-63541634D01*
X99741347Y-63494261D01*
X99906894Y-63373982D01*
X99906895Y-63373982D01*
X100051582Y-63229295D01*
X100051582Y-63229294D01*
X100171859Y-63063749D01*
X100264755Y-62881429D01*
X100327990Y-62686813D01*
X100336609Y-62632400D01*
X99375686Y-62632400D01*
X99380080Y-62628006D01*
X99432741Y-62536794D01*
X99460000Y-62435061D01*
X99460000Y-62329739D01*
X99432741Y-62228006D01*
X99380080Y-62136794D01*
X99375686Y-62132400D01*
X100336609Y-62132400D01*
X100327990Y-62077986D01*
X100264755Y-61883370D01*
X100171859Y-61701050D01*
X100051582Y-61535505D01*
X100051582Y-61535504D01*
X99906895Y-61390817D01*
X99741349Y-61270540D01*
X99648370Y-61223165D01*
X99597574Y-61175190D01*
X99580779Y-61107369D01*
X99603316Y-61041235D01*
X99648370Y-61002195D01*
X99648920Y-61001915D01*
X99741610Y-60954687D01*
X99778740Y-60927711D01*
X99907213Y-60834371D01*
X99907215Y-60834368D01*
X99907219Y-60834366D01*
X100051966Y-60689619D01*
X100051968Y-60689615D01*
X100051971Y-60689613D01*
X100121445Y-60593988D01*
X100172287Y-60524010D01*
X100265220Y-60341619D01*
X100328477Y-60146934D01*
X100360500Y-59944752D01*
X100360500Y-59740048D01*
X100332295Y-59561970D01*
X100328477Y-59537865D01*
X100299127Y-59447537D01*
X100265220Y-59343181D01*
X100265218Y-59343178D01*
X100265218Y-59343176D01*
X100193079Y-59201597D01*
X100172287Y-59160790D01*
X100164556Y-59150149D01*
X100051971Y-58995186D01*
X99907213Y-58850428D01*
X99741614Y-58730115D01*
X99735006Y-58726748D01*
X99648917Y-58682883D01*
X99598123Y-58634911D01*
X99581328Y-58567090D01*
X99603865Y-58500955D01*
X99648917Y-58461916D01*
X99741610Y-58414687D01*
X99837501Y-58345019D01*
X99907213Y-58294371D01*
X99907215Y-58294368D01*
X99907219Y-58294366D01*
X100051966Y-58149619D01*
X100051968Y-58149615D01*
X100051971Y-58149613D01*
X100121445Y-58053988D01*
X100172287Y-57984010D01*
X100265220Y-57801619D01*
X100328477Y-57606934D01*
X100360500Y-57404752D01*
X100360500Y-57200048D01*
X100336402Y-57047900D01*
X100328477Y-56997865D01*
X100266742Y-56807865D01*
X100265220Y-56803181D01*
X100265218Y-56803178D01*
X100265218Y-56803176D01*
X100207848Y-56690583D01*
X100172287Y-56620790D01*
X100164556Y-56610149D01*
X100051971Y-56455186D01*
X99907213Y-56310428D01*
X99741614Y-56190115D01*
X99727175Y-56182758D01*
X99648917Y-56142883D01*
X99598123Y-56094911D01*
X99581328Y-56027090D01*
X99603865Y-55960955D01*
X99648917Y-55921916D01*
X99741610Y-55874687D01*
X99824772Y-55814267D01*
X99907213Y-55754371D01*
X99907215Y-55754368D01*
X99907219Y-55754366D01*
X100051966Y-55609619D01*
X100051968Y-55609615D01*
X100051971Y-55609613D01*
X100121445Y-55513988D01*
X100172287Y-55444010D01*
X100265220Y-55261619D01*
X100328477Y-55066934D01*
X100360500Y-54864752D01*
X100360500Y-54660048D01*
X100333301Y-54488324D01*
X100328477Y-54457865D01*
X100278960Y-54305468D01*
X100265220Y-54263181D01*
X100265218Y-54263178D01*
X100265218Y-54263176D01*
X100211553Y-54157854D01*
X100172287Y-54080790D01*
X100122930Y-54012855D01*
X100051971Y-53915186D01*
X99907213Y-53770428D01*
X99741614Y-53650115D01*
X99679929Y-53618685D01*
X99648917Y-53602883D01*
X99598123Y-53554911D01*
X99581328Y-53487090D01*
X99603865Y-53420955D01*
X99648917Y-53381916D01*
X99741610Y-53334687D01*
X99772565Y-53312197D01*
X99907213Y-53214371D01*
X99907215Y-53214368D01*
X99907219Y-53214366D01*
X100051966Y-53069619D01*
X100051968Y-53069615D01*
X100051971Y-53069613D01*
X100112375Y-52986472D01*
X100172287Y-52904010D01*
X100265220Y-52721619D01*
X100328477Y-52526934D01*
X100360500Y-52324752D01*
X100360500Y-52120048D01*
X100337810Y-51976794D01*
X100328478Y-51917872D01*
X100328477Y-51917871D01*
X100328477Y-51917866D01*
X100323825Y-51903551D01*
X100321832Y-51833712D01*
X100354075Y-51777558D01*
X101177416Y-50954219D01*
X101238739Y-50920734D01*
X101265097Y-50917900D01*
X101953375Y-50917900D01*
X102020414Y-50937585D01*
G37*
%TD.AperFunction*%
%TA.AperFunction,Conductor*%
G36*
X104194712Y-75856638D02*
G01*
X104246188Y-75903882D01*
X104257930Y-75929594D01*
X104265308Y-75952301D01*
X104297454Y-76051236D01*
X104361935Y-76177785D01*
X104383240Y-76219599D01*
X104494310Y-76372473D01*
X104627927Y-76506090D01*
X104780801Y-76617160D01*
X104846390Y-76650579D01*
X104897186Y-76698553D01*
X104913981Y-76766374D01*
X104891444Y-76832509D01*
X104846390Y-76871549D01*
X104728644Y-76931543D01*
X104684077Y-76963923D01*
X104684077Y-76963924D01*
X105363554Y-77643400D01*
X105357339Y-77643400D01*
X105255606Y-77670659D01*
X105164394Y-77723320D01*
X105089920Y-77797794D01*
X105037259Y-77889006D01*
X105010000Y-77990739D01*
X105010000Y-77996953D01*
X104330524Y-77317477D01*
X104330523Y-77317477D01*
X104298143Y-77362044D01*
X104250485Y-77455580D01*
X104202510Y-77506376D01*
X104134689Y-77523171D01*
X104068554Y-77500633D01*
X104029515Y-77455580D01*
X103981859Y-77362050D01*
X103949474Y-77317477D01*
X103949474Y-77317476D01*
X103270000Y-77996951D01*
X103270000Y-77990739D01*
X103242741Y-77889006D01*
X103190080Y-77797794D01*
X103115606Y-77723320D01*
X103024394Y-77670659D01*
X102922661Y-77643400D01*
X102916446Y-77643400D01*
X103595922Y-76963924D01*
X103595921Y-76963923D01*
X103551359Y-76931547D01*
X103551350Y-76931541D01*
X103433609Y-76871549D01*
X103382813Y-76823574D01*
X103366018Y-76755753D01*
X103388555Y-76689618D01*
X103433610Y-76650579D01*
X103439418Y-76647620D01*
X103499199Y-76617160D01*
X103652073Y-76506090D01*
X103785690Y-76372473D01*
X103896760Y-76219599D01*
X103982547Y-76051232D01*
X104022069Y-75929595D01*
X104061507Y-75871921D01*
X104125866Y-75844723D01*
X104194712Y-75856638D01*
G37*
%TD.AperFunction*%
%TA.AperFunction,Conductor*%
G36*
X92305945Y-63422207D02*
G01*
X92335298Y-63429033D01*
X92341085Y-63433430D01*
X92343799Y-63434297D01*
X92346450Y-63437506D01*
X92362005Y-63449325D01*
X97009735Y-68097055D01*
X97009764Y-68097086D01*
X97152214Y-68239536D01*
X97152218Y-68239539D01*
X97316082Y-68349030D01*
X97316084Y-68349030D01*
X97316086Y-68349032D01*
X97430528Y-68396435D01*
X97498164Y-68424451D01*
X97594812Y-68443675D01*
X97672684Y-68459165D01*
X97691458Y-68462900D01*
X97691459Y-68462900D01*
X97691460Y-68462900D01*
X97888540Y-68462900D01*
X98184238Y-68462900D01*
X98251277Y-68482585D01*
X98257119Y-68486579D01*
X98378390Y-68574687D01*
X98469840Y-68621283D01*
X98471080Y-68621915D01*
X98521876Y-68669890D01*
X98538671Y-68737711D01*
X98516134Y-68803846D01*
X98471080Y-68842885D01*
X98378386Y-68890115D01*
X98212786Y-69010428D01*
X98068028Y-69155186D01*
X97947715Y-69320786D01*
X97854781Y-69503176D01*
X97791522Y-69697865D01*
X97761496Y-69887448D01*
X97759500Y-69900048D01*
X97759500Y-70104752D01*
X97763298Y-70128731D01*
X97791522Y-70306934D01*
X97854781Y-70501623D01*
X97947715Y-70684013D01*
X98068028Y-70849613D01*
X98212786Y-70994371D01*
X98345216Y-71090585D01*
X98378390Y-71114687D01*
X98469840Y-71161283D01*
X98471080Y-71161915D01*
X98521876Y-71209890D01*
X98538671Y-71277711D01*
X98516134Y-71343846D01*
X98471080Y-71382885D01*
X98378386Y-71430115D01*
X98212786Y-71550428D01*
X98068028Y-71695186D01*
X97947715Y-71860786D01*
X97854781Y-72043176D01*
X97791522Y-72237865D01*
X97759500Y-72440048D01*
X97759500Y-72644751D01*
X97791522Y-72846934D01*
X97854781Y-73041623D01*
X97886862Y-73104584D01*
X97939012Y-73206934D01*
X97947715Y-73224013D01*
X98068028Y-73389613D01*
X98212786Y-73534371D01*
X98347435Y-73632197D01*
X98378390Y-73654687D01*
X98445533Y-73688898D01*
X98471080Y-73701915D01*
X98521876Y-73749890D01*
X98538671Y-73817711D01*
X98516134Y-73883846D01*
X98471080Y-73922885D01*
X98378386Y-73970115D01*
X98212786Y-74090428D01*
X98068028Y-74235186D01*
X97947715Y-74400786D01*
X97854781Y-74583176D01*
X97791522Y-74777865D01*
X97761495Y-74967451D01*
X97759500Y-74980048D01*
X97759500Y-75184752D01*
X97763543Y-75210276D01*
X97754587Y-75279569D01*
X97709590Y-75333020D01*
X97642838Y-75353659D01*
X97575524Y-75334933D01*
X97553388Y-75317353D01*
X96344019Y-74107984D01*
X96310534Y-74046661D01*
X96307700Y-74020303D01*
X96307700Y-71599745D01*
X96307700Y-71599743D01*
X96266777Y-71447016D01*
X96234561Y-71391215D01*
X96187724Y-71310090D01*
X96187718Y-71310082D01*
X96075917Y-71198281D01*
X96075912Y-71198277D01*
X95969857Y-71137047D01*
X95944176Y-71117341D01*
X92734077Y-67907242D01*
X92700592Y-67845919D01*
X92703828Y-67781241D01*
X92708477Y-67766934D01*
X92740500Y-67564752D01*
X92740500Y-67360048D01*
X92708477Y-67157866D01*
X92708321Y-67157387D01*
X92651431Y-66982296D01*
X92645220Y-66963181D01*
X92645218Y-66963178D01*
X92645218Y-66963176D01*
X92603964Y-66882212D01*
X92552287Y-66780790D01*
X92531837Y-66752643D01*
X92431971Y-66615186D01*
X92287213Y-66470428D01*
X92121611Y-66350113D01*
X92028369Y-66302603D01*
X91977574Y-66254629D01*
X91960779Y-66186807D01*
X91983317Y-66120673D01*
X92028371Y-66081634D01*
X92121347Y-66034261D01*
X92286894Y-65913982D01*
X92286895Y-65913982D01*
X92431582Y-65769295D01*
X92431582Y-65769294D01*
X92551859Y-65603749D01*
X92644755Y-65421429D01*
X92707990Y-65226813D01*
X92716609Y-65172400D01*
X91755686Y-65172400D01*
X91760080Y-65168006D01*
X91812741Y-65076794D01*
X91840000Y-64975061D01*
X91840000Y-64869739D01*
X91812741Y-64768006D01*
X91760080Y-64676794D01*
X91755686Y-64672400D01*
X92716609Y-64672400D01*
X92707990Y-64617986D01*
X92644755Y-64423370D01*
X92551859Y-64241050D01*
X92431582Y-64075505D01*
X92431582Y-64075504D01*
X92286895Y-63930817D01*
X92121349Y-63810540D01*
X92028370Y-63763165D01*
X92022664Y-63757776D01*
X92015190Y-63755389D01*
X91997624Y-63734127D01*
X91977574Y-63715190D01*
X91975687Y-63707573D01*
X91970690Y-63701524D01*
X91967407Y-63674137D01*
X91960779Y-63647369D01*
X91963309Y-63639942D01*
X91962376Y-63632150D01*
X91974420Y-63607337D01*
X91983316Y-63581235D01*
X91990234Y-63574760D01*
X91992888Y-63569295D01*
X92010231Y-63556048D01*
X92020098Y-63546816D01*
X92024142Y-63544349D01*
X92121610Y-63494687D01*
X92205495Y-63433740D01*
X92209757Y-63431142D01*
X92238862Y-63423334D01*
X92267244Y-63413208D01*
X92272263Y-63414375D01*
X92277241Y-63413040D01*
X92305945Y-63422207D01*
G37*
%TD.AperFunction*%
%TA.AperFunction,Conductor*%
G36*
X131139139Y-46113185D02*
G01*
X131184894Y-46165989D01*
X131196100Y-46217500D01*
X131196100Y-52539902D01*
X131176415Y-52606941D01*
X131123611Y-52652696D01*
X131054453Y-52662640D01*
X130990897Y-52633615D01*
X130984419Y-52627583D01*
X130834077Y-52477241D01*
X130800592Y-52415918D01*
X130803827Y-52351242D01*
X130808477Y-52336934D01*
X130810407Y-52324752D01*
X130828077Y-52213186D01*
X130840500Y-52134752D01*
X130840500Y-51930048D01*
X130816347Y-51777556D01*
X130808477Y-51727865D01*
X130746645Y-51537568D01*
X130745220Y-51533181D01*
X130745218Y-51533178D01*
X130745218Y-51533176D01*
X130708986Y-51462068D01*
X130652287Y-51350790D01*
X130626299Y-51315020D01*
X130531971Y-51185186D01*
X130387213Y-51040428D01*
X130221613Y-50920115D01*
X130221612Y-50920114D01*
X130221610Y-50920113D01*
X130157839Y-50887620D01*
X130039223Y-50827181D01*
X129844534Y-50763922D01*
X129669995Y-50736278D01*
X129642352Y-50731900D01*
X129437648Y-50731900D01*
X129413329Y-50735751D01*
X129235465Y-50763922D01*
X129040776Y-50827181D01*
X128858386Y-50920115D01*
X128692786Y-51040428D01*
X128548028Y-51185186D01*
X128427715Y-51350786D01*
X128334781Y-51533176D01*
X128271522Y-51727865D01*
X128239500Y-51930048D01*
X128239500Y-52134751D01*
X128271522Y-52336934D01*
X128334781Y-52531623D01*
X128387217Y-52634532D01*
X128418215Y-52695370D01*
X128427715Y-52714013D01*
X128548028Y-52879613D01*
X128692786Y-53024371D01*
X128828404Y-53122901D01*
X128858390Y-53144687D01*
X128947212Y-53189944D01*
X128951080Y-53191915D01*
X129001876Y-53239890D01*
X129018671Y-53307711D01*
X128996134Y-53373846D01*
X128951080Y-53412885D01*
X128858386Y-53460115D01*
X128692786Y-53580428D01*
X128548028Y-53725186D01*
X128427715Y-53890786D01*
X128334781Y-54073176D01*
X128271522Y-54267865D01*
X128239500Y-54470048D01*
X128239500Y-54674751D01*
X128271522Y-54876934D01*
X128334781Y-55071623D01*
X128398691Y-55197053D01*
X128418215Y-55235370D01*
X128427715Y-55254013D01*
X128548028Y-55419613D01*
X128692786Y-55564371D01*
X128828079Y-55662665D01*
X128858390Y-55684687D01*
X128949740Y-55731232D01*
X128951080Y-55731915D01*
X129001876Y-55779890D01*
X129018671Y-55847711D01*
X128996134Y-55913846D01*
X128951080Y-55952885D01*
X128858386Y-56000115D01*
X128692786Y-56120428D01*
X128548028Y-56265186D01*
X128427715Y-56430786D01*
X128334781Y-56613176D01*
X128271522Y-56807865D01*
X128239500Y-57010048D01*
X128239500Y-57214751D01*
X128271522Y-57416934D01*
X128334781Y-57611623D01*
X128376049Y-57692614D01*
X128425836Y-57790327D01*
X128427715Y-57794013D01*
X128548028Y-57959613D01*
X128692786Y-58104371D01*
X128840933Y-58212004D01*
X128858390Y-58224687D01*
X128949840Y-58271283D01*
X128951080Y-58271915D01*
X129001876Y-58319890D01*
X129018671Y-58387711D01*
X128996134Y-58453846D01*
X128951080Y-58492885D01*
X128858386Y-58540115D01*
X128692786Y-58660428D01*
X128548028Y-58805186D01*
X128427715Y-58970786D01*
X128334781Y-59153176D01*
X128271522Y-59347865D01*
X128239500Y-59550048D01*
X128239500Y-59754751D01*
X128271522Y-59956934D01*
X128334781Y-60151623D01*
X128376049Y-60232614D01*
X128418215Y-60315370D01*
X128427715Y-60334013D01*
X128548028Y-60499613D01*
X128692786Y-60644371D01*
X128840933Y-60752004D01*
X128858390Y-60764687D01*
X128949840Y-60811283D01*
X128951080Y-60811915D01*
X129001876Y-60859890D01*
X129018671Y-60927711D01*
X128996134Y-60993846D01*
X128951080Y-61032885D01*
X128858386Y-61080115D01*
X128692786Y-61200428D01*
X128548028Y-61345186D01*
X128427713Y-61510788D01*
X128386508Y-61591656D01*
X128374070Y-61604824D01*
X128365770Y-61620927D01*
X128338915Y-61642047D01*
X128338533Y-61642452D01*
X128338028Y-61642745D01*
X128312944Y-61657227D01*
X128305095Y-61661760D01*
X128261689Y-61686820D01*
X128218285Y-61711879D01*
X128218282Y-61711881D01*
X127154481Y-62775682D01*
X127154475Y-62775690D01*
X127107929Y-62856312D01*
X127107929Y-62856313D01*
X127075423Y-62912614D01*
X127075423Y-62912615D01*
X127034499Y-63065343D01*
X127034499Y-63065345D01*
X127034499Y-63233446D01*
X127034500Y-63233459D01*
X127034500Y-67756730D01*
X127034499Y-67756748D01*
X127034499Y-67922454D01*
X127034498Y-67922454D01*
X127035114Y-67924752D01*
X127075423Y-68075185D01*
X127081128Y-68085066D01*
X127081129Y-68085067D01*
X127081129Y-68085068D01*
X127154477Y-68212112D01*
X127154481Y-68212117D01*
X127273349Y-68330985D01*
X127273355Y-68330990D01*
X128420145Y-69477780D01*
X128435074Y-69492711D01*
X128451127Y-69522114D01*
X128468553Y-69554028D01*
X128468552Y-69554031D01*
X128468555Y-69554036D01*
X128466024Y-69589381D01*
X128463569Y-69623720D01*
X128463566Y-69623725D01*
X128463566Y-69623727D01*
X128463563Y-69623730D01*
X128447708Y-69653268D01*
X128427713Y-69680790D01*
X128423321Y-69689411D01*
X128420883Y-69694195D01*
X128372909Y-69744991D01*
X128310398Y-69761900D01*
X117711500Y-69761900D01*
X117644461Y-69742215D01*
X117598706Y-69689411D01*
X117587500Y-69637900D01*
X117587500Y-56613241D01*
X117587392Y-56612842D01*
X117575456Y-56568295D01*
X117546577Y-56460516D01*
X117535506Y-56441340D01*
X117467520Y-56323583D01*
X117466123Y-56321762D01*
X117465421Y-56319948D01*
X117463457Y-56316545D01*
X117463987Y-56316238D01*
X117440930Y-56256593D01*
X117440500Y-56246278D01*
X117440500Y-51127345D01*
X117440500Y-51127343D01*
X117399577Y-50974616D01*
X117386751Y-50952400D01*
X117320524Y-50837690D01*
X117320521Y-50837686D01*
X117320520Y-50837684D01*
X117208716Y-50725880D01*
X117208715Y-50725879D01*
X117204385Y-50721549D01*
X117204374Y-50721539D01*
X115803590Y-49320755D01*
X115803588Y-49320752D01*
X115684717Y-49201881D01*
X115684716Y-49201880D01*
X115597904Y-49151760D01*
X115597904Y-49151759D01*
X115597900Y-49151758D01*
X115547785Y-49122823D01*
X115395057Y-49081899D01*
X115236943Y-49081899D01*
X115229347Y-49081899D01*
X115229331Y-49081900D01*
X106652595Y-49081900D01*
X106585556Y-49062215D01*
X106539801Y-49009411D01*
X106529857Y-48940253D01*
X106542110Y-48901605D01*
X106614755Y-48759029D01*
X106677990Y-48564413D01*
X106686609Y-48510000D01*
X105725686Y-48510000D01*
X105730080Y-48505606D01*
X105782741Y-48414394D01*
X105810000Y-48312661D01*
X105810000Y-48207339D01*
X105782741Y-48105606D01*
X105730080Y-48014394D01*
X105725686Y-48010000D01*
X106686609Y-48010000D01*
X106677990Y-47955586D01*
X106614755Y-47760970D01*
X106521859Y-47578650D01*
X106401582Y-47413105D01*
X106401582Y-47413104D01*
X106256895Y-47268417D01*
X106091349Y-47148140D01*
X105909029Y-47055244D01*
X105714413Y-46992009D01*
X105660000Y-46983390D01*
X105660000Y-47944314D01*
X105655606Y-47939920D01*
X105564394Y-47887259D01*
X105462661Y-47860000D01*
X105357339Y-47860000D01*
X105255606Y-47887259D01*
X105164394Y-47939920D01*
X105160000Y-47944314D01*
X105160000Y-46983390D01*
X105105586Y-46992009D01*
X104910970Y-47055244D01*
X104728650Y-47148140D01*
X104563105Y-47268417D01*
X104563104Y-47268417D01*
X104418417Y-47413104D01*
X104418417Y-47413105D01*
X104298140Y-47578650D01*
X104205244Y-47760970D01*
X104142009Y-47955586D01*
X104133391Y-48010000D01*
X105094314Y-48010000D01*
X105089920Y-48014394D01*
X105037259Y-48105606D01*
X105010000Y-48207339D01*
X105010000Y-48312661D01*
X105037259Y-48414394D01*
X105089920Y-48505606D01*
X105094314Y-48510000D01*
X104133391Y-48510000D01*
X104142009Y-48564413D01*
X104205244Y-48759029D01*
X104277890Y-48901605D01*
X104290786Y-48970274D01*
X104264510Y-49035015D01*
X104207403Y-49075272D01*
X104167405Y-49081900D01*
X101900097Y-49081900D01*
X101833058Y-49062215D01*
X101812416Y-49045581D01*
X100354077Y-47587242D01*
X100320592Y-47525919D01*
X100323828Y-47461241D01*
X100328477Y-47446934D01*
X100360500Y-47244752D01*
X100360500Y-47040048D01*
X100328477Y-46837866D01*
X100265220Y-46643181D01*
X100265218Y-46643178D01*
X100265218Y-46643176D01*
X100217568Y-46549659D01*
X100172287Y-46460790D01*
X100161784Y-46446334D01*
X100049103Y-46291239D01*
X100050812Y-46289997D01*
X100025837Y-46234321D01*
X100036246Y-46165231D01*
X100082354Y-46112736D01*
X100148691Y-46093500D01*
X131072100Y-46093500D01*
X131139139Y-46113185D01*
G37*
%TD.AperFunction*%
%TA.AperFunction,Conductor*%
G36*
X88484121Y-60864414D02*
G01*
X88495463Y-60862577D01*
X88517533Y-60872184D01*
X88540983Y-60877637D01*
X88550638Y-60886594D01*
X88559526Y-60890463D01*
X88583111Y-60916720D01*
X88630857Y-60988177D01*
X88630863Y-60988185D01*
X88774537Y-61131859D01*
X88774559Y-61131879D01*
X90113281Y-62470601D01*
X90146766Y-62531924D01*
X90148073Y-62538883D01*
X90171523Y-62686935D01*
X90234781Y-62881623D01*
X90327715Y-63064013D01*
X90448028Y-63229613D01*
X90592786Y-63374371D01*
X90747749Y-63486956D01*
X90758390Y-63494687D01*
X90818552Y-63525341D01*
X90851629Y-63542195D01*
X90902425Y-63590170D01*
X90919220Y-63657991D01*
X90896682Y-63724126D01*
X90851629Y-63763165D01*
X90758650Y-63810540D01*
X90593105Y-63930817D01*
X90593104Y-63930817D01*
X90448417Y-64075504D01*
X90448417Y-64075505D01*
X90328140Y-64241050D01*
X90235244Y-64423370D01*
X90172009Y-64617986D01*
X90163391Y-64672400D01*
X91124314Y-64672400D01*
X91119920Y-64676794D01*
X91067259Y-64768006D01*
X91040000Y-64869739D01*
X91040000Y-64975061D01*
X91067259Y-65076794D01*
X91119920Y-65168006D01*
X91124314Y-65172400D01*
X90163391Y-65172400D01*
X90172009Y-65226813D01*
X90235244Y-65421429D01*
X90328140Y-65603749D01*
X90448417Y-65769294D01*
X90448417Y-65769295D01*
X90593104Y-65913982D01*
X90758652Y-66034261D01*
X90851628Y-66081634D01*
X90902425Y-66129608D01*
X90919220Y-66197429D01*
X90896683Y-66263564D01*
X90851630Y-66302603D01*
X90758388Y-66350113D01*
X90592786Y-66470428D01*
X90448028Y-66615186D01*
X90327715Y-66780786D01*
X90234781Y-66963176D01*
X90171522Y-67157865D01*
X90139500Y-67360048D01*
X90139500Y-67564751D01*
X90171522Y-67766934D01*
X90176173Y-67781248D01*
X90178165Y-67851090D01*
X90145921Y-67907242D01*
X88840777Y-69212386D01*
X88779454Y-69245871D01*
X88709762Y-69240887D01*
X88653829Y-69199015D01*
X88652777Y-69197589D01*
X88621969Y-69155184D01*
X88477213Y-69010428D01*
X88311614Y-68890115D01*
X88235268Y-68851215D01*
X88218917Y-68842883D01*
X88168123Y-68794911D01*
X88151328Y-68727090D01*
X88173865Y-68660955D01*
X88218917Y-68621916D01*
X88311610Y-68574687D01*
X88379224Y-68525563D01*
X88477213Y-68454371D01*
X88477215Y-68454368D01*
X88477219Y-68454366D01*
X88621966Y-68309619D01*
X88621968Y-68309615D01*
X88621971Y-68309613D01*
X88691445Y-68213988D01*
X88742287Y-68144010D01*
X88835220Y-67961619D01*
X88898477Y-67766934D01*
X88930500Y-67564752D01*
X88930500Y-67360048D01*
X88898477Y-67157866D01*
X88898321Y-67157387D01*
X88841431Y-66982296D01*
X88835220Y-66963181D01*
X88835218Y-66963178D01*
X88835218Y-66963176D01*
X88793964Y-66882212D01*
X88742287Y-66780790D01*
X88721837Y-66752643D01*
X88621971Y-66615186D01*
X88477213Y-66470428D01*
X88311614Y-66350115D01*
X88239943Y-66313597D01*
X88218917Y-66302883D01*
X88168123Y-66254911D01*
X88151328Y-66187090D01*
X88173865Y-66120955D01*
X88218917Y-66081916D01*
X88311610Y-66034687D01*
X88406814Y-65965518D01*
X88477213Y-65914371D01*
X88477215Y-65914368D01*
X88477219Y-65914366D01*
X88621966Y-65769619D01*
X88621968Y-65769615D01*
X88621971Y-65769613D01*
X88691445Y-65673988D01*
X88742287Y-65604010D01*
X88835220Y-65421619D01*
X88898477Y-65226934D01*
X88930500Y-65024752D01*
X88930500Y-64820048D01*
X88907830Y-64676916D01*
X88898477Y-64617865D01*
X88842192Y-64444640D01*
X88835220Y-64423181D01*
X88835218Y-64423178D01*
X88835218Y-64423176D01*
X88793144Y-64340602D01*
X88742287Y-64240790D01*
X88691447Y-64170814D01*
X88621971Y-64075186D01*
X88477213Y-63930428D01*
X88311614Y-63810115D01*
X88305006Y-63806748D01*
X88218917Y-63762883D01*
X88168123Y-63714911D01*
X88151328Y-63647090D01*
X88173865Y-63580955D01*
X88218917Y-63541916D01*
X88311610Y-63494687D01*
X88390314Y-63437506D01*
X88477213Y-63374371D01*
X88477215Y-63374368D01*
X88477219Y-63374366D01*
X88621966Y-63229619D01*
X88621968Y-63229615D01*
X88621971Y-63229613D01*
X88691445Y-63133988D01*
X88742287Y-63064010D01*
X88835027Y-62881997D01*
X88835218Y-62881623D01*
X88835218Y-62881622D01*
X88835220Y-62881619D01*
X88898477Y-62686934D01*
X88930500Y-62484752D01*
X88930500Y-62280048D01*
X88908419Y-62140638D01*
X88898477Y-62077865D01*
X88842192Y-61904640D01*
X88835220Y-61883181D01*
X88835218Y-61883178D01*
X88835218Y-61883176D01*
X88766819Y-61748937D01*
X88742287Y-61700790D01*
X88713931Y-61661761D01*
X88621971Y-61535186D01*
X88477213Y-61390428D01*
X88311614Y-61270115D01*
X88305006Y-61266748D01*
X88218917Y-61222883D01*
X88168123Y-61174911D01*
X88151328Y-61107090D01*
X88173865Y-61040955D01*
X88218917Y-61001916D01*
X88311610Y-60954687D01*
X88407126Y-60885290D01*
X88417946Y-60881430D01*
X88426493Y-60873753D01*
X88450253Y-60869902D01*
X88472929Y-60861812D01*
X88484121Y-60864414D01*
G37*
%TD.AperFunction*%
%TA.AperFunction,Conductor*%
G36*
X98038348Y-46113185D02*
G01*
X98084103Y-46165989D01*
X98094047Y-46235147D01*
X98069212Y-46290015D01*
X98070897Y-46291239D01*
X97947715Y-46460786D01*
X97854781Y-46643176D01*
X97791522Y-46837865D01*
X97759500Y-47040048D01*
X97759500Y-47244751D01*
X97791522Y-47446934D01*
X97854781Y-47641623D01*
X97897405Y-47725275D01*
X97934542Y-47798161D01*
X97947715Y-47824013D01*
X98068028Y-47989613D01*
X98212786Y-48134371D01*
X98367749Y-48246956D01*
X98378390Y-48254687D01*
X98433730Y-48282884D01*
X98471080Y-48301915D01*
X98521876Y-48349890D01*
X98538671Y-48417711D01*
X98516134Y-48483846D01*
X98471080Y-48522885D01*
X98378386Y-48570115D01*
X98212786Y-48690428D01*
X98068028Y-48835186D01*
X97947715Y-49000786D01*
X97854781Y-49183176D01*
X97791522Y-49377865D01*
X97768258Y-49524751D01*
X97759500Y-49580048D01*
X97759500Y-49784752D01*
X97763581Y-49810517D01*
X97791522Y-49986934D01*
X97854781Y-50181623D01*
X97947715Y-50364013D01*
X98068028Y-50529613D01*
X98212786Y-50674371D01*
X98364047Y-50784266D01*
X98378390Y-50794687D01*
X98460099Y-50836320D01*
X98471080Y-50841915D01*
X98521876Y-50889890D01*
X98538671Y-50957711D01*
X98516134Y-51023846D01*
X98471080Y-51062885D01*
X98378386Y-51110115D01*
X98212786Y-51230428D01*
X98068028Y-51375186D01*
X97947715Y-51540786D01*
X97854781Y-51723176D01*
X97791522Y-51917865D01*
X97763803Y-52092881D01*
X97759500Y-52120048D01*
X97759500Y-52324752D01*
X97761453Y-52337081D01*
X97791522Y-52526934D01*
X97854781Y-52721623D01*
X97886862Y-52784584D01*
X97935865Y-52880758D01*
X97947715Y-52904013D01*
X98068028Y-53069613D01*
X98212786Y-53214371D01*
X98347435Y-53312197D01*
X98378390Y-53334687D01*
X98445533Y-53368898D01*
X98471080Y-53381915D01*
X98521876Y-53429890D01*
X98538671Y-53497711D01*
X98516134Y-53563846D01*
X98471080Y-53602885D01*
X98378386Y-53650115D01*
X98212786Y-53770428D01*
X98068028Y-53915186D01*
X97947715Y-54080786D01*
X97854781Y-54263176D01*
X97791522Y-54457865D01*
X97776259Y-54554236D01*
X97759500Y-54660048D01*
X97759500Y-54864752D01*
X97761495Y-54877349D01*
X97791522Y-55066934D01*
X97854781Y-55261623D01*
X97947715Y-55444013D01*
X98068028Y-55609613D01*
X98212786Y-55754371D01*
X98341260Y-55847711D01*
X98378390Y-55874687D01*
X98455244Y-55913846D01*
X98471080Y-55921915D01*
X98521876Y-55969890D01*
X98538671Y-56037711D01*
X98516134Y-56103846D01*
X98471080Y-56142885D01*
X98378386Y-56190115D01*
X98212786Y-56310428D01*
X98068028Y-56455186D01*
X97947715Y-56620786D01*
X97854781Y-56803176D01*
X97791522Y-56997865D01*
X97772980Y-57114939D01*
X97759500Y-57200048D01*
X97759500Y-57404752D01*
X97761495Y-57417349D01*
X97791522Y-57606934D01*
X97854781Y-57801623D01*
X97947715Y-57984013D01*
X98068028Y-58149613D01*
X98212786Y-58294371D01*
X98341260Y-58387711D01*
X98378390Y-58414687D01*
X98455244Y-58453846D01*
X98471080Y-58461915D01*
X98521876Y-58509890D01*
X98538671Y-58577711D01*
X98516134Y-58643846D01*
X98471080Y-58682885D01*
X98378386Y-58730115D01*
X98212786Y-58850428D01*
X98068028Y-58995186D01*
X97947715Y-59160786D01*
X97854781Y-59343176D01*
X97791522Y-59537865D01*
X97768227Y-59684947D01*
X97759500Y-59740048D01*
X97759500Y-59944752D01*
X97761495Y-59957349D01*
X97791522Y-60146934D01*
X97854781Y-60341623D01*
X97912151Y-60454215D01*
X97945983Y-60520615D01*
X97947715Y-60524013D01*
X98068028Y-60689613D01*
X98212786Y-60834371D01*
X98341260Y-60927711D01*
X98378390Y-60954687D01*
X98450424Y-60991390D01*
X98471629Y-61002195D01*
X98522425Y-61050170D01*
X98539220Y-61117991D01*
X98516682Y-61184126D01*
X98471629Y-61223165D01*
X98378650Y-61270540D01*
X98213105Y-61390817D01*
X98213104Y-61390817D01*
X98068417Y-61535504D01*
X98068417Y-61535505D01*
X97948140Y-61701050D01*
X97855244Y-61883370D01*
X97792009Y-62077986D01*
X97783391Y-62132400D01*
X98744314Y-62132400D01*
X98739920Y-62136794D01*
X98687259Y-62228006D01*
X98660000Y-62329739D01*
X98660000Y-62435061D01*
X98687259Y-62536794D01*
X98739920Y-62628006D01*
X98744314Y-62632400D01*
X97783391Y-62632400D01*
X97792009Y-62686813D01*
X97855244Y-62881429D01*
X97948140Y-63063749D01*
X98068417Y-63229294D01*
X98068417Y-63229295D01*
X98213104Y-63373982D01*
X98378652Y-63494261D01*
X98471628Y-63541634D01*
X98522425Y-63589608D01*
X98539220Y-63657429D01*
X98516683Y-63723564D01*
X98471630Y-63762603D01*
X98378388Y-63810113D01*
X98212786Y-63930428D01*
X98068028Y-64075186D01*
X97947715Y-64240786D01*
X97854781Y-64423176D01*
X97791522Y-64617865D01*
X97759500Y-64820048D01*
X97759500Y-65024751D01*
X97791522Y-65226934D01*
X97854781Y-65421623D01*
X97891899Y-65494469D01*
X97940533Y-65589919D01*
X97947715Y-65604013D01*
X98068028Y-65769613D01*
X98212786Y-65914371D01*
X98347647Y-66012351D01*
X98378390Y-66034687D01*
X98469840Y-66081283D01*
X98471080Y-66081915D01*
X98476775Y-66087294D01*
X98484239Y-66089676D01*
X98501817Y-66110945D01*
X98521876Y-66129890D01*
X98523759Y-66137494D01*
X98528750Y-66143533D01*
X98532039Y-66170929D01*
X98538671Y-66197711D01*
X98536144Y-66205125D01*
X98537078Y-66212904D01*
X98525034Y-66237726D01*
X98516134Y-66263846D01*
X98509225Y-66270312D01*
X98506579Y-66275766D01*
X98489265Y-66288992D01*
X98479374Y-66298250D01*
X98475310Y-66300729D01*
X98378390Y-66350113D01*
X98294533Y-66411037D01*
X98290264Y-66413643D01*
X98261151Y-66421458D01*
X98232753Y-66431591D01*
X98227746Y-66430426D01*
X98222784Y-66431759D01*
X98194065Y-66422594D01*
X98164699Y-66415765D01*
X98158929Y-66411381D01*
X98156221Y-66410517D01*
X98153569Y-66407308D01*
X98137994Y-66395474D01*
X93491479Y-61748959D01*
X93491459Y-61748937D01*
X93347785Y-61605263D01*
X93347781Y-61605260D01*
X93183920Y-61495771D01*
X93183907Y-61495764D01*
X93030498Y-61432220D01*
X93030489Y-61432217D01*
X93021859Y-61428643D01*
X93001836Y-61420349D01*
X92905188Y-61401124D01*
X92902389Y-61400567D01*
X92902384Y-61400566D01*
X92808544Y-61381900D01*
X92808541Y-61381900D01*
X92315762Y-61381900D01*
X92248723Y-61362215D01*
X92242877Y-61358218D01*
X92121613Y-61270115D01*
X92121612Y-61270114D01*
X92121610Y-61270113D01*
X92028917Y-61222883D01*
X91978123Y-61174911D01*
X91961328Y-61107090D01*
X91983865Y-61040955D01*
X92028917Y-61001916D01*
X92121610Y-60954687D01*
X92158740Y-60927711D01*
X92287213Y-60834371D01*
X92287215Y-60834368D01*
X92287219Y-60834366D01*
X92431966Y-60689619D01*
X92431968Y-60689615D01*
X92431971Y-60689613D01*
X92501445Y-60593988D01*
X92552287Y-60524010D01*
X92645220Y-60341619D01*
X92708477Y-60146934D01*
X92740500Y-59944752D01*
X92740500Y-59740048D01*
X92712295Y-59561970D01*
X92708477Y-59537865D01*
X92679127Y-59447537D01*
X92645220Y-59343181D01*
X92645218Y-59343178D01*
X92645218Y-59343176D01*
X92573079Y-59201597D01*
X92552287Y-59160790D01*
X92544556Y-59150149D01*
X92431971Y-58995186D01*
X92287213Y-58850428D01*
X92121614Y-58730115D01*
X92115006Y-58726748D01*
X92028917Y-58682883D01*
X91978123Y-58634911D01*
X91961328Y-58567090D01*
X91983865Y-58500955D01*
X92028917Y-58461916D01*
X92121610Y-58414687D01*
X92217501Y-58345019D01*
X92287213Y-58294371D01*
X92287215Y-58294368D01*
X92287219Y-58294366D01*
X92431966Y-58149619D01*
X92431968Y-58149615D01*
X92431971Y-58149613D01*
X92501445Y-58053988D01*
X92552287Y-57984010D01*
X92645220Y-57801619D01*
X92708477Y-57606934D01*
X92740500Y-57404752D01*
X92740500Y-57200048D01*
X92716402Y-57047900D01*
X92708477Y-56997865D01*
X92646742Y-56807865D01*
X92645220Y-56803181D01*
X92645218Y-56803178D01*
X92645218Y-56803176D01*
X92587848Y-56690583D01*
X92552287Y-56620790D01*
X92544556Y-56610149D01*
X92431971Y-56455186D01*
X92287213Y-56310428D01*
X92121614Y-56190115D01*
X92107175Y-56182758D01*
X92028917Y-56142883D01*
X91978123Y-56094911D01*
X91961328Y-56027090D01*
X91983865Y-55960955D01*
X92028917Y-55921916D01*
X92121610Y-55874687D01*
X92204772Y-55814267D01*
X92287213Y-55754371D01*
X92287215Y-55754368D01*
X92287219Y-55754366D01*
X92431966Y-55609619D01*
X92431968Y-55609615D01*
X92431971Y-55609613D01*
X92501445Y-55513988D01*
X92552287Y-55444010D01*
X92645220Y-55261619D01*
X92708477Y-55066934D01*
X92740500Y-54864752D01*
X92740500Y-54660048D01*
X92713301Y-54488324D01*
X92708477Y-54457865D01*
X92658960Y-54305468D01*
X92645220Y-54263181D01*
X92645218Y-54263178D01*
X92645218Y-54263176D01*
X92591553Y-54157854D01*
X92552287Y-54080790D01*
X92502930Y-54012855D01*
X92431971Y-53915186D01*
X92287213Y-53770428D01*
X92121614Y-53650115D01*
X92059929Y-53618685D01*
X92028917Y-53602883D01*
X91978123Y-53554911D01*
X91961328Y-53487090D01*
X91983865Y-53420955D01*
X92028917Y-53381916D01*
X92121610Y-53334687D01*
X92152565Y-53312197D01*
X92287213Y-53214371D01*
X92287215Y-53214368D01*
X92287219Y-53214366D01*
X92431966Y-53069619D01*
X92431968Y-53069615D01*
X92431971Y-53069613D01*
X92492375Y-52986472D01*
X92552287Y-52904010D01*
X92645220Y-52721619D01*
X92708477Y-52526934D01*
X92740500Y-52324752D01*
X92740500Y-52120048D01*
X92724705Y-52020321D01*
X92708477Y-51917865D01*
X92677458Y-51822400D01*
X92645220Y-51723181D01*
X92645218Y-51723178D01*
X92645218Y-51723176D01*
X92603066Y-51640449D01*
X92552287Y-51540790D01*
X92490056Y-51455135D01*
X92431971Y-51375186D01*
X92287213Y-51230428D01*
X92121614Y-51110115D01*
X92115006Y-51106748D01*
X92028917Y-51062883D01*
X91978123Y-51014911D01*
X91961328Y-50947090D01*
X91983865Y-50880955D01*
X92028917Y-50841916D01*
X92121610Y-50794687D01*
X92198121Y-50739099D01*
X92287213Y-50674371D01*
X92287215Y-50674368D01*
X92287219Y-50674366D01*
X92431966Y-50529619D01*
X92431968Y-50529615D01*
X92431971Y-50529613D01*
X92501976Y-50433258D01*
X92552287Y-50364010D01*
X92645220Y-50181619D01*
X92708477Y-49986934D01*
X92740500Y-49784752D01*
X92740500Y-49580048D01*
X92730495Y-49516881D01*
X92708477Y-49377865D01*
X92651296Y-49201881D01*
X92645220Y-49183181D01*
X92645218Y-49183177D01*
X92645218Y-49183176D01*
X92604019Y-49102320D01*
X92552287Y-49000790D01*
X92508305Y-48940253D01*
X92431971Y-48835186D01*
X92287219Y-48690434D01*
X92250930Y-48664069D01*
X92208264Y-48608739D01*
X92202285Y-48539126D01*
X92234890Y-48477331D01*
X92295728Y-48442973D01*
X92310562Y-48440460D01*
X92347483Y-48436491D01*
X92482328Y-48386197D01*
X92482327Y-48386197D01*
X92482331Y-48386196D01*
X92597546Y-48299946D01*
X92683796Y-48184731D01*
X92734091Y-48049883D01*
X92740500Y-47990273D01*
X92740499Y-46294528D01*
X92738270Y-46273794D01*
X92733644Y-46230752D01*
X92746051Y-46161993D01*
X92793663Y-46110857D01*
X92856934Y-46093500D01*
X97971309Y-46093500D01*
X98038348Y-46113185D01*
G37*
%TD.AperFunction*%
%TD*%
M02*
